<?xml version="1.0" encoding="UTF-8"?>
<svg id="Capa_2" data-name="Capa 2" xmlns="http://www.w3.org/2000/svg" viewBox="0 0 485.16 397.11">
  <defs>
    <style>
      .cls-1 {
        fill: #bc1e1b;
      }

      .cls-2 {
        fill: #fff;
      }

      .cls-3 {
        fill: #668e19;
      }

      .cls-4 {
        fill: #182460;
      }

      .cls-5 {
        fill: #ffbd1a;
      }

      .cls-6 {
        fill: #f1f2f2;
      }

      .cls-7 {
        fill: #ffd364;
      }

      .cls-8 {
        fill: #8dc63f;
      }

      .cls-9 {
        fill: #ffc200;
      }

      .cls-10 {
        fill: #ef4136;
      }

      .cls-11 {
        fill: #231f20;
      }
    </style>
  </defs>
  <g id="Layer_1" data-name="Layer 1">
    <g>
      <g>
        <rect class="cls-2" x="23.65" y="50.2" width="234.75" height="162.15"/>
        <rect class="cls-5" x="45.19" y="69.29" width="191.67" height="123.98"/>
        <polygon class="cls-6" points="23.65 212.35 0 250.97 282.06 250.97 258.41 212.35 23.65 212.35"/>
        <rect class="cls-2" y="250.97" width="282.06" height="20.55"/>
      </g>
      <g>
        <path class="cls-7" d="M216.02,327.08v-18.73l-15.82-11.02c-1.61-1.13-2.9-2.66-3.74-4.44l-7.85-16.79c-1.62-3.46-.03-7.56,3.49-9.04h0c3.2-1.34,6.89-.02,8.52,3.04,2.45,4.59,5.57,10.44,5.57,10.44h4.27c2.78,0,5.03-2.25,5.03-5.03v-37.51c0-2.47,2.01-4.48,4.48-4.48h5.48v-.85c0-3.05,2.47-5.53,5.53-5.53h2.21c3.05,0,5.53,2.48,5.53,5.53h5.43c2.17,0,3.94,1.76,3.94,3.94v1.81h2.31c3.38,0,6.11,2.74,6.11,6.11v46.55c0,2.86-1,5.64-2.83,7.84l-8.02,9.67v16.59l-29.63,1.91Z"/>
        <path class="cls-9" d="M230.09,227.2c-2.64,.42-4.65,2.7-4.65,5.46v.85h-5.48c-2.48,0-4.48,2.01-4.48,4.48v37.51c0,2.78-2.25,5.03-5.03,5.03h-4.27s-3.12-5.85-5.57-10.44c-1.63-3.06-5.32-4.37-8.52-3.04h0c-3.52,1.47-5.11,5.58-3.49,9.04l7.85,16.79c.83,1.78,2.12,3.32,3.74,4.44l15.82,11.02v18.73l14.07-.91v-98.97Z"/>
        <rect class="cls-3" x="210.25" y="332.12" width="19.83" height="64.99"/>
        <rect class="cls-8" x="207.26" y="354.7" width="64.99" height="19.83" transform="translate(-124.86 604.38) rotate(-90)"/>
        <rect class="cls-1" x="205.94" y="321.39" width="24.18" height="23.63" transform="translate(-115.17 551.23) rotate(-90)"/>
        <rect class="cls-10" x="229.56" y="321.39" width="24.18" height="23.63" transform="translate(-91.55 574.85) rotate(-90)"/>
      </g>
      <g>
        <path class="cls-9" d="M69.91,327.08v-18.73l15.82-11.02c1.61-1.13,2.9-2.66,3.74-4.44l7.85-16.79c1.62-3.46,.03-7.56-3.49-9.04h0c-3.2-1.34-6.89-.02-8.52,3.04-2.45,4.59-5.57,10.44-5.57,10.44h-4.27c-2.78,0-5.03-2.25-5.03-5.03v-37.51c0-2.47-2.01-4.48-4.48-4.48h-5.48v-.85c0-3.05-2.48-5.53-5.53-5.53h-2.21c-3.05,0-5.53,2.48-5.53,5.53h-5.43c-2.17,0-3.94,1.76-3.94,3.94v1.81h-2.31c-3.38,0-6.11,2.74-6.11,6.11v46.55c0,2.86,1,5.64,2.83,7.84l8.02,9.67v16.59l29.63,1.91Z"/>
        <path class="cls-7" d="M55.85,227.2c2.64,.42,4.65,2.7,4.65,5.46v.85h5.48c2.48,0,4.48,2.01,4.48,4.48v37.51c0,2.78,2.25,5.03,5.03,5.03h4.27s3.12-5.85,5.57-10.44c1.63-3.06,5.32-4.37,8.52-3.04h0c3.52,1.47,5.11,5.58,3.49,9.04l-7.85,16.79c-.83,1.78-2.12,3.32-3.74,4.44l-15.82,11.02v18.73l-14.06-.91v-98.97Z"/>
        <rect class="cls-8" x="33.27" y="354.7" width="64.99" height="19.83" transform="translate(-298.85 430.38) rotate(-90)"/>
        <rect class="cls-3" x="36.26" y="332.12" width="19.83" height="64.99"/>
        <rect class="cls-10" x="55.82" y="321.39" width="24.18" height="23.63" transform="translate(-265.29 401.11) rotate(-90)"/>
        <rect class="cls-1" x="32.19" y="321.39" width="24.18" height="23.63" transform="translate(-288.92 377.48) rotate(-90)"/>
      </g>
      <path class="cls-11" d="M304.37,86h-2.53v-2.92h2.53v2.92Zm-9.55,0h-2.53v-2.92h2.53v2.92Zm-9.55,0h-2.53v-2.92h2.53v2.92Zm-9.55,0h-2.53v-2.92h2.53v2.92Zm-9.55,0h-2.53v-2.92h2.53v2.92Zm-9.55,0h-2.53v-2.92h2.53v2.92Zm-9.55,0h-2.53v-2.92h2.53v2.92Zm-9.55,0h-2.53v-2.92h2.53v2.92Zm-9.55,0h-2.53v-2.92h2.53v2.92Zm-9.55,0h-2.53v-2.92h2.53v2.92Zm-9.55,0h-2.54v-2.92h2.54v2.92Zm-9.55,0h-2.54v-2.92h2.54v2.92Zm-9.55,0h-2.54v-2.92h2.54v2.92Zm-9.55,0h-2.54v-2.92h2.54v2.92Zm-9.55,0h-2.54v-2.92h2.54v2.92Zm-9.55,0h-2.54v-2.92h2.54v2.92Zm-9.55,0h-2.54v-2.92h2.54v2.92Zm-9.56,0h-2.53v-2.92h2.53v2.92Zm-9.55,0h-2.53v-2.92h2.53v2.92Zm-9.55,0h-2.53v-2.92h2.53v2.92Zm-9.55,0h-2.53v-2.92h2.53v2.92Zm-9.55,0h-2.53v-2.92h2.53v2.92Zm206.74-3.83h-2.92v-2.53h2.92v2.53Zm0-9.55h-2.92v-2.53h2.92v2.53Zm0-9.55h-2.92v-2.53h2.92v2.53Zm0-9.55h-2.92v-2.53h2.92v2.53Zm0-9.55h-2.92v-2.53h2.92v2.53Zm0-9.55h-2.92v-2.53h2.92v2.53Zm0-9.55h-2.92v-2.53h2.92v2.53Zm25.06-3.22h-2.53v-2.92h2.53v2.92Zm-9.55,0h-2.53v-2.92h2.53v2.92Zm-9.55,0h-2.53v-2.92h2.53v2.92Z"/>
      <path class="cls-11" d="M380.81,111.03h-2.53v-2.92h2.53v2.92Zm-9.55,0h-2.54v-2.92h2.54v2.92Zm-9.55,0h-2.54v-2.92h2.54v2.92Zm-9.55,0h-2.54v-2.92h2.54v2.92Zm-9.55,0h-2.54v-2.92h2.54v2.92Zm-9.55,0h-2.54v-2.92h2.54v2.92Zm-9.55,0h-2.54v-2.92h2.54v2.92Zm-9.55,0h-2.54v-2.92h2.54v2.92Zm-9.55,0h-2.53v-2.92h2.53v2.92Zm-9.55,0h-2.53v-2.92h2.53v2.92Zm-9.55,0h-2.53v-2.92h2.53v2.92Zm-9.55,0h-2.53v-2.92h2.53v2.92Zm-9.55,0h-2.53v-2.92h2.53v2.92Zm-9.55,0h-2.53v-2.92h2.53v2.92Zm-9.55,0h-2.53v-2.92h2.53v2.92Zm-9.55,0h-2.53v-2.92h2.53v2.92Zm-9.55,0h-2.53v-2.92h2.53v2.92Zm-9.55,0h-2.53v-2.92h2.53v2.92Zm-9.55,0h-2.54v-2.92h2.54v2.92Zm-9.55,0h-2.54v-2.92h2.54v2.92Zm-9.55,0h-2.54v-2.92h2.54v2.92Zm-9.55,0h-2.54v-2.92h2.54v2.92Zm-9.55,0h-2.54v-2.92h2.54v2.92Zm-9.55,0h-2.54v-2.92h2.54v2.92Zm-9.55,0h-2.54v-2.92h2.54v2.92Zm-9.56,0h-2.53v-2.92h2.53v2.92Zm-9.55,0h-2.53v-2.92h2.53v2.92Zm-9.55,0h-2.53v-2.92h2.53v2.92Zm-9.55,0h-2.53v-2.92h2.53v2.92Zm-9.55,0h-2.53v-2.92h2.53v2.92Z"/>
      <path class="cls-11" d="M414.19,185.26h-2.53v-2.92h2.53v2.92Zm-9.55,0h-2.53v-2.92h2.53v2.92Zm-9.55,0h-2.53v-2.92h2.53v2.92Zm-9.55,0h-2.53v-2.92h2.53v2.92Zm-9.55,0h-2.53v-2.92h2.53v2.92Zm-9.55,0h-2.53v-2.92h2.53v2.92Zm-9.55,0h-2.53v-2.92h2.53v2.92Zm-5.72-3.83h-2.92v-2.53h2.92v2.53Zm0-9.55h-2.92v-2.53h2.92v2.53Zm0-9.55h-2.92v-2.53h2.92v2.53Zm0-9.55h-2.92v-2.53h2.92v2.53Zm0-9.55h-2.92v-2.53h2.92v2.53Zm0-9.55h-2.92v-2.46h1.43l-.04-1.46h1.53v3.93Zm-8.55-1h-2.54v-2.92h2.54v2.92Zm-9.55,0h-2.54v-2.92h2.54v2.92Zm-9.55,0h-2.54v-2.92h2.54v2.92Zm-9.55,0h-2.54v-2.92h2.54v2.92Zm-9.55,0h-2.53v-2.92h2.53v2.92Zm-9.55,0h-2.53v-2.92h2.53v2.92Zm-9.55,0h-2.53v-2.92h2.53v2.92Zm-9.55,0h-2.53v-2.92h2.53v2.92Zm-9.55,0h-2.53v-2.92h2.53v2.92Zm-9.55,0h-2.53v-2.92h2.53v2.92Zm-9.55,0h-2.53v-2.92h2.53v2.92Zm-9.55,0h-2.53v-2.92h2.53v2.92Zm-9.55,0h-2.53v-2.92h2.53v2.92Zm-9.55,0h-2.53v-2.92h2.53v2.92Zm-9.55,0h-2.54v-2.92h2.54v2.92Zm-9.55,0h-2.54v-2.92h2.54v2.92Zm-9.55,0h-2.54v-2.92h2.54v2.92Zm-9.55,0h-2.54v-2.92h2.54v2.92Zm-9.55,0h-2.54v-2.92h2.54v2.92Zm-9.55,0h-2.54v-2.92h2.54v2.92Zm-9.55,0h-2.54v-2.92h2.54v2.92Zm-9.56,0h-2.53v-2.92h2.53v2.92Zm-9.55,0h-2.53v-2.92h2.53v2.92Zm-9.55,0h-2.53v-2.92h2.53v2.92Zm-9.55,0h-2.53v-2.92h2.53v2.92Zm-9.55,0h-2.53v-2.92h2.53v2.92Z"/>
      <path class="cls-11" d="M333.76,261.42h-2.53v-2.93h2.53v2.93Zm9.55,0h-2.53v-2.93h2.53v2.93Zm9.55,0h-2.53v-2.93h2.53v2.93Zm16.58,0v-2.93s2.53,0,2.53,0v2.93s-2.53,0-2.53,0Zm-7.02,0h-2.53v-2.93h2.53v2.93Zm-32.06-6.13h-2.92v-2.54h2.92v2.54Zm0-9.55h-2.92v-2.54h2.92v2.54Zm0-9.55h-2.92v-2.54h2.92v2.54Zm0-9.55h-2.92v-2.54h2.92v2.54Zm0-9.55h-2.92v-2.53h2.92v2.53Zm0-9.55h-2.92v-2.53h2.92v2.53Zm0-9.55h-2.92v-2.53h2.92v2.53Zm0-9.55h-2.92v-2.53h2.92v2.53Zm0-9.55h-2.92v-2.53h2.92v2.53Zm0-9.55h-2.92v-2.53h2.92v2.53Zm0-9.55h-2.92v-2.54h2.92v2.54Zm-6.87-2.68h-2.54v-2.92h2.54v2.92Zm-9.55,0h-2.54v-2.92h2.54v2.92Zm-9.55,0h-2.53v-2.92h2.53v2.92Zm-9.55,0h-2.53v-2.92h2.53v2.92Zm-9.55,0h-2.53v-2.92h2.53v2.92Zm-9.55,0h-2.53v-2.92h2.53v2.92Zm-9.55,0h-2.53v-2.92h2.53v2.92Zm-9.55,0h-2.53v-2.92h2.53v2.92Zm-9.55,0h-2.53v-2.92h2.53v2.92Zm-9.55,0h-2.53v-2.92h2.53v2.92Zm-9.55,0h-2.53v-2.92h2.53v2.92Zm-9.55,0h-2.53v-2.92h2.53v2.92Zm-9.55,0h-2.54v-2.92h2.54v2.92Zm-9.55,0h-2.54v-2.92h2.54v2.92Zm-9.55,0h-2.54v-2.92h2.54v2.92Zm-9.55,0h-2.54v-2.92h2.54v2.92Zm-9.55,0h-2.54v-2.92h2.54v2.92Zm-9.55,0h-2.54v-2.92h2.54v2.92Zm-9.55,0h-2.54v-2.92h2.54v2.92Zm-9.56,0h-2.53v-2.92h2.53v2.92Zm-9.55,0h-2.53v-2.92h2.53v2.92Zm-9.55,0h-2.53v-2.92h2.53v2.92Zm-9.55,0h-2.53v-2.92h2.53v2.92Zm-9.55,0h-2.53v-2.92h2.53v2.92Z"/>
      <path class="cls-9" d="M388.12,109.56c0,4.13-3.35,7.48-7.48,7.48s-7.48-3.35-7.48-7.48,3.35-7.48,7.48-7.48,7.48,3.35,7.48,7.48Z"/>
      <path class="cls-9" d="M349.97,20.17c0,4.13-3.35,7.48-7.48,7.48s-7.48-3.35-7.48-7.48,3.35-7.48,7.48-7.48,7.48,3.35,7.48,7.48Z"/>
      <path class="cls-9" d="M422.88,183.8c0,4.13-3.35,7.48-7.48,7.48s-7.48-3.35-7.48-7.48,3.35-7.48,7.48-7.48,7.48,3.35,7.48,7.48Z"/>
      <path class="cls-9" d="M386.29,259.93c0,4.13-3.35,7.48-7.48,7.48s-7.48-3.35-7.48-7.48,3.35-7.48,7.48-7.48,7.48,3.35,7.48,7.48Z"/>
      <g>
        <path class="cls-11" d="M410,35.25h-45.59V0h45.59V35.25Zm-43.64-1.95h41.69V1.95h-41.69v31.35Z"/>
        <path class="cls-11" d="M410,48.22h-45.59v-14.92h45.59v14.92Zm-43.64-1.95h41.69v-11.02h-41.69v11.02Z"/>
        <rect class="cls-11" x="383.7" y="37.97" width="14.37" height="1.95"/>
        <rect class="cls-11" x="383.7" y="41.65" width="19.63" height="1.95"/>
        <path class="cls-3" d="M393.44,12.61c0,3.8-3.08,6.88-6.87,6.88s-6.88-3.08-6.88-6.88,3.08-6.87,6.88-6.87,6.87,3.08,6.87,6.87Z"/>
        <path class="cls-3" d="M393.61,28.67h-14.07v-2.07c0-3.89,3.15-7.04,7.04-7.04h0c3.89,0,7.04,3.15,7.04,7.04v2.07Z"/>
        <path class="cls-11" d="M374.83,45.1l-.45-.23s-4.11-2.19-4.11-4.75c0-1.77,1.19-3.06,2.84-3.06,.58,0,1.2,.26,1.72,.58,.51-.33,1.13-.58,1.71-.58,1.65,0,2.84,1.29,2.84,3.06,0,2.57-4.07,4.73-4.11,4.75l-.45,.23Zm-1.72-6.09c-.66,0-.89,.6-.89,1.11,0,.78,1.51,2.08,2.61,2.76,1.1-.68,2.6-1.98,2.6-2.76,0-.18-.04-1.11-.89-1.11-.21,0-.73,.26-1.01,.56l-.7,.72-.7-.72c-.3-.3-.81-.56-1.02-.56Z"/>
      </g>
      <g>
        <g>
          <polygon class="cls-11" points="405.27 279.03 396.26 252.69 416.64 245.69 417.28 247.53 398.73 253.89 406.48 276.56 418.41 272.46 419.04 274.31 405.27 279.03"/>
          <polygon class="cls-11" points="407.79 286.4 404.64 277.19 418.41 272.46 419.04 274.31 407.11 278.4 409 283.93 435.58 274.86 435.19 273.69 437.04 273.08 438.04 276.07 407.79 286.4"/>
          <polygon class="cls-3" points="416.96 254.49 416.58 254.24 413.75 263.5 410.28 261.61 407.83 269.36 416.96 266.21 416.96 254.49"/>
        </g>
        <g>
          <path class="cls-11" d="M447.98,266.56h-31.98v-27.83h31.98v27.83Zm-30.03-1.94h28.08v-23.94h-28.08v23.94Z"/>
          <polygon class="cls-11" points="439.96 274.36 415.99 274.36 415.99 264.61 447.99 264.61 447.99 270.87 446.04 270.87 446.04 266.55 417.94 266.55 417.94 272.41 439.96 272.41 439.96 274.36"/>
          <polygon class="cls-3" points="421.51 258.23 426.36 251.68 429.05 254.64 434.74 246.76 442.75 258.23 421.51 258.23"/>
        </g>
        <path class="cls-11" d="M448.06,286.15h-9.55v-10.8c0-3.01,2.45-5.46,5.47-5.46h5.59v-3.62l13,8.39-13,8.39v-3.62h-1c-.28,0-.5,.23-.5,.51v6.21Zm-7.6-1.94h5.65v-4.27c0-1.35,1.1-2.46,2.46-2.46h2.95v1.98l7.45-4.81-7.45-4.81v1.98h-7.54c-1.94,0-3.52,1.58-3.52,3.52v8.86Z"/>
      </g>
      <g>
        <polygon class="cls-11" points="441.16 126.12 403.01 126.12 403.01 90.27 449.31 90.27 449.31 121.62 447.36 121.62 447.36 92.22 404.96 92.22 404.96 124.17 441.16 124.17 441.16 126.12"/>
        <path class="cls-11" d="M449.28,99.8h-46.29v-9.52h46.29v9.52Zm-44.34-1.95h42.39v-5.61h-42.39v5.61Z"/>
        <polygon class="cls-3" points="420.53 103.97 433.75 111.6 420.53 119.23 420.53 103.97"/>
        <path class="cls-11" d="M409.72,95.05c0,.59-.48,1.08-1.08,1.08s-1.08-.48-1.08-1.08,.48-1.08,1.08-1.08,1.08,.48,1.08,1.08Z"/>
        <path class="cls-11" d="M413.2,95.05c0,.59-.48,1.08-1.08,1.08s-1.08-.48-1.08-1.08,.48-1.08,1.08-1.08,1.08,.48,1.08,1.08Z"/>
        <path class="cls-11" d="M416.69,95.05c0,.59-.48,1.08-1.08,1.08s-1.08-.48-1.08-1.08,.48-1.08,1.08-1.08,1.08,.48,1.08,1.08Z"/>
        <path class="cls-11" d="M440.66,132.07c-.31,0-.62-.1-.89-.29-.53-.38-.76-1.06-.56-1.69l1.35-4.15-3.53-2.57c-.53-.38-.76-1.06-.55-1.69,.2-.63,.78-1.05,1.44-1.05h4.36l1.35-4.15c.4-1.25,2.47-1.25,2.88,0l1.35,4.15h4.37c.66,0,1.23,.42,1.44,1.05,.2,.62-.02,1.31-.55,1.69l-3.54,2.57,1.35,4.15c.21,.62-.02,1.3-.54,1.69-.53,.39-1.25,.38-1.78,0l-3.53-2.57-3.53,2.56c-.26,.19-.58,.29-.89,.29Zm4.42-4.91c.31,0,.62,.1,.89,.29l2.7,1.96-1.03-3.18c-.2-.63,.02-1.31,.55-1.69l2.7-1.97h-3.34c-.65,0-1.23-.42-1.44-1.04l-1.03-3.18-1.03,3.17c-.2,.62-.78,1.05-1.44,1.05h-3.34l2.7,1.97c.53,.39,.75,1.07,.55,1.69l-1.04,3.18,2.7-1.96c.26-.19,.58-.29,.89-.29Z"/>
      </g>
      <path class="cls-11" d="M327.96,329.29h-2.35v-2.93h2.35v2.93Zm-9.37,0h-2.53v-2.93h2.53v2.93Zm-9.55,0h-2.53v-2.93h2.53v2.93Zm-2.97-6.58h-2.92v-2.54h2.92v2.54Zm0-9.55h-2.92v-2.53h2.92v2.53Zm0-9.55h-2.92v-2.53h2.92v2.53Zm0-9.55h-2.92v-2.53h2.92v2.53Zm0-9.55h-2.92v-2.53h2.92v2.53Zm0-9.55h-2.92v-2.53h2.92v2.53Zm0-9.55h-2.92v-2.53h2.92v2.53Zm0-9.55h-2.92v-2.53h2.92v2.53Zm0-9.55h-2.92v-2.53h2.92v2.53Zm0-9.55h-2.92v-2.53h2.92v2.53Zm0-9.55h-2.92v-2.53h2.92v2.53Zm0-9.55h-2.92v-2.54h2.92v2.54Zm0-9.55h-2.92v-2.54h2.92v2.54Zm-5.32-4.23h-2.53v-2.92h2.53v2.92Zm-9.55,0h-2.53v-2.92h2.53v2.92Zm-9.55,0h-2.22v-3.24h2.92v1.78h-.71v1.46Zm.71-10.26h-2.92v-2.54h2.92v2.54Zm0-9.55h-2.92v-2.53h2.92v2.53Zm-6.62-2.93h-2.53v-2.92h2.53v2.92Zm-9.55,0h-2.53v-2.92h2.53v2.92Zm-9.55,0h-2.53v-2.92h2.53v2.92Zm-9.55,0h-2.53v-2.92h2.53v2.92Zm-9.55,0h-2.53v-2.92h2.53v2.92Zm-9.55,0h-2.53v-2.92h2.53v2.92Zm-9.55,0h-2.53v-2.92h2.53v2.92Zm-9.55,0h-2.54v-2.92h2.54v2.92Zm-9.55,0h-2.54v-2.92h2.54v2.92Zm-9.55,0h-2.54v-2.92h2.54v2.92Zm-9.55,0h-2.54v-2.92h2.54v2.92Zm-9.55,0h-2.54v-2.92h2.54v2.92Zm-9.55,0h-2.54v-2.92h2.54v2.92Zm-9.55,0h-2.54v-2.92h2.54v2.92Zm-9.56,0h-2.53v-2.92h2.53v2.92Zm-9.55,0h-2.53v-2.92h2.53v2.92Zm-9.55,0h-2.53v-2.92h2.53v2.92Zm-9.55,0h-2.53v-2.92h2.53v2.92Zm-9.55,0h-2.53v-2.92h2.53v2.92Z"/>
      <g>
        <g>
          <path class="cls-3" d="M392.89,323.47c0,4.35-3.53,7.88-7.94,7.88-3.91,0-7.12-2.84-7.75-6.55,1.76-1.83,2.84-4.28,2.84-6.99,0-.13,0-.25-.06-.38,1.32-1.13,3.09-1.83,4.98-1.83,4.41,0,7.94,3.53,7.94,7.88Z"/>
          <path class="cls-3" d="M393.08,339.54v2.33h-12.79v-3.09c0-1.7-.38-3.34-1.2-4.79,1.45-1.58,3.59-2.52,5.86-2.52,4.47,0,8.13,3.59,8.13,8.06Z"/>
        </g>
        <path class="cls-11" d="M369.72,329.07c-6.23,0-11.3-5.06-11.3-11.3s5.07-11.3,11.3-11.3,11.3,5.06,11.3,11.3-5.07,11.3-11.3,11.3Zm0-20.65c-5.15,0-9.35,4.2-9.35,9.35s4.19,9.35,9.35,9.35,9.35-4.2,9.35-9.35-4.19-9.35-9.35-9.35Z"/>
        <path class="cls-11" d="M365.93,342.84h-7.72v-4.05c0-1.76,.41-3.5,1.17-5.04l1.74,.87c-.63,1.27-.97,2.71-.97,4.17v2.11h5.77v1.94Z"/>
        <path class="cls-11" d="M381.27,342.84h-11.56v-1.94h9.61v-2.11c0-1.6-.36-3.05-1.07-4.31-1.61-3.29-4.88-5.3-8.54-5.3-2.4,0-4.65,.89-6.32,2.5l-.28,.27h-.39l-.03-1-.65-.67c2.03-1.96,4.76-3.05,7.67-3.05,4.41,0,8.34,2.42,10.26,6.34,.85,1.51,1.3,3.29,1.3,5.22v4.05Z"/>
        <g>
          <path class="cls-11" d="M357.94,354.56c-.3,0-.61,0-.92-.03-3.4-.24-6.51-1.79-8.75-4.37-2.24-2.58-3.33-5.87-3.09-9.27,.24-3.41,1.79-6.51,4.37-8.75,2.58-2.23,5.9-3.3,9.27-3.09,3.41,.24,6.51,1.79,8.75,4.37,2.24,2.58,3.34,5.87,3.1,9.27-.24,3.41-1.79,6.51-4.37,8.75-2.34,2.04-5.28,3.13-8.36,3.13Zm-.03-23.59c-2.61,0-5.09,.92-7.08,2.65h0c-2.18,1.9-3.5,4.52-3.7,7.41-.2,2.89,.73,5.67,2.62,7.86,1.9,2.18,4.53,3.5,7.41,3.7,2.86,.22,5.68-.73,7.86-2.63,2.18-1.9,3.5-4.52,3.7-7.41,.2-2.89-.73-5.67-2.62-7.86-1.9-2.18-4.53-3.5-7.41-3.7-.26-.02-.52-.02-.78-.02Zm.03,19.8c-.21,0-.43,0-.65-.02-2.39-.17-4.57-1.26-6.15-3.07-1.57-1.81-2.34-4.12-2.17-6.52,.17-2.39,1.26-4.57,3.07-6.15,1.82-1.57,4.13-2.37,6.52-2.17,2.39,.17,4.57,1.26,6.15,3.07,3.24,3.73,2.84,9.41-.89,12.66-1.65,1.43-3.71,2.2-5.87,2.2Zm-.02-16c-1.69,0-3.3,.6-4.59,1.72-1.42,1.23-2.27,2.93-2.41,4.81-.13,1.87,.47,3.68,1.7,5.09,1.23,1.42,2.94,2.28,4.81,2.41,1.9,.14,3.69-.47,5.1-1.7,2.92-2.54,3.24-6.98,.7-9.91-1.23-1.42-2.94-2.28-4.81-2.41-.17-.01-.34-.02-.51-.02Z"/>
          <rect class="cls-11" x="342.98" y="351.07" width="6.21" height="1.95" transform="translate(-146.26 315.9) rotate(-41.29)"/>
          <path class="cls-11" d="M334.41,365.4c-.08,0-.15,0-.23-.01-.82-.05-1.58-.44-2.12-1.06-1.12-1.29-.98-3.25,.31-4.37l7.8-6.77c1.29-1.11,3.25-.98,4.37,.31,.54,.63,.81,1.43,.75,2.25-.06,.82-.43,1.58-1.06,2.12l-7.8,6.77c-.57,.49-1.28,.76-2.02,.76Zm7.8-11.02c-.27,0-.54,.09-.75,.28l-7.8,6.77c-.23,.2-.37,.48-.39,.79-.02,.3,.08,.6,.28,.83,.2,.23,.48,.37,.79,.39,.28,.07,.6-.07,.83-.28l7.8-6.77c.23-.2,.37-.48,.39-.79,.02-.3-.08-.6-.28-.83-.23-.26-.55-.39-.87-.39Z"/>
        </g>
        <g>
          <rect class="cls-11" x="344.02" y="315.58" width="1.95" height="11.83"/>
          <rect class="cls-11" x="339.09" y="320.52" width="11.82" height="1.94"/>
        </g>
        <g>
          <rect class="cls-11" x="381.04" y="349.22" width="1.95" height="8.74"/>
          <rect class="cls-11" x="377.65" y="352.61" width="8.74" height="1.94"/>
        </g>
        <path class="cls-11" d="M381.27,341.87h-1.95v-3.08c0-1.6-.36-3.05-1.07-4.31l1.7-.96c.88,1.56,1.32,3.33,1.32,5.27v3.08Z"/>
      </g>
      <path class="cls-9" d="M335.44,327.83c0,4.13-3.35,7.48-7.48,7.48s-7.48-3.35-7.48-7.48,3.35-7.48,7.48-7.48,7.48,3.35,7.48,7.48Z"/>
      <g>
        <path class="cls-11" d="M481.29,182.07c-.34,0-.62-.1-.85-.17l.59-1.86h.02c.08,.03,.21,.07,.25,.08,.88,0,1.92-1.72,1.92-3.94s-1.03-3.94-1.92-3.94c-.05,0-.19,.05-.25,.07l-.63-1.85c.26-.09,.55-.18,.88-.18,2.17,0,3.87,2.59,3.87,5.89s-1.7,5.89-3.87,5.89Z"/>
        <path class="cls-11" d="M481.72,198.9l-6.79-5.96c-7.15-6.28-11.76-9.08-20.19-9.08h-.57l-2.58-4.61h-2.26l1.13-2.02-1.13-2.02h2.26l2.58-4.61h.57c8.43,0,13.04-2.8,20.19-9.08l6.79-5.96v43.33Zm-26.4-16.98c9.46,.15,14.65,4.07,20.9,9.55l3.55,3.12v-34.72l-3.55,3.12c-6.25,5.49-11.44,9.41-20.9,9.56l-2.66,4.61,.04,.07-.04,.07h.08l2.58,4.61Z"/>
        <path class="cls-11" d="M455.09,205.84h-16.66v-22.52h10.93l5.74,22.52Zm-14.71-1.95h12.2l-4.74-18.62h-7.46v18.62Z"/>
        <rect class="cls-3" x="433.9" y="168.67" width="22.12" height="17.13"/>
      </g>
      <g>
        <path class="cls-4" d="M63.07,81.4c0,.77-.24,1.43-.71,1.99-.47,.55-1.15,.96-2.04,1.21v.05c2.08,.26,3.11,1.24,3.11,2.95,0,1.16-.46,2.07-1.37,2.73-.92,.66-2.19,.99-3.82,.99-.67,0-1.29-.05-1.86-.14-.57-.1-1.19-.27-1.85-.53v-2.79c.54,.28,1.1,.49,1.66,.62,.56,.13,1.08,.2,1.56,.2,.74,0,1.28-.1,1.61-.31,.34-.21,.51-.53,.51-.98,0-.34-.09-.6-.26-.79-.18-.18-.46-.32-.85-.42-.39-.1-.9-.14-1.53-.14h-.77v-2.53h.78c1.71,0,2.56-.44,2.56-1.31,0-.33-.13-.57-.38-.73-.25-.16-.59-.24-1.02-.24-.79,0-1.61,.27-2.47,.8l-1.4-2.25c.66-.45,1.33-.78,2.02-.97,.69-.19,1.48-.29,2.37-.29,1.29,0,2.3,.26,3.03,.77,.73,.51,1.1,1.22,1.1,2.11Z"/>
        <path class="cls-4" d="M69.97,82.99c.71,0,1.36,.17,1.93,.5,.58,.33,1.02,.8,1.34,1.41,.32,.61,.48,1.31,.48,2.1,0,1.39-.42,2.46-1.26,3.2-.84,.74-2.1,1.11-3.8,1.11-1.45,0-2.64-.22-3.56-.67v-2.76c.5,.23,1.05,.42,1.67,.56,.62,.15,1.15,.22,1.6,.22,.62,0,1.1-.13,1.44-.4,.34-.26,.5-.65,.5-1.17,0-.48-.17-.85-.51-1.12-.34-.26-.86-.4-1.55-.4-.53,0-1.09,.1-1.71,.3l-1.23-.61,.47-6.57h7.1v2.8h-4.24l-.15,1.64c.44-.08,.76-.13,.94-.14,.19,0,.36-.01,.52-.01Z"/>
        <path class="cls-4" d="M81.44,82.42c0,1.25-.28,2.21-.84,2.9-.56,.68-1.36,1.02-2.4,1.02-.98,0-1.75-.35-2.32-1.06-.57-.7-.86-1.66-.86-2.86s.28-2.21,.83-2.88c.56-.67,1.34-1.01,2.34-1.01s1.78,.35,2.37,1.05c.58,.7,.88,1.65,.88,2.85Zm-3.85,.03c0,.65,.06,1.12,.16,1.41,.11,.29,.27,.43,.48,.43s.38-.14,.48-.42c.1-.29,.16-.76,.16-1.42s-.05-1.13-.16-1.42c-.1-.29-.27-.43-.48-.43s-.38,.15-.49,.44c-.1,.3-.16,.76-.16,1.41Zm10.06-3.75l-6.9,12.44h-2.53l6.9-12.44h2.53Zm3.26,8.67c0,1.24-.28,2.21-.85,2.89-.56,.68-1.36,1.02-2.39,1.02s-1.75-.35-2.32-1.06c-.57-.71-.85-1.66-.85-2.86s.28-2.21,.83-2.88c.56-.67,1.34-1.01,2.34-1.01s1.78,.35,2.37,1.05c.58,.69,.88,1.65,.88,2.84Zm-3.86,.03c0,.65,.06,1.12,.16,1.41,.11,.29,.27,.43,.49,.43,.24,0,.41-.17,.5-.5,.1-.33,.14-.78,.14-1.35s-.05-1.02-.14-1.35c-.09-.33-.26-.5-.5-.5-.22,0-.38,.15-.49,.44-.1,.29-.16,.76-.16,1.41Z"/>
      </g>
      <g>
        <path class="cls-4" d="M61.95,113.92h-3.41v-6.59c0-.8,.02-1.53,.05-2.2-.21,.26-.47,.52-.78,.8l-1.41,1.17-1.75-2.14,4.27-3.48h3.03v12.44Z"/>
        <path class="cls-4" d="M69.97,105.77c.71,0,1.36,.17,1.93,.5,.58,.33,1.02,.8,1.34,1.41,.32,.61,.48,1.31,.48,2.1,0,1.39-.42,2.45-1.26,3.2-.84,.74-2.1,1.11-3.8,1.11-1.45,0-2.64-.22-3.56-.67v-2.76c.5,.23,1.05,.42,1.67,.56,.62,.15,1.15,.22,1.6,.22,.62,0,1.1-.13,1.44-.4,.34-.26,.5-.65,.5-1.17,0-.48-.17-.85-.51-1.12-.34-.26-.86-.4-1.55-.4-.53,0-1.09,.1-1.71,.3l-1.23-.61,.47-6.57h7.1v2.8h-4.24l-.15,1.64c.44-.08,.76-.13,.94-.14,.19,0,.36-.01,.52-.01Z"/>
        <path class="cls-4" d="M81.44,105.19c0,1.25-.28,2.21-.84,2.9-.56,.68-1.36,1.02-2.4,1.02-.98,0-1.75-.35-2.32-1.06-.57-.7-.86-1.66-.86-2.86s.28-2.21,.83-2.88c.56-.67,1.34-1.01,2.34-1.01s1.78,.35,2.37,1.05c.58,.7,.88,1.65,.88,2.85Zm-3.85,.03c0,.65,.06,1.12,.16,1.41,.11,.29,.27,.43,.48,.43s.38-.14,.48-.42c.1-.29,.16-.76,.16-1.42s-.05-1.13-.16-1.42c-.1-.29-.27-.43-.48-.43s-.38,.15-.49,.44c-.1,.29-.16,.76-.16,1.41Zm10.06-3.75l-6.9,12.44h-2.53l6.9-12.44h2.53Zm3.26,8.67c0,1.24-.28,2.21-.85,2.89-.56,.68-1.36,1.02-2.39,1.02s-1.75-.35-2.32-1.06c-.57-.71-.85-1.66-.85-2.85s.28-2.21,.83-2.88c.56-.67,1.34-1.01,2.34-1.01s1.78,.35,2.37,1.05c.58,.7,.88,1.65,.88,2.84Zm-3.86,.03c0,.65,.06,1.12,.16,1.41,.11,.29,.27,.43,.49,.43,.24,0,.41-.17,.5-.5,.1-.33,.14-.78,.14-1.35s-.05-1.02-.14-1.35c-.09-.33-.26-.5-.5-.5-.22,0-.38,.15-.49,.44s-.16,.76-.16,1.41Z"/>
      </g>
      <g>
        <path class="cls-4" d="M63.48,137.46h-9.03v-2.21l3.04-3.07c.87-.91,1.44-1.53,1.7-1.86,.26-.33,.45-.62,.56-.86,.1-.24,.16-.49,.16-.75,0-.32-.1-.58-.31-.77-.21-.19-.5-.28-.89-.28s-.79,.11-1.19,.34c-.4,.22-.85,.55-1.36,.99l-1.85-2.16c.64-.58,1.18-.98,1.62-1.23,.44-.25,.91-.44,1.43-.57,.51-.13,1.09-.2,1.73-.2,.8,0,1.52,.14,2.16,.43,.63,.28,1.12,.69,1.47,1.21,.35,.52,.53,1.11,.53,1.77,0,.49-.06,.94-.18,1.35-.12,.41-.31,.82-.57,1.22-.26,.4-.59,.82-1.02,1.26-.42,.44-1.33,1.28-2.7,2.52v.09h4.71v2.77Z"/>
        <path class="cls-4" d="M69.97,129.3c.71,0,1.36,.17,1.93,.5,.58,.33,1.02,.8,1.34,1.41,.32,.61,.48,1.31,.48,2.1,0,1.39-.42,2.46-1.26,3.2-.84,.74-2.1,1.11-3.8,1.11-1.45,0-2.64-.22-3.56-.67v-2.76c.5,.23,1.05,.42,1.67,.56,.62,.15,1.15,.22,1.6,.22,.62,0,1.1-.13,1.44-.4,.34-.26,.5-.65,.5-1.17,0-.48-.17-.85-.51-1.12-.34-.26-.86-.4-1.55-.4-.53,0-1.09,.1-1.71,.3l-1.23-.61,.47-6.57h7.1v2.8h-4.24l-.15,1.64c.44-.08,.76-.13,.94-.14,.19,0,.36-.01,.52-.01Z"/>
        <path class="cls-4" d="M81.44,128.73c0,1.25-.28,2.21-.84,2.9-.56,.68-1.36,1.02-2.4,1.02-.98,0-1.75-.35-2.32-1.06-.57-.7-.86-1.66-.86-2.86s.28-2.21,.83-2.88c.56-.67,1.34-1.01,2.34-1.01s1.78,.35,2.37,1.05c.58,.7,.88,1.65,.88,2.85Zm-3.85,.03c0,.65,.06,1.12,.16,1.41,.11,.29,.27,.43,.48,.43s.38-.14,.48-.42c.1-.29,.16-.76,.16-1.42s-.05-1.13-.16-1.42c-.1-.29-.27-.43-.48-.43s-.38,.15-.49,.44-.16,.76-.16,1.41Zm10.06-3.75l-6.9,12.44h-2.53l6.9-12.44h2.53Zm3.26,8.67c0,1.24-.28,2.21-.85,2.89-.56,.68-1.36,1.02-2.39,1.02s-1.75-.35-2.32-1.06c-.57-.71-.85-1.66-.85-2.86s.28-2.21,.83-2.88c.56-.67,1.34-1.01,2.34-1.01s1.78,.35,2.37,1.05c.58,.69,.88,1.65,.88,2.84Zm-3.86,.03c0,.65,.06,1.12,.16,1.41,.11,.29,.27,.43,.49,.43,.24,0,.41-.17,.5-.5,.1-.33,.14-.78,.14-1.35s-.05-1.02-.14-1.35c-.09-.33-.26-.5-.5-.5-.22,0-.38,.15-.49,.44-.1,.29-.16,.76-.16,1.41Z"/>
      </g>
      <g>
        <path class="cls-4" d="M61.95,160.61h-3.41v-6.59c0-.8,.02-1.53,.05-2.2-.21,.26-.47,.52-.78,.8l-1.41,1.17-1.75-2.14,4.27-3.48h3.03v12.44Z"/>
        <path class="cls-4" d="M73.92,154.4c0,2.2-.37,3.81-1.11,4.84-.74,1.02-1.87,1.54-3.39,1.54s-2.61-.53-3.36-1.6c-.75-1.07-1.13-2.66-1.13-4.77s.37-3.84,1.11-4.87c.74-1.03,1.87-1.55,3.39-1.55s2.6,.54,3.36,1.61c.76,1.08,1.14,2.68,1.14,4.81Zm-5.64,0c0,1.41,.09,2.37,.26,2.9,.18,.53,.47,.79,.89,.79s.72-.27,.89-.82c.17-.54,.26-1.5,.26-2.88s-.09-2.34-.26-2.9c-.18-.55-.47-.83-.89-.83s-.71,.27-.89,.8c-.18,.54-.26,1.51-.26,2.93Z"/>
        <path class="cls-4" d="M81.44,151.88c0,1.25-.28,2.21-.84,2.9-.56,.68-1.36,1.02-2.4,1.02-.98,0-1.75-.35-2.32-1.06-.57-.7-.86-1.66-.86-2.86s.28-2.21,.83-2.88c.56-.67,1.34-1.01,2.34-1.01s1.78,.35,2.37,1.05c.58,.7,.88,1.65,.88,2.85Zm-3.85,.03c0,.65,.06,1.12,.16,1.41,.11,.29,.27,.43,.48,.43s.38-.14,.48-.42c.1-.29,.16-.76,.16-1.42s-.05-1.13-.16-1.42c-.1-.29-.27-.43-.48-.43s-.38,.15-.49,.44c-.1,.3-.16,.76-.16,1.41Zm10.06-3.75l-6.9,12.44h-2.53l6.9-12.44h2.53Zm3.26,8.67c0,1.24-.28,2.21-.85,2.89-.56,.68-1.36,1.02-2.39,1.02s-1.75-.35-2.32-1.06c-.57-.71-.85-1.66-.85-2.86s.28-2.21,.83-2.88c.56-.67,1.34-1.01,2.34-1.01s1.78,.35,2.37,1.05c.58,.69,.88,1.65,.88,2.84Zm-3.86,.03c0,.65,.06,1.12,.16,1.41,.11,.29,.27,.43,.49,.43,.24,0,.41-.17,.5-.5,.1-.33,.14-.78,.14-1.35s-.05-1.02-.14-1.35c-.09-.33-.26-.5-.5-.5-.22,0-.38,.15-.49,.44-.1,.29-.16,.76-.16,1.41Z"/>
      </g>
      <g>
        <path class="cls-4" d="M61.95,183.77h-3.41v-6.59c0-.8,.02-1.53,.05-2.2-.21,.26-.47,.52-.78,.8l-1.41,1.17-1.75-2.14,4.27-3.48h3.03v12.44Z"/>
        <path class="cls-4" d="M69.97,175.62c.71,0,1.36,.17,1.93,.5,.58,.33,1.02,.8,1.34,1.41,.32,.61,.48,1.31,.48,2.1,0,1.39-.42,2.46-1.26,3.2-.84,.74-2.1,1.11-3.8,1.11-1.45,0-2.64-.22-3.56-.67v-2.76c.5,.23,1.05,.42,1.67,.56s1.15,.22,1.6,.22c.62,0,1.1-.13,1.44-.4,.34-.26,.5-.65,.5-1.17,0-.48-.17-.85-.51-1.12-.34-.26-.86-.4-1.55-.4-.53,0-1.09,.1-1.71,.3l-1.23-.61,.47-6.57h7.1v2.8h-4.24l-.15,1.64c.44-.08,.76-.13,.94-.14,.19,0,.36-.01,.52-.01Z"/>
        <path class="cls-4" d="M81.44,175.04c0,1.25-.28,2.21-.84,2.9-.56,.68-1.36,1.02-2.4,1.02-.98,0-1.75-.35-2.32-1.06-.57-.7-.86-1.66-.86-2.86s.28-2.21,.83-2.88c.56-.67,1.34-1.01,2.34-1.01s1.78,.35,2.37,1.05c.58,.7,.88,1.65,.88,2.85Zm-3.85,.03c0,.65,.06,1.12,.16,1.41,.11,.29,.27,.43,.48,.43s.38-.14,.48-.42c.1-.29,.16-.76,.16-1.42s-.05-1.13-.16-1.42c-.1-.29-.27-.43-.48-.43s-.38,.15-.49,.44-.16,.76-.16,1.41Zm10.06-3.75l-6.9,12.44h-2.53l6.9-12.44h2.53Zm3.26,8.67c0,1.24-.28,2.21-.85,2.89-.56,.68-1.36,1.02-2.39,1.02s-1.75-.35-2.32-1.06c-.57-.71-.85-1.66-.85-2.85s.28-2.21,.83-2.88c.56-.67,1.34-1.01,2.34-1.01s1.78,.35,2.37,1.05c.58,.7,.88,1.65,.88,2.84Zm-3.86,.03c0,.65,.06,1.12,.16,1.41,.11,.29,.27,.43,.49,.43,.24,0,.41-.17,.5-.5,.1-.33,.14-.78,.14-1.35s-.05-1.02-.14-1.35c-.09-.33-.26-.5-.5-.5-.22,0-.38,.15-.49,.44-.1,.3-.16,.76-.16,1.41Z"/>
      </g>
      <g>
        <rect class="cls-3" x="118.65" y="32.57" width="97.8" height="160.69"/>
        <rect class="cls-8" x="132.23" y="84.9" width="70.42" height="22.44" transform="translate(334.87 192.24) rotate(180)"/>
        <rect class="cls-8" x="132.23" y="47.25" width="70.42" height="27.55" transform="translate(334.87 122.04) rotate(180)"/>
        <rect class="cls-8" x="132.23" y="115.78" width="70.42" height="11.22" transform="translate(334.87 242.78) rotate(180)"/>
        <rect class="cls-8" x="132.23" y="137.44" width="70.42" height="37.82" transform="translate(334.87 312.71) rotate(180)"/>
      </g>
    </g>
  </g>
</svg>