<?xml version="1.0" encoding="UTF-8"?>
<svg id="Capa_2" data-name="Capa 2" xmlns="http://www.w3.org/2000/svg" viewBox="0 0 24.23 24.23">
  <defs>
    <style>
      .cls-1 {
        fill: #303030;
      }

      .cls-2 {
        fill: #bcbec0;
      }
    </style>
  </defs>
  <g id="Layer_1" data-name="Layer 1">
    <g>
      <circle class="cls-1" cx="12.11" cy="12.11" r="12.11"/>
      <path class="cls-2" d="M8.03,14.54c.29,0,.63-.06,1.03-.19v1.22c-.41,.18-.91,.27-1.51,.27-.66,0-1.14-.17-1.43-.5-.3-.33-.45-.83-.45-1.49v-2.9h-.79v-.69l.9-.55,.47-1.27h1.05v1.28h1.69v1.23h-1.69v2.9c0,.23,.07,.4,.2,.52,.13,.11,.3,.17,.52,.17Z"/>
      <path class="cls-2" d="M15.22,15.74l-.46-2.1-.61-2.66h-.05l-1.1,4.76h-1.77l-1.71-6.02h1.64l.69,2.66c.08,.32,.19,.98,.33,1.98h.04c.02-.27,.08-.7,.19-1.3l.09-.46,.74-2.89h1.81l.7,2.89c.04,.2,.1,.49,.16,.87,.06,.38,.1,.68,.11,.89h.04c.04-.32,.09-.68,.17-1.09,.07-.41,.13-.7,.18-.89l.72-2.66h1.61l-1.73,6.02h-1.79Z"/>
    </g>
  </g>
</svg>