<?xml version="1.0" encoding="UTF-8"?>
<svg id="Capa_2" data-name="Capa 2" xmlns="http://www.w3.org/2000/svg" viewBox="0 0 24.23 24.23">
  <defs>
    <style>
      .cls-1 {
        fill: #303030;
      }

      .cls-2 {
        fill: #bcbec0;
      }
    </style>
  </defs>
  <g id="Layer_1" data-name="Layer 1">
    <g>
      <circle class="cls-1" cx="12.11" cy="12.11" r="12.11"/>
      <path class="cls-2" d="M7.05,8.17c0-.53,.3-.8,.9-.8s.89,.27,.89,.8c0,.26-.07,.45-.22,.6-.15,.14-.37,.21-.67,.21-.6,0-.9-.27-.9-.81Zm1.71,7.57h-1.64v-6.02h1.64v6.02Z"/>
      <path class="cls-2" d="M16.04,15.74h-1.64v-3.51c0-.44-.08-.76-.23-.98-.16-.22-.4-.33-.74-.33-.46,0-.79,.15-1,.46-.2,.31-.3,.82-.3,1.53v2.83h-1.64v-6.02h1.26l.22,.77h.09c.18-.29,.43-.51,.76-.66,.32-.15,.69-.22,1.09-.22,.7,0,1.23,.19,1.59,.57,.36,.38,.54,.93,.54,1.64v3.92Z"/>
    </g>
  </g>
</svg>