<?xml version="1.0" encoding="UTF-8"?>
<svg id="Capa_2" data-name="Capa 2" xmlns="http://www.w3.org/2000/svg" viewBox="0 0 24.23 24.23">
  <defs>
    <style>
      .cls-1 {
        fill: #303030;
      }

      .cls-2 {
        fill: #bcbec0;
      }
    </style>
  </defs>
  <g id="Layer_1" data-name="Layer 1">
    <circle class="cls-1" cx="12.11" cy="12.11" r="12.11"/>
    <path class="cls-2" d="M6.03,14.27h-1.05v-4.09h-1.35v-.88h3.75v.88h-1.35v4.09Z"/>
    <path class="cls-2" d="M10.58,14.27l-.14-.49h-.06c-.11,.18-.27,.31-.47,.41s-.44,.14-.7,.14c-.45,0-.78-.12-1.01-.36-.22-.24-.34-.58-.34-1.03v-2.47h1.03v2.21c0,.27,.05,.48,.15,.62,.1,.14,.25,.21,.46,.21,.29,0,.5-.1,.63-.29s.19-.52,.19-.96v-1.78h1.04v3.79h-.8Z"/>
    <path class="cls-2" d="M14.57,10.4c.45,0,.8,.18,1.05,.53,.25,.35,.38,.83,.38,1.44s-.13,1.11-.39,1.45c-.26,.34-.62,.52-1.07,.52s-.8-.16-1.05-.49h-.07l-.17,.42h-.79v-5.28h1.03v1.23c0,.15-.01,.41-.04,.75h.04c.24-.38,.6-.56,1.08-.56Zm-.33,.83c-.26,0-.44,.08-.56,.23-.12,.16-.18,.42-.18,.78v.11c0,.41,.06,.7,.18,.87,.12,.18,.31,.27,.58,.27,.21,0,.38-.1,.51-.29,.13-.19,.19-.48,.19-.85s-.06-.66-.19-.84c-.13-.19-.3-.28-.52-.28Z"/>
    <path class="cls-2" d="M18.58,14.34c-.61,0-1.09-.17-1.43-.5-.34-.34-.51-.82-.51-1.43s.16-1.13,.48-1.47c.32-.35,.76-.52,1.32-.52s.95,.15,1.25,.46c.3,.31,.45,.73,.45,1.27v.5h-2.45c.01,.29,.1,.52,.26,.69,.16,.17,.39,.25,.69,.25,.23,0,.45-.02,.65-.07,.2-.05,.42-.12,.64-.22v.8c-.18,.09-.37,.16-.58,.2-.21,.04-.46,.06-.75,.06Zm-.15-3.2c-.22,0-.39,.07-.51,.21-.13,.14-.2,.34-.22,.59h1.45c0-.26-.07-.45-.2-.59-.13-.14-.3-.21-.52-.21Z"/>
  </g>
</svg>