<?xml version="1.0" encoding="UTF-8"?>
<svg id="Capa_2" data-name="Capa 2" xmlns="http://www.w3.org/2000/svg" viewBox="0 0 24.23 24.23">
  <defs>
    <style>
      .cls-1 {
        fill: #303030;
      }

      .cls-2 {
        fill: #bcbec0;
      }
    </style>
  </defs>
  <g id="Layer_1" data-name="Layer 1">
    <g>
      <path class="cls-1" d="M24.23,12.11c0,6.69-5.42,12.11-12.11,12.11S0,18.8,0,12.11,5.42,0,12.11,0s12.11,5.42,12.11,12.11Z"/>
      <path class="cls-2" d="M11.56,14.87c0,.87-.25,1.52-.76,1.97s-1.26,.67-2.25,.67c-.88,0-1.63-.12-2.25-.36v-1.31c.73,.31,1.51,.46,2.35,.46s1.26-.46,1.26-1.37v-.12l.05-.74h-.05c-.38,.59-.95,.89-1.71,.89s-1.28-.28-1.68-.83c-.4-.56-.59-1.31-.59-2.27s.21-1.76,.62-2.31c.41-.55,.98-.83,1.7-.83s1.32,.3,1.74,.88h.04l.14-.77h1.39v6.03Zm-2.77-1.19c.44,0,.76-.13,.95-.38,.19-.26,.29-.66,.29-1.23v-.2c0-.64-.1-1.1-.3-1.38-.2-.28-.52-.42-.96-.42-.77,0-1.16,.61-1.16,1.82,0,.6,.1,1.05,.29,1.35,.19,.29,.49,.45,.9,.45Z"/>
      <path class="cls-2" d="M14.98,11.56h-2.08v-1.18h2.08v-2.1h1.18v2.1h2.08v1.18h-2.08v2.07h-1.18v-2.07Z"/>
    </g>
  </g>
</svg>