<?xml version="1.0" encoding="UTF-8"?>
<svg id="Capa_2" data-name="Capa 2" xmlns="http://www.w3.org/2000/svg" viewBox="0 0 175.4 175.4">
  <defs>
    <style>
      .cls-1 {
        fill: #668e19;
      }

      .cls-2 {
        fill: #8dc63f;
      }
    </style>
  </defs>
  <g id="Layer_1" data-name="Layer 1">
    <g>
      <path class="cls-1" d="M65.43,96.13l6.61-14.94h-8.34v-4.31h13.91v3.07l-6.79,16.18h-5.39Z"/>
      <path class="cls-1" d="M87.25,83.5c1.1,0,2.1,.26,3,.77,.89,.52,1.59,1.24,2.08,2.18,.5,.94,.75,2.02,.75,3.25,0,2.15-.65,3.8-1.94,4.96-1.3,1.15-3.26,1.73-5.89,1.73-2.25,0-4.08-.34-5.51-1.04v-4.27c.77,.35,1.63,.64,2.59,.87,.96,.23,1.79,.34,2.49,.34,.96,0,1.71-.2,2.22-.61,.52-.41,.78-1.01,.78-1.81,0-.74-.26-1.31-.79-1.73-.52-.41-1.33-.62-2.4-.62-.82,0-1.7,.15-2.65,.46l-1.91-.95,.73-10.18h11v4.34h-6.57l-.24,2.55c.68-.13,1.17-.2,1.46-.22,.29-.01,.55-.02,.8-.02Z"/>
      <path class="cls-1" d="M104.74,82.6c0,1.93-.43,3.43-1.3,4.49-.87,1.06-2.11,1.59-3.71,1.59-1.51,0-2.71-.55-3.6-1.64s-1.32-2.57-1.32-4.43,.43-3.42,1.29-4.46c.86-1.04,2.07-1.56,3.63-1.56s2.76,.54,3.66,1.62c.9,1.08,1.35,2.55,1.35,4.4Zm-5.97,.05c0,1.01,.09,1.74,.25,2.19,.16,.45,.41,.67,.75,.67s.58-.22,.74-.66c.16-.44,.24-1.17,.24-2.2s-.08-1.74-.24-2.19c-.16-.45-.41-.67-.74-.67s-.59,.23-.76,.68c-.16,.46-.24,1.18-.24,2.18Zm15.58-5.8l-10.69,19.27h-3.91l10.69-19.27h3.91Zm5.05,13.42c0,1.92-.44,3.42-1.31,4.47-.88,1.06-2.11,1.59-3.71,1.59-1.51,0-2.71-.55-3.59-1.64-.88-1.09-1.32-2.57-1.32-4.42s.43-3.42,1.29-4.46c.86-1.04,2.07-1.56,3.62-1.56s2.76,.54,3.66,1.62c.91,1.08,1.36,2.55,1.36,4.4Zm-5.97,.05c0,1.01,.09,1.74,.26,2.19,.16,.45,.41,.67,.75,.67,.38,0,.64-.26,.78-.77,.15-.52,.22-1.21,.22-2.09s-.07-1.58-.22-2.09c-.14-.52-.4-.77-.78-.77-.34,0-.6,.23-.76,.68-.16,.46-.24,1.18-.24,2.18Z"/>
    </g>
    <path class="cls-1" d="M87.7,163.28c-41.68,0-75.58-33.91-75.58-75.59S46.02,12.11,87.7,12.11s75.59,33.91,75.59,75.58-33.91,75.59-75.59,75.59Zm0-147.71C47.93,15.58,15.58,47.93,15.58,87.7s32.35,72.12,72.12,72.12,72.13-32.35,72.13-72.12S127.47,15.58,87.7,15.58Z"/>
    <path class="cls-2" d="M87.7,175.4C39.34,175.4,0,136.05,0,87.7S39.34,0,87.7,0V27.69c-33.09,0-60.01,26.92-60.01,60.01s26.92,60.01,60.01,60.01,60.01-26.92,60.01-60.01h27.69c0,48.36-39.34,87.7-87.7,87.7Z"/>
  </g>
</svg>