<?xml version="1.0" encoding="UTF-8"?>
<svg id="Capa_2" data-name="Capa 2" xmlns="http://www.w3.org/2000/svg" viewBox="0 0 164.9 175.4">
  <defs>
    <style>
      .cls-1 {
        fill: #ed7c76;
      }

      .cls-2 {
        fill: #ed4f54;
      }

      .cls-3 {
        fill: #ef4136;
      }
    </style>
  </defs>
  <g id="Layer_1" data-name="Layer 1">
    <g>
      <path class="cls-2" d="M64.71,87.99c0-2.69,.38-4.86,1.16-6.53,.77-1.66,1.9-2.89,3.4-3.68,1.5-.79,3.35-1.19,5.55-1.19,.78,0,1.69,.08,2.74,.23v4.07c-.88-.17-1.83-.25-2.86-.25-1.74,0-3.04,.38-3.89,1.15-.85,.77-1.32,2.02-1.4,3.75h.16c.79-1.5,2.06-2.24,3.81-2.24s3.04,.55,3.99,1.65c.95,1.1,1.42,2.64,1.42,4.61,0,2.12-.6,3.79-1.79,5.01-1.2,1.23-2.87,1.84-5.01,1.84-2.28,0-4.05-.74-5.34-2.21-1.28-1.48-1.93-3.54-1.93-6.2Zm7.15,4.29c.55,0,1.01-.21,1.35-.63,.35-.42,.52-1.08,.52-2,0-1.56-.6-2.35-1.82-2.35-.6,0-1.08,.2-1.46,.61-.37,.41-.56,.9-.56,1.48,0,.84,.18,1.54,.54,2.08,.36,.54,.84,.81,1.42,.81Z"/>
      <path class="cls-2" d="M94.48,86.52c0,3.41-.57,5.91-1.71,7.5-1.14,1.59-2.89,2.38-5.25,2.38s-4.04-.83-5.21-2.48c-1.16-1.66-1.75-4.12-1.75-7.39s.57-5.94,1.71-7.54c1.14-1.6,2.89-2.4,5.24-2.4s4.03,.84,5.21,2.5c1.17,1.66,1.76,4.15,1.76,7.44Zm-8.74,0c0,2.18,.13,3.68,.41,4.5,.27,.82,.73,1.23,1.37,1.23s1.11-.42,1.38-1.26c.27-.84,.4-2.33,.4-4.46s-.13-3.63-.41-4.49c-.27-.86-.73-1.29-1.37-1.29s-1.1,.41-1.37,1.24c-.27,.83-.41,2.34-.41,4.54Z"/>
      <path class="cls-2" d="M105.85,82.61c0,1.93-.43,3.43-1.3,4.49-.87,1.06-2.11,1.59-3.71,1.59-1.51,0-2.71-.55-3.6-1.64-.88-1.09-1.32-2.57-1.32-4.44s.43-3.42,1.29-4.46c.86-1.04,2.07-1.56,3.63-1.56s2.76,.54,3.66,1.62c.9,1.08,1.35,2.55,1.35,4.4Zm-5.97,.05c0,1.01,.09,1.74,.25,2.19,.16,.45,.41,.67,.75,.67s.59-.22,.74-.66c.16-.44,.24-1.17,.24-2.2s-.08-1.74-.24-2.19c-.16-.45-.41-.67-.74-.67s-.59,.23-.76,.68c-.16,.46-.24,1.18-.24,2.18Zm15.58-5.8l-10.69,19.27h-3.91l10.69-19.27h3.91Zm5.05,13.42c0,1.92-.44,3.42-1.31,4.47-.88,1.06-2.11,1.59-3.71,1.59-1.51,0-2.71-.55-3.59-1.64s-1.32-2.57-1.32-4.42,.43-3.42,1.29-4.46c.86-1.04,2.07-1.56,3.62-1.56s2.76,.54,3.66,1.62c.91,1.08,1.36,2.55,1.36,4.4Zm-5.97,.05c0,1.01,.09,1.74,.26,2.19,.16,.45,.41,.67,.75,.67,.38,0,.64-.26,.78-.77,.15-.52,.22-1.21,.22-2.09s-.07-1.58-.22-2.09c-.14-.52-.4-.77-.78-.77-.34,0-.6,.23-.76,.68-.16,.46-.24,1.18-.24,2.18Z"/>
    </g>
    <path class="cls-1" d="M87.7,163.28c-41.67,0-75.58-33.91-75.58-75.59S46.02,12.11,87.7,12.11s75.59,33.91,75.59,75.58-33.91,75.59-75.59,75.59Zm0-147.71C47.93,15.58,15.58,47.93,15.58,87.7s32.35,72.12,72.12,72.12,72.13-32.35,72.13-72.12S127.47,15.58,87.7,15.58Z"/>
    <path class="cls-3" d="M87.7,175.4C39.34,175.4,0,136.05,0,87.7,0,52.37,21.02,20.66,53.56,6.9,64.38,2.32,75.86,0,87.7,0V27.69c-8.11,0-15.96,1.59-23.35,4.71-22.27,9.42-36.66,31.13-36.66,55.3,0,33.09,26.92,60.01,60.01,60.01,22.08,0,42.33-12.09,52.84-31.54l24.36,13.17c-15.36,28.41-44.94,46.06-77.21,46.06Z"/>
  </g>
</svg>