<?xml version="1.0" encoding="UTF-8"?>
<svg id="Capa_2" data-name="Capa 2" xmlns="http://www.w3.org/2000/svg" viewBox="0 0 175.39 175.4">
  <defs>
    <style>
      .cls-1 {
        fill: #212121;
      }

      .cls-2 {
        fill: #d1d3d4;
      }
    </style>
  </defs>
  <g id="Layer_1" data-name="Layer 1">
    <g>
      <path class="cls-1" d="M71.33,76.58c2.03,0,3.61,.41,4.74,1.23,1.13,.82,1.69,1.98,1.69,3.48,0,1.02-.26,1.91-.79,2.68-.54,.77-1.38,1.44-2.53,2.01,1.43,.81,2.43,1.62,3.02,2.42,.58,.8,.87,1.67,.87,2.6,0,1.71-.62,3.04-1.86,3.98-1.24,.94-2.97,1.41-5.19,1.41s-4-.46-5.21-1.38c-1.2-.92-1.8-2.24-1.8-3.96,0-1.12,.27-2.07,.8-2.85,.54-.79,1.44-1.5,2.7-2.14-1.02-.69-1.76-1.42-2.23-2.21-.47-.79-.71-1.65-.71-2.59,0-1.48,.57-2.63,1.73-3.45,1.15-.82,2.74-1.23,4.77-1.23Zm-2.29,14.27c0,.55,.19,.98,.58,1.31,.38,.33,.92,.49,1.61,.49,1.55,0,2.32-.57,2.32-1.7,0-.43-.16-.85-.51-1.27-.34-.42-.94-.88-1.81-1.41-.79,.41-1.34,.83-1.68,1.25-.34,.42-.51,.86-.51,1.33Zm2.27-10.51c-.45,0-.83,.13-1.13,.39-.31,.26-.46,.6-.46,1.01,0,.76,.51,1.42,1.54,2.01,.62-.36,1.05-.69,1.28-.99,.23-.3,.34-.64,.34-1.02,0-.42-.15-.76-.46-1.02-.3-.25-.68-.38-1.1-.38Z"/>
      <path class="cls-1" d="M94.06,86.52c0,3.41-.57,5.91-1.71,7.5-1.14,1.59-2.89,2.38-5.25,2.38s-4.04-.83-5.21-2.48c-1.16-1.65-1.75-4.12-1.75-7.39s.57-5.94,1.71-7.54c1.14-1.6,2.89-2.4,5.24-2.4s4.03,.84,5.21,2.5c1.17,1.66,1.76,4.15,1.76,7.44Zm-8.74,0c0,2.18,.13,3.68,.41,4.5,.27,.82,.73,1.23,1.37,1.23s1.11-.42,1.38-1.26c.27-.84,.4-2.33,.4-4.46s-.13-3.63-.41-4.49c-.27-.86-.73-1.29-1.37-1.29s-1.1,.41-1.37,1.24c-.27,.83-.41,2.34-.41,4.54Z"/>
      <path class="cls-1" d="M105.44,82.6c0,1.93-.43,3.43-1.3,4.49-.87,1.06-2.11,1.59-3.71,1.59-1.51,0-2.71-.55-3.6-1.64-.88-1.09-1.32-2.57-1.32-4.43s.43-3.42,1.29-4.46c.86-1.04,2.07-1.56,3.63-1.56s2.76,.54,3.66,1.62c.9,1.08,1.35,2.55,1.35,4.4Zm-5.97,.05c0,1.01,.09,1.74,.25,2.19,.16,.45,.41,.67,.75,.67s.59-.22,.74-.66c.16-.44,.24-1.17,.24-2.2s-.08-1.74-.24-2.19c-.16-.45-.41-.67-.74-.67s-.59,.23-.76,.68c-.16,.46-.24,1.18-.24,2.18Zm15.58-5.8l-10.69,19.27h-3.91l10.69-19.27h3.91Zm5.05,13.42c0,1.92-.44,3.42-1.31,4.47-.88,1.06-2.11,1.59-3.71,1.59-1.51,0-2.71-.55-3.59-1.64-.88-1.09-1.32-2.57-1.32-4.42s.43-3.42,1.29-4.46c.86-1.04,2.07-1.56,3.62-1.56s2.76,.54,3.66,1.62c.91,1.08,1.36,2.55,1.36,4.4Zm-5.97,.05c0,1.01,.09,1.74,.26,2.19,.16,.45,.41,.67,.75,.67,.38,0,.64-.26,.78-.77,.15-.52,.22-1.21,.22-2.09s-.07-1.58-.22-2.09c-.14-.52-.4-.77-.78-.77-.34,0-.6,.23-.76,.68-.16,.46-.24,1.18-.24,2.18Z"/>
    </g>
    <path class="cls-2" d="M87.7,163.28c-41.67,0-75.58-33.91-75.58-75.59S46.02,12.11,87.7,12.11s75.58,33.91,75.58,75.58-33.91,75.59-75.58,75.59Zm0-147.71C47.93,15.58,15.58,47.93,15.58,87.7s32.35,72.12,72.12,72.12,72.12-32.35,72.12-72.12S127.46,15.58,87.7,15.58Z"/>
    <path class="cls-1" d="M87.7,175.4C39.34,175.4,0,136.05,0,87.7S39.34,0,87.7,0V27.69c-33.09,0-60.01,26.92-60.01,60.01s26.92,60.01,60.01,60.01,60.01-26.92,60.01-60.01c0-12.03-3.54-23.62-10.24-33.54l22.95-15.5c9.8,14.51,14.99,31.47,14.99,49.04,0,48.36-39.34,87.7-87.7,87.7Z"/>
  </g>
</svg>