<?xml version="1.0" encoding="UTF-8"?>
<svg id="Capa_2" data-name="Capa 2" xmlns="http://www.w3.org/2000/svg" viewBox="0 0 204.36 24.89">
  <defs>
    <style>
      .cls-1 {
        fill: #fff;
      }

      .cls-2 {
        fill: #ff831d;
      }
    </style>
  </defs>
  <g id="Layer_1" data-name="Layer 1">
    <g>
      <g>
        <path class="cls-1" d="M15.95,18.8h-7.82l-2.84,5.76H0L12.66,.28h6.17l2.43,24.28h-4.91l-.4-5.76Zm-.24-4.3l-.43-5.79-.08-2.2-.05-2.58h-.08c-.6,1.62-1.18,3.02-1.76,4.2l-3.11,6.36h5.51Z"/>
        <path class="cls-1" d="M35.44,10.98h9.31l-2.68,12.6c-1.48,.51-2.85,.85-4.11,1.04-1.26,.18-2.6,.27-4.01,.27-2.85,0-5.06-.81-6.61-2.43-1.55-1.62-2.33-3.95-2.33-6.98s.59-5.59,1.75-7.97c1.16-2.38,2.8-4.23,4.93-5.54,2.13-1.31,4.62-1.97,7.47-1.97,2.41,0,4.66,.54,6.79,1.64l-1.9,4.15c-.82-.44-1.63-.79-2.45-1.05-.82-.27-1.7-.4-2.66-.4-1.68,0-3.19,.46-4.52,1.37-1.33,.91-2.37,2.22-3.13,3.91-.76,1.69-1.13,3.52-1.13,5.47s.4,3.29,1.2,4.18c.8,.88,2.02,1.33,3.68,1.33,.84,0,1.77-.13,2.81-.4l1.09-4.94h-4.41l.93-4.27Z"/>
        <path class="cls-1" d="M60.73,24.56h-13.51L52.33,.38h13.53l-.9,4.2h-8.47l-1.1,5.31h7.88l-.91,4.2h-7.89l-1.32,6.24h8.47l-.89,4.23Z"/>
        <path class="cls-1" d="M85.31,24.56h-5.65l-5.89-18.29h-.16l-.13,.98c-.3,2.36-.62,4.34-.96,5.94l-2.4,11.38h-4.54L70.68,.38h5.9l5.62,17.81h.13c.38-2.46,.76-4.58,1.13-6.37L85.89,.38h4.54l-5.11,24.18Z"/>
        <path class="cls-1" d="M105.22,4.27c-1.46,0-2.77,.45-3.93,1.34-1.16,.89-2.1,2.21-2.8,3.95-.71,1.74-1.06,3.6-1.06,5.59,0,1.84,.38,3.21,1.13,4.1,.76,.9,1.96,1.34,3.62,1.34s3.47-.42,5.58-1.27v4.3c-2.19,.85-4.4,1.27-6.61,1.27-2.8,0-4.97-.83-6.53-2.48-1.56-1.65-2.34-3.98-2.34-7s.57-5.55,1.73-7.98c1.15-2.43,2.68-4.27,4.6-5.54,1.91-1.26,4.12-1.9,6.61-1.9,1.38,0,2.6,.12,3.67,.37,1.07,.25,2.21,.7,3.44,1.37l-1.95,4.13c-1.17-.65-2.13-1.08-2.9-1.29-.76-.21-1.51-.31-2.26-.31Z"/>
        <path class="cls-1" d="M121.35,10.17L127.53,.38h5.66l-10.22,14.94-1.96,9.24h-5.01l1.96-9.24L114.05,.38h5.16l2.13,9.79Z"/>
      </g>
      <polygon class="cls-2" points="139.31 .28 134.18 24.55 198.56 24.55 204.36 .28 139.31 .28"/>
      <g>
        <path class="cls-1" d="M150.72,6.48c-.38,0-.71,.11-.99,.32-.29,.21-.51,.52-.68,.91-.16,.4-.24,.82-.24,1.27,0,.4,.1,.72,.3,.95,.2,.23,.48,.34,.84,.34,.31,0,.66-.06,1.04-.19v.51c-.35,.13-.73,.19-1.15,.19-.52,0-.93-.16-1.22-.48-.3-.32-.45-.76-.45-1.31s.11-1.07,.34-1.55c.22-.48,.52-.85,.91-1.1,.38-.26,.82-.38,1.3-.38,.44,0,.82,.08,1.14,.26l-.23,.49c-.3-.15-.6-.23-.91-.23Z"/>
        <path class="cls-1" d="M156.11,7.81c0,.58-.1,1.11-.29,1.57-.2,.46-.47,.81-.82,1.05-.35,.24-.76,.37-1.21,.37-.55,0-.98-.16-1.29-.48-.31-.32-.46-.77-.46-1.35s.1-1.07,.31-1.54c.2-.47,.48-.83,.85-1.08,.36-.26,.77-.38,1.22-.38,.53,0,.95,.16,1.24,.49,.3,.33,.45,.78,.45,1.36Zm-1.73-1.34c-.34,0-.63,.11-.89,.32-.26,.21-.46,.51-.61,.9-.14,.38-.21,.8-.21,1.27,0,.42,.1,.74,.3,.98,.21,.23,.48,.34,.84,.34,.32,0,.6-.1,.85-.31,.26-.21,.46-.5,.6-.89,.15-.38,.22-.81,.22-1.28,0-.41-.1-.73-.29-.96-.19-.24-.47-.35-.81-.35Z"/>
        <path class="cls-1" d="M158.88,9.86l2.09-3.83h.9l-.98,4.7h-.59l.59-2.79c.13-.61,.23-1.06,.32-1.34h-.01l-2.27,4.13h-.47l-.5-4.12h-.02c-.03,.33-.1,.76-.21,1.29l-.6,2.83h-.55l.99-4.7h.83l.46,3.83h.02Z"/>
        <path class="cls-1" d="M165.58,7.25c0,.53-.17,.93-.52,1.21-.35,.29-.87,.43-1.54,.43h-.42l-.39,1.83h-.58l.99-4.7h1.06c.46,0,.82,.1,1.05,.3,.24,.21,.35,.51,.35,.92Zm-2.38,1.15h.41c.45,0,.79-.1,1.02-.29,.23-.19,.35-.47,.35-.84,0-.26-.07-.45-.22-.57-.14-.12-.37-.17-.67-.17h-.49l-.4,1.87Z"/>
        <path class="cls-1" d="M168.07,9.27h-1.59l-.76,1.46h-.65l2.55-4.7h.62l.58,4.7h-.58l-.18-1.46Zm-.06-.52l-.1-.98c-.05-.49-.08-.86-.08-1.11-.07,.16-.15,.33-.23,.5-.08,.16-.36,.69-.83,1.59h1.24Z"/>
        <path class="cls-1" d="M172.85,10.73h-.63l-1.45-3.9h-.02c-.05,.37-.13,.82-.24,1.34l-.54,2.55h-.56l.99-4.7h.63l1.44,3.88h.02c.02-.2,.06-.43,.11-.7,.05-.26,.08-.46,.12-.6l.55-2.59h.56l-.99,4.7Z"/>
        <path class="cls-1" d="M175.56,8.38l1.54-2.35h.66l-2.02,2.95-.36,1.75h-.59l.38-1.77-.76-2.93h.59l.56,2.35Z"/>
        <path class="cls-1" d="M147.59,18.62h-.59l.88-4.18h-1.29l.11-.52h3.18l-.1,.52h-1.29l-.89,4.18Z"/>
        <path class="cls-1" d="M151.72,17.16h-1.59l-.76,1.46h-.65l2.55-4.7h.62l.58,4.7h-.58l-.18-1.46Zm-.06-.52l-.1-.98c-.05-.49-.09-.85-.09-1.1-.07,.16-.15,.33-.23,.49-.08,.16-.36,.7-.83,1.59h1.24Z"/>
        <path class="cls-1" d="M155.42,16.15h1.51l-.5,2.3c-.26,.09-.49,.15-.71,.19-.21,.04-.43,.05-.66,.05-.56,0-1-.16-1.31-.47-.32-.31-.47-.74-.47-1.3s.11-1.1,.33-1.57c.22-.48,.52-.84,.91-1.1,.38-.26,.82-.39,1.29-.39,.25,0,.48,.02,.7,.07,.22,.04,.44,.12,.66,.21l-.23,.51c-.16-.07-.34-.13-.52-.19-.19-.05-.39-.08-.62-.08-.36,0-.68,.1-.98,.32-.29,.21-.52,.51-.68,.89-.16,.38-.24,.81-.24,1.29,0,.4,.1,.72,.32,.95,.21,.23,.51,.34,.9,.34,.3,0,.57-.04,.81-.12l.3-1.38h-.93l.12-.52Z"/>
        <path class="cls-1" d="M157.54,18.62l.99-4.7h.58l-.89,4.18h1.8l-.11,.52h-2.38Z"/>
        <path class="cls-1" d="M161.93,18.62h-1.65l.07-.32,.56-.13,.8-3.79-.5-.13,.07-.33h1.65l-.07,.33-.56,.13-.8,3.79,.51,.13-.07,.32Z"/>
        <path class="cls-1" d="M166.24,18.62h-.63l-1.46-3.9h-.02c-.04,.37-.12,.82-.24,1.34l-.54,2.55h-.55l.99-4.7h.63l1.44,3.88h.02c.03-.19,.07-.43,.12-.69,.04-.27,.09-.46,.12-.6l.55-2.59h.55l-.99,4.7Z"/>
        <path class="cls-1" d="M169.85,18.62h-2.38l.99-4.7h2.39l-.12,.52h-1.8l-.31,1.46h1.68l-.1,.52h-1.69l-.36,1.68h1.8l-.12,.52Z"/>
        <path class="cls-1" d="M175.8,18.62h-.58l.46-2.19h-2.07l-.46,2.19h-.58l.99-4.7h.58l-.42,1.99h2.07l.42-1.99h.58l-.99,4.7Z"/>
        <path class="cls-1" d="M179.42,18.62h-2.38l.99-4.7h2.39l-.12,.52h-1.8l-.31,1.46h1.68l-.1,.52h-1.69l-.36,1.68h1.8l-.12,.52Z"/>
        <path class="cls-1" d="M181.42,16.69l-.41,1.94h-.58l.99-4.7h1.04c.96,0,1.44,.4,1.44,1.19,0,.73-.39,1.21-1.16,1.43l.77,2.07h-.65l-.67-1.94h-.77Zm.11-.5h.51c.41,0,.72-.09,.93-.27,.22-.18,.32-.43,.32-.76,0-.25-.07-.43-.21-.55-.14-.11-.37-.17-.69-.17h-.49l-.38,1.75Z"/>
        <path class="cls-1" d="M186.58,18.62h-2.38l.99-4.7h2.39l-.12,.52h-1.8l-.31,1.46h1.68l-.1,.52h-1.69l-.36,1.68h1.8l-.12,.52Z"/>
      </g>
    </g>
  </g>
</svg>