<?xml version="1.0" encoding="UTF-8"?>
<svg id="Capa_2" data-name="Capa 2" xmlns="http://www.w3.org/2000/svg" viewBox="0 0 204.45 24.9">
  <defs>
    <style>
      .cls-1 {
        fill: #fff;
      }

      .cls-2 {
        fill: #668e19;
      }
    </style>
  </defs>
  <g id="Layer_1" data-name="Layer 1">
    <g>
      <g>
        <path d="M15.96,18.81h-7.83l-2.85,5.76H0L12.67,.28h6.17l2.43,24.29h-4.92l-.4-5.76Zm-.25-4.3l-.43-5.79-.08-2.2-.05-2.58h-.08c-.59,1.62-1.18,3.02-1.75,4.2l-3.11,6.37h5.51Z"/>
        <path d="M35.46,10.99h9.31l-2.68,12.61c-1.48,.51-2.85,.85-4.11,1.03-1.26,.18-2.6,.27-4.01,.27-2.85,0-5.06-.81-6.62-2.43-1.56-1.62-2.33-3.95-2.33-6.98s.58-5.59,1.75-7.97c1.16-2.39,2.81-4.23,4.94-5.54,2.13-1.31,4.62-1.97,7.48-1.97,2.41,0,4.67,.55,6.79,1.64l-1.9,4.15c-.82-.44-1.63-.79-2.45-1.06-.82-.26-1.7-.4-2.66-.4-1.69,0-3.2,.46-4.52,1.37-1.33,.91-2.37,2.22-3.13,3.91-.76,1.7-1.13,3.52-1.13,5.47s.4,3.29,1.2,4.18c.8,.89,2.03,1.33,3.68,1.33,.84,0,1.77-.13,2.81-.4l1.09-4.95h-4.42l.93-4.27Z"/>
        <path d="M60.75,24.57h-13.52L52.35,.38h13.53l-.89,4.2h-8.47l-1.11,5.31h7.89l-.91,4.2h-7.89l-1.32,6.24h8.47l-.89,4.24Z"/>
        <path d="M85.36,24.57h-5.66l-5.89-18.3h-.16l-.13,.98c-.3,2.36-.62,4.34-.96,5.94l-2.4,11.38h-4.55L70.71,.38h5.91l5.62,17.82h.13c.38-2.46,.76-4.58,1.13-6.37L85.93,.38h4.53l-5.11,24.19Z"/>
        <path d="M105.27,4.27c-1.46,0-2.77,.45-3.93,1.34-1.16,.89-2.1,2.21-2.8,3.95-.71,1.74-1.06,3.61-1.06,5.59,0,1.84,.38,3.21,1.13,4.1,.76,.89,1.96,1.34,3.62,1.34s3.47-.42,5.59-1.27v4.3c-2.19,.85-4.4,1.27-6.62,1.27-2.8,0-4.98-.83-6.54-2.48-1.56-1.65-2.33-3.98-2.33-7s.57-5.55,1.72-7.98c1.15-2.43,2.68-4.28,4.6-5.54,1.92-1.26,4.12-1.9,6.62-1.9,1.38,0,2.6,.12,3.67,.38,1.07,.25,2.22,.7,3.44,1.36l-1.95,4.14c-1.17-.65-2.13-1.08-2.9-1.29-.76-.21-1.52-.31-2.27-.31Z"/>
        <path d="M121.4,10.18L127.59,.38h5.66l-10.23,14.94-1.97,9.25h-5.01l1.97-9.25L114.11,.38h5.16l2.13,9.79Z"/>
      </g>
      <polygon class="cls-2" points="139.38 .28 134.24 24.57 198.65 24.57 204.45 .28 139.38 .28"/>
      <g>
        <path class="cls-1" d="M150.79,6.49c-.38,0-.71,.11-.99,.32-.29,.21-.51,.52-.68,.91-.16,.39-.24,.82-.24,1.27,0,.4,.1,.72,.3,.95,.2,.23,.48,.34,.84,.34,.31,0,.66-.06,1.04-.19v.52c-.35,.13-.73,.19-1.15,.19-.52,0-.93-.16-1.23-.48-.3-.32-.45-.76-.45-1.31s.11-1.07,.34-1.55c.22-.48,.52-.85,.91-1.1,.38-.26,.82-.38,1.3-.38,.44,0,.82,.09,1.14,.27l-.23,.49c-.3-.16-.6-.23-.91-.23Z"/>
        <path class="cls-1" d="M156.18,7.81c0,.59-.1,1.11-.29,1.57-.2,.46-.47,.81-.82,1.05-.35,.24-.75,.37-1.21,.37-.55,0-.98-.16-1.29-.48-.31-.32-.46-.77-.46-1.35s.1-1.08,.31-1.54c.2-.47,.49-.83,.85-1.09,.36-.26,.77-.38,1.22-.38,.53,0,.94,.16,1.24,.49,.3,.33,.45,.78,.45,1.36Zm-1.73-1.33c-.33,0-.63,.11-.89,.32-.26,.21-.47,.51-.61,.89-.14,.38-.21,.81-.21,1.27,0,.42,.1,.74,.3,.97,.2,.23,.48,.34,.83,.34,.32,0,.6-.1,.86-.31,.26-.21,.46-.5,.6-.89,.15-.39,.22-.81,.22-1.28,0-.41-.1-.73-.29-.97-.19-.23-.47-.35-.81-.35Z"/>
        <path class="cls-1" d="M158.95,9.87l2.09-3.84h.9l-.98,4.7h-.59l.59-2.79c.13-.61,.23-1.05,.32-1.34h-.01l-2.27,4.13h-.47l-.5-4.12h-.02c-.03,.33-.1,.77-.21,1.3l-.6,2.83h-.55l.99-4.7h.83l.46,3.84h.02Z"/>
        <path class="cls-1" d="M165.66,7.26c0,.53-.17,.94-.53,1.22-.35,.28-.86,.42-1.54,.42h-.42l-.39,1.84h-.58l.99-4.7h1.06c.46,0,.81,.1,1.05,.31,.24,.2,.36,.51,.36,.92Zm-2.38,1.15h.41c.45,0,.79-.1,1.02-.29,.23-.19,.35-.47,.35-.84,0-.26-.07-.45-.22-.56-.14-.12-.37-.17-.67-.17h-.5l-.4,1.87Z"/>
        <path class="cls-1" d="M168.15,9.27h-1.58l-.77,1.46h-.65l2.56-4.7h.62l.58,4.7h-.58l-.18-1.46Zm-.06-.52l-.1-.98c-.06-.49-.09-.86-.09-1.11-.07,.16-.14,.33-.23,.5-.08,.16-.36,.7-.83,1.59h1.24Z"/>
        <path class="cls-1" d="M172.93,10.73h-.63l-1.45-3.9h-.02c-.05,.37-.12,.82-.24,1.34l-.54,2.56h-.56l.99-4.7h.63l1.44,3.89h.02c.03-.2,.06-.43,.11-.7,.05-.27,.09-.46,.12-.6l.55-2.59h.56l-.99,4.7Z"/>
        <path class="cls-1" d="M175.64,8.39l1.54-2.36h.66l-2.02,2.96-.36,1.75h-.6l.38-1.77-.77-2.94h.59l.56,2.36Z"/>
        <path class="cls-1" d="M147.66,18.64h-.59l.88-4.18h-1.29l.11-.52h3.18l-.1,.52h-1.29l-.89,4.18Z"/>
        <path class="cls-1" d="M151.79,17.17h-1.58l-.77,1.46h-.65l2.56-4.7h.62l.58,4.7h-.58l-.18-1.46Zm-.06-.52l-.1-.98c-.06-.49-.09-.86-.09-1.11-.07,.16-.14,.33-.23,.5-.08,.16-.36,.7-.83,1.59h1.24Z"/>
        <path class="cls-1" d="M155.49,16.16h1.51l-.5,2.3c-.26,.09-.49,.15-.71,.19-.21,.03-.43,.05-.66,.05-.56,0-1-.16-1.31-.47-.31-.31-.47-.75-.47-1.3s.11-1.1,.33-1.57c.22-.48,.52-.84,.91-1.1,.38-.26,.82-.39,1.29-.39,.25,0,.49,.02,.7,.06,.22,.04,.44,.12,.66,.21l-.23,.52c-.16-.07-.34-.14-.53-.19-.19-.05-.39-.08-.62-.08-.36,0-.68,.11-.97,.32-.29,.21-.52,.51-.69,.89-.16,.38-.24,.81-.24,1.28,0,.41,.11,.72,.32,.95,.21,.23,.51,.34,.9,.34,.3,0,.57-.04,.81-.12l.3-1.39h-.92l.11-.52Z"/>
        <path class="cls-1" d="M157.61,18.64l.99-4.7h.59l-.89,4.17h1.81l-.11,.53h-2.38Z"/>
        <path class="cls-1" d="M162,18.64h-1.65l.07-.32,.56-.13,.8-3.79-.5-.12,.07-.33h1.64l-.06,.33-.56,.12-.81,3.79,.51,.13-.07,.32Z"/>
        <path class="cls-1" d="M166.32,18.64h-.63l-1.45-3.9h-.02c-.05,.37-.12,.82-.24,1.34l-.54,2.56h-.56l.99-4.7h.63l1.44,3.89h.02c.03-.2,.06-.43,.11-.7,.05-.26,.09-.46,.12-.6l.55-2.59h.56l-.99,4.7Z"/>
        <path class="cls-1" d="M169.93,18.64h-2.38l.99-4.7h2.39l-.11,.52h-1.8l-.31,1.47h1.68l-.1,.52h-1.69l-.36,1.68h1.81l-.11,.52Z"/>
        <path class="cls-1" d="M175.89,18.64h-.58l.46-2.19h-2.07l-.46,2.19h-.59l.99-4.7h.59l-.42,1.99h2.07l.42-1.99h.58l-.99,4.7Z"/>
        <path class="cls-1" d="M179.51,18.64h-2.38l.99-4.7h2.39l-.11,.52h-1.8l-.31,1.47h1.68l-.1,.52h-1.69l-.36,1.68h1.81l-.11,.52Z"/>
        <path class="cls-1" d="M181.5,16.69l-.41,1.94h-.58l.99-4.7h1.04c.96,0,1.45,.4,1.45,1.19,0,.74-.39,1.21-1.17,1.44l.77,2.07h-.64l-.67-1.94h-.77Zm.11-.5h.52c.41,0,.72-.09,.93-.27,.22-.18,.32-.43,.32-.76,0-.25-.07-.43-.21-.55-.14-.11-.37-.17-.69-.17h-.5l-.38,1.75Z"/>
        <path class="cls-1" d="M186.67,18.64h-2.38l.99-4.7h2.39l-.11,.52h-1.8l-.31,1.47h1.68l-.1,.52h-1.69l-.36,1.68h1.81l-.11,.52Z"/>
      </g>
    </g>
  </g>
</svg>