<?xml version="1.0" encoding="UTF-8"?>
<svg id="Capa_2" data-name="Capa 2" xmlns="http://www.w3.org/2000/svg" viewBox="0 0 208.02 208.02">
  <defs>
    <style>
      .cls-1 {
        fill: #fff;
      }

      .cls-2 {
        fill: #585858;
      }

      .cls-3 {
        fill: #727272;
      }

      .cls-4 {
        fill: #4b4b4b;
      }

      .cls-5 {
        fill: #646464;
      }

      .cls-6 {
        fill: gray;
      }

      .cls-7 {
        fill: #838383;
      }

      .cls-8 {
        fill: #3c3c3c;
      }

      .cls-9 {
        fill: #5e5e5e;
      }
    </style>
  </defs>
  <g id="Layer_1" data-name="Layer 1">
    <rect class="cls-1" width="208.02" height="208.02"/>
    <g>
      <rect class="cls-7" x="60.57" y="31.52" width="85.82" height="85.82"/>
      <g>
        <path class="cls-2" d="M166.24,79.02c-.2-.07-.44-.14-.64-.24-.32,2.26-1.05,4.42-2.2,6.45-1.54,2.72-3.63,4.98-5.5,7.45-.35,.46-.68,.94-.96,1.45h0s-.01,.03-.02,.04c-.03,.06-.06,.12-.09,.18-.03,.06-.06,.13-.09,.19,0,.01-.01,.03-.02,.04-.03,.07-.06,.14-.09,.21-.03,.07-.06,.15-.09,.22-.01,.03-.03,.07-.04,.1-.02,.04-.03,.09-.04,.13-.01,.03-.02,.05-.03,.08-.01,.04-.03,.09-.04,.13,0,.03-.02,.05-.02,.08-.02,.06-.03,.11-.04,.17-.02,.08-.03,.16-.05,.24-.29,1.73-.13,3.63-.08,5.37,.04,1.5,.4,2.97,.22,4.47-.18,1.53-.89,2.83-2.02,3.88-.9,.84-2.02,1.48-2.8,2.45-.02,.02-.14,.21-.25,.4,.05-.08-.08,.22-.11,.35-.03,.11-.06,.22-.09,.33,.04,.14,.08,.29,.11,.43,.41,1.91-.93,2.95-2.63,3.22-2.46,.38-4.95,.39-7.43,.35-.06,0-.11,.02-.17,.02-1.79,.24-3.59,.39-5.4,.41-.12,0-.23,0-.35,0-1.14,.02-2.43,0-3.4-.61-3.37-2.12,.3-6.29,2.28-7.86,.71-.56,1.56-1.04,2.24-1.56,.45-.34,.95-.87,1.2-1.23,.78-1.14,1.08-2.17,1.33-3.61,.23-1.34,.27-2.89,.3-4.46-.03,0-.06,.02-.08,.03,.08-.98,.15-2.09,.22-3.34-3.66-1.49-6.09-4.46-6.53-5.03l4.33,5.81,.39,3.11c-4.91,1.67-9.9,2.91-14.45,3.79-9.74,1.9-20.62,2.6-30.74,.85-.4-.09-5.67-1.29-7.77-1.91-.11-.04-.23-.07-.34-.11-1.8-.67-.94-2.12-1.55-4.04-1.27,4.49,.62,12.61,1.74,16.71-.1,.54-.33,1.05-.73,1.48-.68,.74-1.69,1.04-2.65,1.19-3.07,.46-6.23,.47-9.33,.5-2.14,.02-5.75,.46-6.59-2.2-.37-1.18,0-2.63,.68-3.63,.66-.97,1.68-1.65,2.36-2.23,.17-.14,.34-.29,.49-.46,.05-.06,.11-.12,.16-.18,.01-.03,.11-.17,.12-.21,.03-.06,.04-.08,.04-.08,0,0,0,0,0,.01,.04-.11,.07-.23,.1-.35,.07-.33,.09-.66,.11-.99,.06-1.42-.14-2.8-.5-4.17-.46-1.74-1.06-3.43-1.48-5.18-.43-1.8-.81-3.61-1.25-5.4-.03-.14-.07-.28-.1-.42-1.51-1.24-2.9-2.59-4.19-4.06,2.17-2.67,1.51-6.93,1.51-6.93,0,0,.09,1.1-.42,2.66,0,.03-.02,.06-.03,.09-.02,.05-.04,.11-.06,.16-.01,.04-.03,.08-.05,.13-.02,.04-.03,.09-.05,.13-.05,.13-.1,.26-.16,.39-.03,.06-.05,.11-.08,.17-.03,.06-.06,.13-.09,.19-.77,1.59-2.18,3.43-4.73,5.07-.73,.34-1.53,.57-2.37,.69-2.21,.32-4.41,.11-6.62,.07,0,.07-.01,.14,0,.21,.15,2.55-2.35,4.57-4.39,5.63-1.72,.89-3.66,1.01-5.55,1.31-.05-.05-.1-.09-.15-.14-.04,0-.08,0-.12,0-2.9-.11-5.41-2.21-7.01-4.49-.78-1.11-1.03-2.02-.88-2.99-.8-.31-1.57-.7-2.28-1.17-.08-.05-.15-.1-.23-.15-.06-.04-.11-.08-.17-.12-.02-.01-.04-.02-.06-.04-.05-.04-.11-.08-.16-.12-.08-.06-.16-.12-.24-.18-.08-.06-.16-.12-.23-.19-.03-.02-.05-.04-.08-.07-.05-.04-.1-.09-.15-.13-.03-.03-.07-.06-.1-.09,0,0-.01,0-.02-.02-.07-.06-.14-.13-.21-.19-.06-.06-.12-.12-.18-.18-.03-.03-.07-.07-.1-.1-.07-.07-.13-.14-.19-.21-.01-.01-.03-.03-.04-.05-.04-.04-.07-.08-.1-.12-.02-.03-.05-.05-.07-.08-.06-.07-.11-.14-.17-.21-.08-.1-.15-.2-.22-.3-.03-.04-.06-.09-.09-.13-.06-.09-.12-.18-.17-.27-.03-.04-.05-.09-.08-.14-.03-.04-.05-.09-.08-.13-.06-.1-.11-.2-.16-.3-.02-.04-.04-.08-.06-.12-.03-.06-.06-.12-.08-.18-.03-.07-.06-.14-.09-.21-.03-.08-.07-.17-.1-.25-.02-.07-.05-.13-.07-.2-.03-.08-.05-.17-.08-.25-.02-.06-.03-.11-.04-.17,0-.02-.01-.05-.02-.07,0-.02,0-.03-.01-.05-.01-.05-.02-.1-.03-.15,0-.01,0-.02,0-.04-.02-.07-.03-.15-.04-.22-.01-.06-.02-.12-.03-.18,0-.04-.01-.08-.01-.12,0-.04,0-.09-.01-.13,0-.03,0-.07,0-.1,0-.07,0-.13-.01-.2,0,0,0-.01,0-.02,0-.08,0-.16,0-.24,0-.32,.02-.64,.07-.97,.26-1.7,.85-3.42,1.11-4.99,.12,.04,.24,.1,.34,.17,.2,.13,.46,2.1,.6,2.45,.38,.92,.93,1.85,1.67,2.52,1.47,1.31,3.21,1.39,4.98,1.32,.06-.19,.11-.38,.16-.58,1.53-5.34,6.74-8.37,9.22-12.96,.45-.84,.82-1.74,1.05-2.71,1.19-.17,2.71-.49,4.62-1.04-.18,.05-.37,.09-.57,.13-1.72,.3-3.88-.01-3.88-.01h0c-.9-.03-1.79-.09-2.68-.21-2.18-.29-4.45-.96-6.07-2.47-.04-.04-.08-.07-.12-.11,.13-.56,.52-1.04,1.15-1.14,1.25-.2,2.52-.31,3.75-.6,1.12-.26,2.11-.75,3.16-1.21,1.97-.86,3.93-1.4,6.06-1.51,.77-.08,1.56-.06,2.35-.04,.02-.15,.05-.29,.08-.44,.07-.31,.16-.59,.26-.85,1.02-2.57,6.12-3.52,8.43-4.63,5.87-2.8,12.09-8.12,18.9-5.41,5.06,2.02,10.11,4.4,15.56,5.12,3.83,.5,7.88,.22,11.86-.01,1.18-.07,2.36-.13,3.52-.17-.9,1.31-2.02,2.78-3.36,4.3,.19-.03,.38-.08,.58-.15,.24-.09,.49-.2,.74-.34,2.38-1.29,4.97-4.52,4.97-4.52h0c1.21-.83,2.27-1.93,3.41-2.91,.62-.53,1.27-1.03,1.98-1.43,2.72-1.52,5.8-2.4,8.92-2.48,2.84-.07,5.27,.65,7.56,1.67h0c4.02,1.79,7.62,4.49,12.24,5.34,.64,.12,1.27,.27,1.89,.45,1.12,.32,2.21,.74,3.28,1.23,3.14,1.44,5.88,3.72,8.25,6.29,.11,.12,.22,.24,.33,.36,1.15,1.29,2.22,2.67,3.39,3.95,.09,.09,.17,.19,.26,.28,0,0,0,0,0,0,1.99,2.16,4.21,4.48,5.33,7.24,.12,.29,.23,.6,.33,.91,.81,2.64,.61,8.1-3.63,6.58Z"/>
        <path class="cls-8" d="M84.03,102.82c1.19,.57,2.91,.78,4.48,.83,.05,.8,.08,1.6,.14,2.4,.07,1.06,.53,2.01,.82,3.08,.28,1.06,.21,2.23-.57,3.07-.62,.67-1.53,.94-2.4,1.07-.56,.08-1.12,.15-1.68,.2-.34-3.02-.78-7.52-.78-10.66Z"/>
        <path class="cls-5" d="M62.27,84.79c.33-1.3,.66-2.68,.92-3.92,0,0,.15,1.71-.92,3.92Z"/>
        <path class="cls-4" d="M139.68,112.21c-2.35,2.15-3.66,3.99-4.39,5.42-1.14,.02-2.43,0-3.4-.61-3.37-2.12,.3-6.29,2.28-7.86,.71-.56,1.56-1.04,2.24-1.56,.45-.34,.95-.87,1.2-1.23,.78-1.14,1.08-2.17,1.33-3.61,.23-1.34,.27-2.89,.3-4.46-.03,0-.06,.02-.08,.03,.08-.98,.15-2.09,.22-3.34-3.66-1.49-6.09-4.46-6.53-5.03l4.33,5.81,.39,3.11c-4.91,1.67-9.9,2.91-14.45,3.79-9.74,1.9-20.62,2.6-30.74,.85-.4-.09-5.67-1.29-7.77-1.91-.11-.04-.23-.07-.34-.11-1.8-.67-.94-2.12-1.55-4.04-1.27,4.49,.62,12.61,1.74,16.71-.1,.54-.33,1.05-.73,1.48-.68,.74-1.69,1.04-2.65,1.19-3.07,.46-6.23,.47-9.33,.5-2.14,.02-5.75,.46-6.59-2.2-.37-1.18,0-2.63,.68-3.63,.66-.97,1.68-1.65,2.36-2.23,.17-.14,.34-.29,.49-.46,.05-.06,.11-.12,.16-.18,.01-.03,.11-.17,.12-.21,.03-.06,.04-.08,.04-.08,0,0,0,0,0,.01,.04-.11,.07-.23,.1-.35,.07-.33,.09-.66,.11-.99,.06-1.42-.14-2.8-.5-4.17-.46-1.74-1.06-3.43-1.48-5.18-.43-1.8-.81-3.61-1.25-5.4-.03-.14-.07-.28-.1-.42-1.51-1.24-2.9-2.59-4.19-4.06,2.17-2.67,1.51-6.93,1.51-6.93,0,0,10.41,13.94,34.02,12.89,23.6-1.05,33.66-6.42,33.66-6.42,0,0-2.3-2.6-1.68-6.47,4.61,2.52,14.04,8.07,14.04,10.17s2.32,15.79-3.56,21.17Z"/>
        <path class="cls-4" d="M63.19,80.87c-.27,1.44-.46,2.45-.6,3.17-.09,.24-.2,.49-.33,.75-.77,1.59-2.18,3.43-4.73,5.07-.73,.34-1.53,.57-2.37,.69-2.21,.32-4.41,.11-6.62,.07,0,.07-.01,.14,0,.21,.15,2.55-2.35,4.57-4.39,5.63-1.72,.89-3.66,1.01-5.55,1.31-.05-.05-.1-.09-.15-.14-.04,0-.08,0-.12,0-2.9-.11-5.41-2.21-7.01-4.49-.78-1.11-1.03-2.02-.88-2.99-.8-.31-1.57-.7-2.28-1.17-.79-.51-1.5-1.11-2.1-1.79,0,0,6.3,1.4,6.34,1.4,.12,.03,.64,1.21,.74,1.35,.69,.94,1.63,1.65,2.77,1.93,2.47,.6,5.19-.65,7.19-2.02,1.31-.9,2.33-2.31,3.8-2.96,2.68-1.19,5.77-.91,8.59-1.63,1.44-.37,2.84-.87,4.14-1.6,.8-.45,3.38-1.83,3.57-2.8Z"/>
        <path class="cls-6" d="M32.39,88.61h0c-.22,.33-.45,.58-.69,.79-.65,.58-1.26,.76-1.26,.76l-2.28-1.17c-2.57-1.67-4.39-4.28-3.92-7.37,.26-1.7,.85-3.42,1.11-4.99,.12,.04,.24,.1,.34,.17,.2,.13,.46,2.1,.6,2.45,.38,.92,.93,1.85,1.67,2.52,1.47,1.31,3.21,1.39,4.98,1.32,.67,2.74,.17,4.46-.56,5.52Z"/>
        <path class="cls-3" d="M32.39,88.61h0s-.69,.79-.69,.79c-.65,.58-1.26,.76-1.26,.76l-2.28-1.17c-2.57-1.67-4.39-4.28-3.92-7.37,.26-1.7,.85-3.42,1.11-4.99-.71,10.19,6.93,11.95,7.05,11.98h0Z"/>
      </g>
      <g>
        <path class="cls-9" d="M30.63,137.83v6.02h-3.78v-16.29h5.3c1.18,0,2.18,.12,3.01,.36,.83,.25,1.51,.58,2.04,1.01,.53,.43,.91,.94,1.14,1.53,.24,.59,.36,1.23,.36,1.92,0,.53-.07,1.03-.22,1.5-.14,.47-.35,.9-.63,1.3-.28,.39-.62,.75-1.03,1.06-.41,.31-.87,.57-1.4,.78,.25,.12,.49,.28,.71,.47,.22,.18,.41,.41,.58,.68l3.46,5.67h-3.42c-.63,0-1.09-.24-1.36-.71l-2.71-4.73c-.12-.21-.26-.36-.42-.45-.16-.09-.38-.13-.68-.13h-.96Zm0-2.61h1.52c.51,0,.95-.06,1.31-.2,.36-.13,.66-.31,.89-.54,.23-.23,.4-.5,.5-.81,.1-.31,.16-.64,.16-1,0-.71-.23-1.27-.7-1.68-.46-.4-1.19-.6-2.16-.6h-1.52v4.83Z"/>
        <path class="cls-9" d="M55.94,143.85h-3.8v-6.88h-6.62v6.88h-3.8v-16.29h3.8v6.81h6.62v-6.81h3.8v16.29Z"/>
        <path class="cls-9" d="M62.76,143.85h-3.8v-16.29h3.8v16.29Z"/>
        <path class="cls-9" d="M68.19,127.59c.11,.01,.21,.04,.3,.09,.09,.04,.18,.1,.26,.17,.08,.07,.18,.17,.28,.3l7.74,9.78c-.03-.31-.05-.62-.07-.91-.02-.29-.02-.57-.02-.84v-8.62h3.33v16.29h-1.97c-.29,0-.54-.04-.74-.14-.2-.09-.4-.25-.58-.49l-7.68-9.7c.02,.28,.04,.56,.06,.83,.02,.28,.02,.53,.02,.77v8.73h-3.33v-16.29h1.99c.16,0,.3,.01,.42,.02Z"/>
        <path class="cls-9" d="M98.76,135.7c0,1.18-.2,2.28-.61,3.29-.41,1.01-.98,1.9-1.72,2.64-.74,.75-1.62,1.34-2.66,1.76-1.04,.43-2.19,.64-3.46,.64s-2.42-.21-3.47-.64c-1.04-.42-1.93-1.01-2.68-1.76-.74-.74-1.32-1.63-1.72-2.64-.41-1.01-.61-2.11-.61-3.29s.2-2.27,.61-3.29c.41-1.02,.98-1.9,1.72-2.64,.74-.74,1.63-1.33,2.68-1.75,1.04-.42,2.2-.64,3.47-.64s2.42,.21,3.46,.65c1.04,.42,1.93,1.01,2.66,1.76,.74,.74,1.31,1.62,1.72,2.64,.41,1.02,.61,2.1,.61,3.27Zm-3.87,0c0-.81-.1-1.53-.31-2.17-.21-.65-.51-1.19-.9-1.64-.39-.45-.87-.79-1.44-1.03-.57-.23-1.21-.36-1.93-.36s-1.38,.12-1.95,.36c-.57,.24-1.05,.58-1.44,1.03-.39,.44-.69,.99-.9,1.64-.21,.65-.31,1.37-.31,2.17s.1,1.54,.31,2.19c.21,.64,.51,1.19,.9,1.64,.39,.44,.87,.79,1.44,1.02,.57,.23,1.22,.35,1.95,.35s1.37-.12,1.93-.35c.57-.23,1.04-.58,1.44-1.02,.39-.45,.69-1,.9-1.64,.21-.65,.31-1.38,.31-2.19Z"/>
        <path d="M112.63,142.28c.43,0,.83-.02,1.19-.06,.36-.04,.7-.1,1.02-.18,.32-.09,.62-.18,.91-.29,.28-.12,.57-.25,.85-.4v-3.53h-2.48c-.14,0-.26-.04-.34-.12s-.13-.18-.13-.3v-1.23h4.92v6.15c-.4,.3-.82,.55-1.26,.76-.44,.22-.9,.39-1.4,.54-.5,.15-1.02,.25-1.59,.33-.57,.07-1.18,.1-1.85,.1-1.16,0-2.23-.2-3.2-.6-.97-.4-1.8-.96-2.5-1.68-.7-.72-1.25-1.58-1.64-2.58-.39-1.01-.59-2.12-.59-3.32s.19-2.34,.58-3.34c.38-1.01,.93-1.87,1.65-2.59,.71-.72,1.57-1.28,2.58-1.67,1.01-.39,2.14-.59,3.39-.59,.63,0,1.22,.04,1.77,.14,.54,.09,1.05,.23,1.52,.4,.46,.18,.9,.39,1.29,.64,.39,.25,.76,.53,1.1,.84l-.61,.98c-.13,.2-.29,.3-.49,.3-.12,0-.25-.04-.39-.12-.18-.1-.39-.23-.62-.38-.23-.15-.51-.29-.85-.43-.33-.14-.72-.25-1.17-.35-.45-.1-.99-.15-1.61-.15-.9,0-1.72,.15-2.45,.44-.73,.3-1.35,.71-1.87,1.26-.51,.55-.91,1.21-1.18,1.99-.27,.77-.41,1.65-.41,2.62s.14,1.92,.43,2.71c.29,.79,.69,1.46,1.21,2.02,.52,.55,1.14,.97,1.85,1.26,.72,.29,1.51,.44,2.37,.44Z"/>
        <path d="M124.28,137.16v6.69h-2.16v-16.02h4.53c1.01,0,1.89,.1,2.63,.31,.74,.2,1.35,.5,1.83,.89,.48,.39,.84,.85,1.07,1.4,.23,.55,.35,1.16,.35,1.84,0,.57-.09,1.1-.27,1.59-.18,.49-.44,.93-.78,1.33-.34,.39-.75,.73-1.24,1-.49,.28-1.04,.49-1.66,.63,.27,.16,.51,.39,.72,.68l4.67,6.36h-1.92c-.4,0-.69-.15-.87-.46l-4.16-5.72c-.13-.18-.26-.31-.41-.39-.15-.07-.37-.12-.67-.12h-1.65Zm0-1.58h2.27c.63,0,1.19-.07,1.67-.23,.48-.15,.88-.37,1.21-.65,.33-.28,.57-.61,.73-1,.16-.39,.25-.82,.25-1.29,0-.95-.31-1.67-.95-2.16-.63-.49-1.57-.73-2.81-.73h-2.37v6.05Z"/>
        <path d="M150.67,135.85c0,1.2-.19,2.3-.57,3.3-.38,1-.92,1.86-1.61,2.59-.69,.72-1.53,1.28-2.5,1.68-.97,.4-2.05,.6-3.23,.6s-2.25-.2-3.22-.6c-.97-.4-1.8-.96-2.49-1.68-.69-.73-1.23-1.59-1.61-2.59-.38-1-.57-2.1-.57-3.3s.19-2.3,.57-3.3c.38-1,.92-1.87,1.61-2.6,.69-.73,1.53-1.29,2.49-1.69,.97-.4,2.04-.6,3.22-.6s2.25,.2,3.23,.6c.97,.4,1.81,.97,2.5,1.69,.69,.73,1.23,1.59,1.61,2.6,.38,1,.57,2.1,.57,3.3Zm-2.23,0c0-.98-.13-1.87-.4-2.65-.27-.78-.65-1.44-1.14-1.98-.49-.54-1.09-.96-1.79-1.25-.7-.29-1.48-.44-2.35-.44s-1.64,.15-2.33,.44c-.7,.29-1.3,.71-1.8,1.25-.5,.54-.88,1.2-1.14,1.98s-.4,1.67-.4,2.65,.14,1.86,.4,2.65c.27,.78,.65,1.43,1.14,1.98s1.1,.95,1.8,1.24c.7,.29,1.48,.43,2.33,.43s1.65-.14,2.35-.43c.7-.29,1.3-.7,1.79-1.24,.49-.54,.87-1.2,1.14-1.98,.27-.78,.4-1.66,.4-2.65Z"/>
        <path d="M159.86,142.13c.66,0,1.26-.11,1.78-.33,.52-.23,.96-.54,1.32-.94,.36-.4,.64-.89,.83-1.44,.19-.56,.29-1.17,.29-1.85v-9.74h2.16v9.74c0,.92-.15,1.78-.44,2.57-.3,.79-.72,1.47-1.26,2.05-.55,.58-1.22,1.03-2.01,1.36-.79,.33-1.68,.49-2.66,.49s-1.87-.17-2.66-.49c-.79-.33-1.46-.78-2.01-1.36-.55-.58-.98-1.26-1.27-2.05-.3-.79-.44-1.65-.44-2.57v-9.74h2.16v9.73c0,.67,.1,1.29,.29,1.85,.19,.56,.46,1.04,.83,1.44,.36,.41,.8,.72,1.33,.95,.53,.23,1.12,.34,1.78,.34Z"/>
        <path d="M172.34,137.86v5.99h-2.16v-16.02h4.73c1.01,0,1.89,.12,2.65,.35,.75,.23,1.37,.57,1.86,1,.49,.43,.86,.95,1.1,1.56,.24,.62,.36,1.29,.36,2.05s-.13,1.43-.39,2.04c-.26,.62-.64,1.16-1.15,1.6-.5,.45-1.13,.8-1.87,1.05-.75,.25-1.6,.37-2.56,.37h-2.57Zm0-1.72h2.57c.62,0,1.17-.08,1.64-.25,.47-.16,.87-.39,1.19-.69,.32-.29,.56-.65,.73-1.05,.16-.41,.25-.86,.25-1.35,0-1.02-.31-1.82-.94-2.39-.63-.57-1.58-.86-2.86-.86h-2.57v6.6Z"/>
      </g>
      <g>
        <path class="cls-8" d="M57.31,152.93v-.33h7.72v.33h-7.72Z"/>
        <path class="cls-8" d="M68.38,150.58h.42l.94,2.5c.29,.76,.47,1.28,.54,1.55h.02c.11-.35,.3-.88,.56-1.58l.94-2.47h.42l-1.99,5.17c-.16,.42-.3,.71-.41,.85-.11,.14-.24,.25-.38,.33-.15,.07-.32,.11-.53,.11-.15,0-.33-.02-.52-.09v-.35c.16,.04,.33,.07,.51,.07,.14,0,.26-.03,.37-.1,.11-.07,.2-.17,.29-.31,.09-.14,.19-.36,.3-.65,.11-.3,.19-.49,.22-.58l-1.7-4.45Z"/>
        <path class="cls-8" d="M77.08,152.8c0,.73-.18,1.3-.53,1.7-.35,.41-.84,.61-1.46,.61-.39,0-.73-.09-1.03-.28-.3-.18-.53-.46-.68-.81-.16-.36-.24-.76-.24-1.22,0-.73,.18-1.29,.53-1.7,.35-.4,.84-.6,1.45-.6s1.09,.2,1.44,.62c.35,.41,.52,.97,.52,1.69Zm-3.51,0c0,.62,.13,1.09,.4,1.43,.27,.34,.65,.51,1.14,.51s.87-.17,1.14-.51c.27-.34,.4-.82,.4-1.43s-.14-1.09-.41-1.43-.65-.5-1.14-.5-.87,.17-1.14,.5c-.27,.34-.4,.81-.4,1.43Z"/>
        <path class="cls-8" d="M79.08,150.58v2.88c0,.45,.09,.77,.28,.98,.19,.2,.48,.3,.87,.3,.53,0,.92-.13,1.17-.4,.25-.26,.38-.7,.38-1.3v-2.45h.4v4.45h-.34l-.07-.61h-.02c-.29,.47-.81,.69-1.54,.69-1.01,0-1.52-.54-1.52-1.62v-2.9h.4Z"/>
        <path class="cls-8" d="M85.84,150.5c.19,0,.39,.02,.61,.06l-.08,.39c-.19-.04-.38-.07-.58-.07-.38,0-.69,.16-.93,.48-.24,.33-.36,.73-.36,1.22v2.45h-.41v-4.45h.34l.04,.8h.03c.18-.33,.38-.56,.58-.69,.21-.13,.46-.2,.75-.2Z"/>
        <path class="cls-8" d="M91.54,154.76c.26,0,.48-.02,.67-.07v.33c-.19,.07-.42,.1-.68,.1-.39,0-.69-.1-.87-.31-.19-.21-.28-.54-.28-.99v-2.87h-.66v-.24l.66-.18,.2-1h.21v1.08h1.31v.35h-1.31v2.82c0,.34,.06,.59,.18,.76,.12,.16,.31,.25,.56,.25Z"/>
        <path class="cls-8" d="M96.3,155.03l-.1-.7h-.03c-.22,.28-.46,.49-.69,.6-.23,.12-.51,.18-.84,.18-.44,0-.77-.11-1.02-.33-.24-.23-.37-.54-.37-.93,0-.44,.18-.77,.54-1.01,.36-.24,.88-.36,1.57-.38l.85-.02v-.29c0-.42-.09-.74-.26-.96-.17-.22-.45-.33-.83-.33-.41,0-.84,.12-1.28,.34l-.15-.35c.49-.23,.97-.34,1.45-.34s.85,.13,1.09,.38c.24,.25,.36,.65,.36,1.19v2.96h-.3Zm-1.64-.29c.48,0,.85-.14,1.13-.41,.27-.27,.41-.65,.41-1.13v-.44l-.78,.03c-.62,.03-1.07,.13-1.34,.3-.27,.17-.4,.42-.4,.77,0,.28,.09,.5,.26,.65,.17,.15,.41,.23,.72,.23Z"/>
        <path class="cls-8" d="M101.93,150.58v.28l-.92,.06c.25,.31,.37,.64,.37,1.01,0,.42-.14,.78-.43,1.04s-.67,.4-1.15,.4c-.2,0-.34-.01-.43-.03-.16,.09-.28,.18-.37,.3-.09,.12-.13,.24-.13,.37,0,.14,.06,.25,.16,.31,.11,.07,.29,.1,.54,.1h.78c.48,0,.85,.1,1.11,.29,.26,.19,.38,.48,.38,.87,0,.47-.19,.83-.57,1.08-.38,.26-.92,.38-1.63,.38-.56,0-.99-.1-1.3-.32-.31-.22-.46-.52-.46-.9,0-.3,.1-.56,.28-.76,.19-.2,.45-.34,.77-.42-.13-.06-.24-.14-.32-.24s-.12-.23-.12-.36c0-.3,.19-.56,.57-.79-.26-.1-.46-.27-.61-.5-.14-.23-.22-.49-.22-.79,0-.44,.14-.8,.42-1.07,.28-.26,.66-.4,1.14-.4,.29,0,.52,.02,.68,.09h1.42Zm-3.6,5.2c0,.61,.45,.92,1.36,.92,1.17,0,1.75-.37,1.75-1.12,0-.27-.09-.46-.27-.58-.18-.12-.48-.18-.89-.18h-.73c-.82,0-1.22,.32-1.22,.96Zm.34-3.81c0,.34,.1,.61,.31,.8,.21,.19,.49,.29,.84,.29,.37,0,.66-.1,.85-.28,.2-.19,.3-.46,.3-.82,0-.38-.1-.66-.3-.85-.2-.19-.49-.28-.86-.28s-.63,.1-.84,.3c-.2,.2-.3,.49-.3,.85Z"/>
        <path class="cls-8" d="M103.67,155.03h-.41v-6.37h.41v6.37Z"/>
        <path class="cls-8" d="M105.52,149.35c0-.26,.09-.39,.26-.39,.09,0,.15,.03,.2,.1,.05,.07,.07,.17,.07,.3s-.02,.22-.07,.29c-.05,.07-.11,.1-.2,.1-.17,0-.26-.13-.26-.39Zm.46,5.68h-.41v-4.45h.41v4.45Z"/>
        <path class="cls-8" d="M111,155.03v-2.89c0-.45-.1-.77-.28-.98-.19-.2-.48-.3-.88-.3-.53,0-.92,.13-1.17,.4-.25,.27-.37,.71-.37,1.31v2.45h-.41v-4.45h.34l.08,.61h.02c.29-.47,.81-.69,1.54-.69,1.01,0,1.52,.54,1.52,1.62v2.91h-.4Z"/>
        <path class="cls-8" d="M115.06,155.11c-.65,0-1.15-.2-1.51-.6-.36-.4-.54-.95-.54-1.67s.18-1.28,.53-1.7c.35-.43,.82-.64,1.41-.64,.52,0,.94,.18,1.24,.55,.3,.36,.45,.86,.45,1.49v.33h-3.2c0,.62,.15,1.08,.43,1.4,.28,.32,.68,.48,1.2,.48,.25,0,.48-.01,.67-.05,.19-.04,.44-.11,.73-.23v.37c-.25,.11-.48,.18-.7,.23-.21,.04-.45,.06-.7,.06Zm-.12-4.26c-.43,0-.77,.14-1.03,.42-.26,.28-.41,.69-.45,1.22h2.75c0-.52-.11-.92-.34-1.21-.22-.29-.53-.44-.93-.44Z"/>
        <path class="cls-8" d="M123.98,155.03v-2.89c0-.45-.1-.77-.28-.98-.19-.2-.48-.3-.88-.3-.53,0-.92,.13-1.17,.4-.25,.27-.37,.71-.37,1.31v2.45h-.41v-6.37h.41v2.02l-.02,.57h.03c.17-.26,.38-.46,.63-.58,.25-.12,.57-.18,.94-.18,1.01,0,1.52,.54,1.52,1.62v2.91h-.4Z"/>
        <path class="cls-8" d="M128.04,155.11c-.65,0-1.15-.2-1.51-.6-.36-.4-.54-.95-.54-1.67s.18-1.28,.53-1.7c.35-.43,.82-.64,1.41-.64,.52,0,.94,.18,1.24,.55,.3,.36,.46,.86,.46,1.49v.33h-3.21c0,.62,.15,1.08,.43,1.4,.28,.32,.68,.48,1.2,.48,.25,0,.48-.01,.67-.05,.19-.04,.44-.11,.73-.23v.37c-.25,.11-.48,.18-.7,.23-.21,.04-.45,.06-.7,.06Zm-.12-4.26c-.43,0-.77,.14-1.03,.42-.26,.28-.41,.69-.46,1.22h2.75c0-.52-.11-.92-.34-1.21-.22-.29-.53-.44-.93-.44Z"/>
        <path class="cls-8" d="M133.02,150.5c.19,0,.39,.02,.61,.06l-.08,.39c-.19-.04-.38-.07-.58-.07-.38,0-.69,.16-.93,.48-.24,.33-.36,.73-.36,1.22v2.45h-.41v-4.45h.34l.04,.8h.03c.18-.33,.38-.56,.58-.69,.21-.13,.46-.2,.75-.2Z"/>
        <path class="cls-8" d="M136.75,155.11c-.65,0-1.15-.2-1.51-.6-.36-.4-.54-.95-.54-1.67s.18-1.28,.53-1.7c.35-.43,.82-.64,1.41-.64,.52,0,.94,.18,1.24,.55,.3,.36,.45,.86,.45,1.49v.33h-3.21c0,.62,.15,1.08,.43,1.4,.28,.32,.68,.48,1.2,.48,.25,0,.48-.01,.67-.05,.19-.04,.44-.11,.73-.23v.37c-.25,.11-.48,.18-.7,.23-.21,.04-.45,.06-.7,.06Zm-.12-4.26c-.43,0-.77,.14-1.03,.42-.26,.28-.41,.69-.46,1.22h2.75c0-.52-.11-.92-.34-1.21-.22-.29-.53-.44-.93-.44Z"/>
        <path class="cls-8" d="M142.15,152.93v-.33h7.72v.33h-7.72Z"/>
      </g>
      <path class="cls-4" d="M55.27,65.8c-1.51,.3-6.24,2.53-8.74,3.75,.45-.84,.82-1.74,1.05-2.71l4.05-.91,.57-.13s2.09-.49,3.07,0Z"/>
    </g>
  </g>
</svg>