<?xml version="1.0" encoding="UTF-8"?>
<svg id="Capa_2" data-name="Capa 2" xmlns="http://www.w3.org/2000/svg" viewBox="0 0 208.02 208.02">
  <defs>
    <style>
      .cls-1 {
        fill: #505050;
      }

      .cls-2 {
        fill: #7d7d7d;
      }

      .cls-3 {
        fill: #a3a3a3;
      }

      .cls-4 {
        fill: #d1d3d4;
      }
    </style>
  </defs>
  <g id="Layer_1" data-name="Layer 1">
    <rect class="cls-4" width="208.02" height="208.02"/>
    <g>
      <g>
        <path class="cls-1" d="M42.3,154.41h-1.72l-.24-1.54c-.23-.23-.51-.41-.86-.54s-.75-.2-1.23-.2c-1,0-1.78,.36-2.32,1.09-.54,.73-.81,1.68-.81,2.86v.4c0,1.17,.27,2.13,.81,2.86,.54,.74,1.3,1.1,2.28,1.1,.45,0,.87-.07,1.25-.2s.67-.31,.88-.54l.24-1.54h1.72v2.28c-.46,.54-1.06,.97-1.78,1.29-.72,.32-1.53,.48-2.42,.48-1.55,0-2.82-.54-3.81-1.61-.99-1.07-1.48-2.45-1.48-4.13v-.39c0-1.68,.49-3.05,1.48-4.13,.98-1.08,2.26-1.62,3.82-1.62,.89,0,1.7,.16,2.42,.49,.72,.33,1.31,.76,1.78,1.29v2.28Z"/>
        <path class="cls-1" d="M49.2,150.51c1.31,0,2.34,.3,3.09,.9,.75,.6,1.12,1.43,1.12,2.49,0,.58-.16,1.09-.47,1.51-.31,.43-.77,.77-1.37,1.04,.68,.2,1.17,.54,1.47,1,.3,.47,.45,1.05,.45,1.74v.59c0,.25,.05,.45,.15,.59,.1,.14,.27,.22,.5,.25l.29,.04v1.4h-1.2c-.76,0-1.29-.2-1.59-.61-.31-.41-.46-.93-.46-1.58v-.66c0-.56-.15-1-.45-1.32s-.72-.49-1.27-.5h-1.9v3.05l1.24,.24v1.39h-4.78v-1.39l1.23-.24v-8.29l-1.23-.24v-1.4h5.19Zm-1.64,5.09h1.6c.65,0,1.13-.14,1.45-.41,.32-.27,.48-.67,.48-1.19s-.16-.93-.48-1.24-.79-.46-1.42-.46h-1.64v3.31Z"/>
        <path class="cls-1" d="M63.29,156.99h-3.91v3.3h3.73l.1-1.38h1.76v3.16h-9.14v-1.39l1.23-.24v-8.29l-1.23-.24v-1.4h9.12v3.17h-1.78l-.1-1.38h-3.7v2.9h3.91v1.78Z"/>
        <path class="cls-1" d="M66.74,160.67l.82-.12,3.51-10.04h2.37l3.49,10.04,.82,.12v1.39h-3.93v-1.39l.8-.14-.51-1.59h-3.74l-.51,1.59,.8,.14v1.39h-3.93v-1.39Zm4.19-3.43h2.65l-1.3-4.07h-.05l-1.3,4.07Z"/>
        <path class="cls-1" d="M88.16,150.51v3.08h-1.78l-.1-1.29h-2.13v8.14l1.24,.24v1.39h-4.79v-1.39l1.24-.24v-8.14h-2.12l-.1,1.29h-1.77v-3.08h10.3Z"/>
        <path class="cls-1" d="M89.55,151.91v-1.4h4.78v1.4l-1.24,.24v8.29l1.24,.24v1.39h-4.78v-1.39l1.24-.24v-8.29l-1.24-.24Z"/>
        <path class="cls-1" d="M99.91,151.91l-.88,.16,2.05,6.93,.14,.63h.05l.13-.62,2.05-6.94-.87-.16v-1.4h4.22v1.4l-.97,.13-3.4,10.03h-2.38l-3.41-10.03-.95-.13v-1.4h4.22v1.4Z"/>
        <path class="cls-1" d="M115.62,156.99h-3.91v3.3h3.73l.1-1.38h1.76v3.16h-9.14v-1.39l1.23-.24v-8.29l-1.23-.24v-1.4h9.12v3.17h-1.78l-.1-1.38h-3.7v2.9h3.91v1.78Z"/>
        <path class="cls-1" d="M128.95,150.51c1.36,0,2.42,.26,3.18,.79,.76,.53,1.14,1.32,1.14,2.37,0,.53-.14,1.01-.42,1.43-.28,.42-.69,.74-1.23,.95,.69,.15,1.21,.47,1.56,.95,.35,.49,.52,1.05,.52,1.69,0,1.11-.36,1.94-1.09,2.51-.73,.57-1.76,.85-3.1,.85h-5.68v-1.39l1.23-.24v-8.29l-1.23-.24v-1.4h5.13Zm-1.59,4.84h1.67c.62,0,1.09-.13,1.43-.38,.33-.25,.5-.62,.5-1.11,0-.53-.17-.93-.5-1.18-.34-.25-.84-.38-1.5-.38h-1.59v3.05Zm0,1.6v3.33h2.13c.61,0,1.08-.13,1.4-.4,.32-.27,.48-.66,.48-1.19,0-.57-.14-1-.41-1.3-.27-.3-.71-.45-1.3-.45h-2.31Z"/>
        <path class="cls-1" d="M140.4,150.51c1.31,0,2.34,.3,3.09,.9,.75,.6,1.12,1.43,1.12,2.49,0,.58-.16,1.09-.47,1.51-.31,.43-.77,.77-1.37,1.04,.68,.2,1.17,.54,1.47,1,.3,.47,.45,1.05,.45,1.74v.59c0,.25,.05,.45,.15,.59,.1,.14,.27,.22,.5,.25l.29,.04v1.4h-1.2c-.76,0-1.29-.2-1.59-.61-.31-.41-.46-.93-.46-1.58v-.66c0-.56-.15-1-.45-1.32-.3-.32-.72-.49-1.27-.5h-1.9v3.05l1.24,.24v1.39h-4.78v-1.39l1.23-.24v-8.29l-1.23-.24v-1.4h5.19Zm-1.64,5.09h1.6c.65,0,1.13-.14,1.45-.41,.32-.27,.48-.67,.48-1.19s-.16-.93-.48-1.24-.79-.46-1.42-.46h-1.64v3.31Z"/>
        <path class="cls-1" d="M146.91,160.67l.82-.12,3.51-10.04h2.37l3.49,10.04,.82,.12v1.39h-3.93v-1.39l.8-.14-.51-1.59h-3.74l-.51,1.59,.8,.14v1.39h-3.93v-1.39Zm4.19-3.43h2.65l-1.3-4.07h-.05l-1.3,4.07Z"/>
        <path class="cls-1" d="M159.34,151.91v-1.4h4.78v1.4l-1.24,.24v8.29l1.24,.24v1.39h-4.78v-1.39l1.24-.24v-8.29l-1.24-.24Z"/>
        <path class="cls-1" d="M177.46,150.51v1.4l-1.24,.24v9.92h-2.31l-4.66-7.77h-.05v6.15l1.24,.24v1.39h-4.78v-1.39l1.23-.24v-8.29l-1.23-.24v-1.4h3.55l4.66,7.77h.05v-6.14l-1.24-.24v-1.4h4.78Z"/>
      </g>
      <g>
        <path class="cls-1" d="M54.53,172.81v-.72h8.97v.72h-8.97Z"/>
        <path class="cls-1" d="M66.43,169.84h.85l1.14,2.97c.25,.68,.41,1.17,.47,1.47h.04c.04-.16,.13-.44,.26-.83s.56-1.6,1.29-3.62h.85l-2.24,5.94c-.22,.59-.48,1-.78,1.25-.3,.25-.66,.37-1.09,.37-.24,0-.48-.03-.71-.08v-.63c.17,.04,.37,.06,.59,.06,.54,0,.93-.3,1.16-.91l.29-.74-2.1-5.24Z"/>
        <path class="cls-1" d="M76.67,172.45c0,.85-.21,1.51-.64,1.99s-1.02,.72-1.78,.72c-.47,0-.88-.11-1.24-.33-.36-.22-.64-.53-.84-.94-.2-.41-.29-.89-.29-1.44,0-.85,.21-1.51,.64-1.99,.43-.47,1.02-.71,1.77-.71s1.31,.24,1.74,.73c.43,.49,.65,1.14,.65,1.97Zm-3.97,0c0,.67,.13,1.17,.4,1.52,.27,.35,.66,.52,1.18,.52s.91-.17,1.18-.52c.27-.35,.4-.86,.4-1.53s-.13-1.17-.4-1.51c-.27-.34-.66-.52-1.19-.52s-.91,.17-1.17,.51c-.26,.34-.4,.85-.4,1.52Z"/>
        <path class="cls-1" d="M78.8,169.84v3.38c0,.43,.1,.74,.29,.95,.19,.21,.5,.31,.91,.31,.55,0,.95-.15,1.2-.45,.25-.3,.38-.79,.38-1.46v-2.74h.79v5.22h-.65l-.11-.7h-.04c-.16,.26-.39,.45-.67,.59-.29,.14-.61,.2-.98,.2-.64,0-1.11-.15-1.43-.45-.32-.3-.47-.78-.47-1.45v-3.41h.8Z"/>
        <path class="cls-1" d="M86.42,169.75c.23,0,.44,.02,.62,.06l-.11,.73c-.22-.05-.41-.07-.57-.07-.42,0-.78,.17-1.08,.51s-.45,.77-.45,1.28v2.8h-.79v-5.22h.65l.09,.97h.04c.19-.34,.43-.6,.7-.79s.57-.28,.9-.28Z"/>
        <path class="cls-1" d="M92.24,174.5c.14,0,.27-.01,.41-.03,.13-.02,.23-.04,.31-.06v.6c-.09,.04-.21,.08-.38,.1-.17,.03-.32,.04-.45,.04-1.01,0-1.51-.53-1.51-1.59v-3.1h-.75v-.38l.75-.33,.33-1.11h.46v1.21h1.51v.61h-1.51v3.07c0,.31,.07,.56,.22,.72,.15,.17,.35,.25,.61,.25Z"/>
        <path class="cls-1" d="M97.2,175.06l-.16-.74h-.04c-.26,.33-.52,.55-.78,.66-.26,.12-.58,.17-.97,.17-.52,0-.92-.13-1.22-.4-.29-.27-.44-.65-.44-1.14,0-1.05,.84-1.61,2.53-1.66l.89-.03v-.32c0-.41-.09-.71-.26-.91-.18-.2-.46-.29-.84-.29-.43,0-.93,.13-1.48,.4l-.24-.6c.26-.14,.54-.25,.84-.33s.61-.12,.92-.12c.62,0,1.08,.14,1.38,.41,.3,.28,.45,.72,.45,1.33v3.56h-.59Zm-1.78-.56c.49,0,.88-.13,1.16-.4,.28-.27,.42-.65,.42-1.13v-.47l-.79,.03c-.63,.02-1.08,.12-1.36,.29-.28,.17-.42,.44-.42,.81,0,.29,.09,.5,.26,.65,.17,.15,.41,.22,.73,.22Z"/>
        <path class="cls-1" d="M103.69,169.84v.5l-.97,.11c.09,.11,.17,.26,.24,.44,.07,.18,.1,.38,.1,.61,0,.51-.17,.92-.52,1.22-.35,.3-.83,.46-1.44,.46-.15,0-.3-.01-.44-.04-.34,.18-.5,.4-.5,.67,0,.14,.06,.25,.18,.32s.32,.1,.6,.1h.92c.57,0,1,.12,1.3,.36s.45,.58,.45,1.04c0,.58-.23,1.02-.69,1.32-.46,.3-1.14,.45-2.03,.45-.68,0-1.21-.13-1.58-.38-.37-.25-.55-.61-.55-1.08,0-.32,.1-.59,.3-.82,.2-.23,.49-.39,.86-.47-.13-.06-.25-.15-.34-.28-.09-.13-.14-.27-.14-.44,0-.19,.05-.36,.15-.5,.1-.14,.26-.28,.48-.41-.27-.11-.49-.3-.66-.57-.17-.27-.25-.57-.25-.91,0-.57,.17-1.01,.51-1.32s.83-.46,1.46-.46c.27,0,.52,.03,.74,.1h1.8Zm-4.16,6.09c0,.28,.12,.5,.36,.64,.24,.15,.58,.22,1.02,.22,.66,0,1.15-.1,1.47-.3,.32-.2,.48-.47,.48-.81,0-.28-.09-.48-.26-.59s-.5-.16-.99-.16h-.95c-.36,0-.64,.09-.84,.26-.2,.17-.3,.42-.3,.74Zm.43-4.42c0,.36,.1,.64,.31,.83,.21,.19,.49,.28,.86,.28,.77,0,1.16-.37,1.16-1.12s-.39-1.18-1.17-1.18c-.37,0-.66,.1-.86,.3-.2,.2-.3,.5-.3,.89Z"/>
        <path class="cls-1" d="M105.55,175.06h-.79v-7.41h.79v7.41Z"/>
        <path class="cls-1" d="M107.16,168.43c0-.18,.04-.31,.13-.4,.09-.08,.2-.13,.33-.13s.24,.04,.33,.13,.14,.22,.14,.4-.05,.31-.14,.4c-.09,.09-.2,.13-.33,.13s-.24-.04-.33-.13c-.09-.09-.13-.22-.13-.4Zm.86,6.63h-.79v-5.22h.79v5.22Z"/>
        <path class="cls-1" d="M113.26,175.06v-3.37c0-.43-.1-.74-.29-.95-.19-.21-.5-.31-.91-.31-.55,0-.95,.15-1.2,.44-.25,.29-.38,.78-.38,1.46v2.74h-.79v-5.22h.64l.13,.71h.04c.16-.26,.39-.46,.68-.6,.29-.14,.62-.21,.98-.21,.63,0,1.1,.15,1.42,.45,.32,.3,.48,.79,.48,1.45v3.4h-.79Z"/>
        <path class="cls-1" d="M117.87,175.16c-.77,0-1.38-.23-1.83-.7s-.67-1.12-.67-1.96,.21-1.51,.62-2c.41-.5,.97-.74,1.67-.74,.65,0,1.17,.21,1.55,.65,.38,.43,.57,1,.57,1.7v.5h-3.59c.02,.61,.17,1.08,.46,1.39,.29,.32,.71,.48,1.24,.48,.56,0,1.12-.12,1.67-.35v.7c-.28,.12-.54,.21-.79,.26-.25,.05-.55,.08-.9,.08Zm-.21-4.75c-.42,0-.75,.14-1,.41s-.4,.65-.44,1.13h2.73c0-.5-.11-.88-.33-1.14-.22-.27-.54-.4-.95-.4Z"/>
        <path class="cls-1" d="M127.24,175.06v-3.37c0-.43-.1-.74-.29-.95-.19-.21-.5-.31-.91-.31-.55,0-.95,.15-1.2,.45-.25,.3-.38,.79-.38,1.47v2.73h-.79v-7.41h.79v2.24c0,.27-.01,.49-.04,.67h.05c.16-.25,.38-.45,.66-.59s.61-.22,.98-.22c.64,0,1.12,.15,1.44,.45,.32,.3,.48,.78,.48,1.44v3.4h-.79Z"/>
        <path class="cls-1" d="M131.86,175.16c-.77,0-1.38-.23-1.83-.7-.45-.47-.67-1.12-.67-1.96s.21-1.51,.62-2c.41-.5,.97-.74,1.67-.74,.65,0,1.17,.21,1.55,.65,.38,.43,.57,1,.57,1.7v.5h-3.59c.02,.61,.17,1.08,.46,1.39,.29,.32,.71,.48,1.24,.48,.56,0,1.12-.12,1.67-.35v.7c-.28,.12-.54,.21-.79,.26-.25,.05-.55,.08-.9,.08Zm-.21-4.75c-.42,0-.75,.14-1,.41-.25,.27-.4,.65-.44,1.13h2.73c0-.5-.11-.88-.33-1.14-.22-.27-.54-.4-.95-.4Z"/>
        <path class="cls-1" d="M137.5,169.75c.23,0,.44,.02,.62,.06l-.11,.73c-.22-.05-.41-.07-.57-.07-.42,0-.78,.17-1.08,.51-.3,.34-.45,.77-.45,1.28v2.8h-.79v-5.22h.65l.09,.97h.04c.19-.34,.43-.6,.7-.79s.57-.28,.9-.28Z"/>
        <path class="cls-1" d="M141.31,175.16c-.77,0-1.38-.23-1.83-.7-.45-.47-.67-1.12-.67-1.96s.21-1.51,.62-2c.41-.5,.97-.74,1.67-.74,.65,0,1.17,.21,1.55,.65,.38,.43,.57,1,.57,1.7v.5h-3.59c.02,.61,.17,1.08,.46,1.39,.29,.32,.71,.48,1.24,.48,.56,0,1.12-.12,1.67-.35v.7c-.28,.12-.54,.21-.79,.26-.25,.05-.55,.08-.9,.08Zm-.21-4.75c-.42,0-.75,.14-1,.41-.25,.27-.4,.65-.44,1.13h2.73c0-.5-.11-.88-.33-1.14-.22-.27-.54-.4-.95-.4Z"/>
        <path class="cls-1" d="M146.65,172.81v-.72h8.97v.72h-8.97Z"/>
      </g>
      <g>
        <g>
          <path class="cls-3" d="M90.29,112.41c0,5.67-4.59,10.26-10.26,10.26s-10.26-4.6-10.26-10.26,4.59-10.26,10.26-10.26,10.26,4.6,10.26,10.26Z"/>
          <path class="cls-4" d="M80.02,124.3c-6.55,0-11.89-5.33-11.89-11.89s5.33-11.89,11.89-11.89,11.89,5.33,11.89,11.89-5.33,11.89-11.89,11.89Zm0-20.53c-4.76,0-8.64,3.88-8.64,8.64s3.87,8.64,8.64,8.64,8.64-3.88,8.64-8.64-3.88-8.64-8.64-8.64Z"/>
        </g>
        <g>
          <path class="cls-3" d="M132.13,51.4c0,5.67-4.59,10.26-10.26,10.26s-10.26-4.59-10.26-10.26,4.59-10.26,10.26-10.26,10.26,4.59,10.26,10.26Z"/>
          <path class="cls-4" d="M121.87,63.29c-6.55,0-11.89-5.33-11.89-11.89s5.33-11.89,11.89-11.89,11.89,5.33,11.89,11.89-5.33,11.89-11.89,11.89Zm0-20.53c-4.76,0-8.64,3.88-8.64,8.64s3.87,8.64,8.64,8.64,8.64-3.88,8.64-8.64-3.87-8.64-8.64-8.64Z"/>
        </g>
        <g>
          <path class="cls-3" d="M161.01,90.07c0,5.67-4.59,10.26-10.26,10.26s-10.26-4.59-10.26-10.26,4.59-10.26,10.26-10.26,10.26,4.59,10.26,10.26Z"/>
          <path class="cls-4" d="M150.74,101.96c-6.55,0-11.89-5.33-11.89-11.89s5.33-11.89,11.89-11.89,11.89,5.33,11.89,11.89-5.33,11.89-11.89,11.89Zm0-20.53c-4.76,0-8.64,3.88-8.64,8.64s3.87,8.64,8.64,8.64,8.64-3.88,8.64-8.64-3.87-8.64-8.64-8.64Z"/>
        </g>
        <g>
          <path class="cls-4" d="M76.53,102.15c0,5.67-4.59,10.26-10.26,10.26s-10.26-4.59-10.26-10.26,4.59-10.26,10.26-10.26,10.26,4.59,10.26,10.26Z"/>
          <path class="cls-4" d="M66.27,114.04c-6.55,0-11.89-5.33-11.89-11.89s5.33-11.89,11.89-11.89,11.89,5.33,11.89,11.89-5.33,11.89-11.89,11.89Zm0-20.53c-4.76,0-8.64,3.87-8.64,8.64s3.88,8.64,8.64,8.64,8.64-3.87,8.64-8.64-3.88-8.64-8.64-8.64Z"/>
        </g>
        <g>
          <path class="cls-3" d="M86.79,79.81c0,12.74-10.33,23.07-23.07,23.07s-23.07-10.33-23.07-23.07,10.33-23.07,23.07-23.07,23.07,10.33,23.07,23.07Z"/>
          <path class="cls-4" d="M63.72,104.5c-13.61,0-24.69-11.08-24.69-24.69s11.08-24.69,24.69-24.69,24.69,11.08,24.69,24.69-11.08,24.69-24.69,24.69Zm0-46.13c-11.82,0-21.44,9.62-21.44,21.44s9.62,21.44,21.44,21.44,21.44-9.62,21.44-21.44-9.62-21.44-21.44-21.44Z"/>
        </g>
        <g>
          <path class="cls-2" d="M102.9,92.89c0,9-7.3,16.3-16.3,16.3s-16.3-7.3-16.3-16.3,7.3-16.3,16.3-16.3,16.3,7.3,16.3,16.3Z"/>
          <path class="cls-4" d="M86.6,110.82c-9.88,0-17.93-8.04-17.93-17.93s8.04-17.93,17.93-17.93,17.93,8.04,17.93,17.93-8.04,17.93-17.93,17.93Zm0-32.6c-8.09,0-14.68,6.58-14.68,14.68s6.58,14.68,14.68,14.68,14.68-6.58,14.68-14.68-6.58-14.68-14.68-14.68Z"/>
        </g>
        <g>
          <path class="cls-4" d="M156.78,67.98c0,9-7.3,16.3-16.3,16.3s-16.3-7.3-16.3-16.3,7.3-16.3,16.3-16.3,16.3,7.3,16.3,16.3Z"/>
          <path class="cls-4" d="M140.48,85.91c-9.88,0-17.93-8.04-17.93-17.93s8.04-17.93,17.93-17.93,17.93,8.04,17.93,17.93-8.04,17.93-17.93,17.93Zm0-32.6c-8.09,0-14.68,6.58-14.68,14.68s6.58,14.68,14.68,14.68,14.68-6.58,14.68-14.68-6.58-14.68-14.68-14.68Z"/>
        </g>
        <g>
          <circle class="cls-4" cx="109.83" cy="71.26" r="20.42"/>
          <path class="cls-4" d="M109.83,93.3c-12.15,0-22.04-9.89-22.04-22.04s9.89-22.04,22.04-22.04,22.04,9.89,22.04,22.04-9.89,22.04-22.04,22.04Zm0-40.84c-10.36,0-18.79,8.43-18.79,18.8s8.43,18.79,18.79,18.79,18.79-8.43,18.79-18.79-8.43-18.8-18.79-18.8Z"/>
        </g>
        <g>
          <path class="cls-4" d="M97.93,124.97c0,4.4-3.57,7.97-7.97,7.97s-7.97-3.57-7.97-7.97,3.57-7.97,7.97-7.97,7.97,3.57,7.97,7.97Z"/>
          <path class="cls-4" d="M89.96,134.56c-5.29,0-9.6-4.3-9.6-9.6s4.3-9.6,9.6-9.6,9.6,4.3,9.6,9.6-4.3,9.6-9.6,9.6Zm0-15.94c-3.5,0-6.35,2.85-6.35,6.35s2.85,6.35,6.35,6.35,6.35-2.85,6.35-6.35-2.85-6.35-6.35-6.35Z"/>
        </g>
        <g>
          <path class="cls-3" d="M97.93,72.52c0,4.4-3.57,7.97-7.97,7.97s-7.97-3.57-7.97-7.97,3.57-7.97,7.97-7.97,7.97,3.57,7.97,7.97Z"/>
          <path class="cls-4" d="M89.96,82.11c-5.29,0-9.6-4.3-9.6-9.6s4.3-9.6,9.6-9.6,9.6,4.3,9.6,9.6-4.3,9.6-9.6,9.6Zm0-15.94c-3.5,0-6.35,2.85-6.35,6.35s2.85,6.35,6.35,6.35,6.35-2.85,6.35-6.35-2.85-6.35-6.35-6.35Z"/>
        </g>
        <g>
          <circle class="cls-2" cx="93.15" cy="56.74" r="14.52"/>
          <path class="cls-4" d="M93.15,72.89c-8.9,0-16.14-7.24-16.14-16.14s7.24-16.14,16.14-16.14,16.14,7.24,16.14,16.14-7.24,16.14-16.14,16.14Zm0-29.03c-7.11,0-12.89,5.78-12.89,12.89s5.78,12.89,12.89,12.89,12.89-5.78,12.89-12.89-5.78-12.89-12.89-12.89Z"/>
        </g>
        <g>
          <path class="cls-2" d="M146.65,82.5c0,8.02-6.5,14.52-14.52,14.52s-14.52-6.5-14.52-14.52,6.5-14.52,14.52-14.52,14.52,6.5,14.52,14.52Z"/>
          <path class="cls-4" d="M132.13,98.64c-8.9,0-16.14-7.24-16.14-16.14s7.24-16.14,16.14-16.14,16.14,7.24,16.14,16.14-7.24,16.14-16.14,16.14Zm0-29.03c-7.11,0-12.89,5.78-12.89,12.89s5.78,12.89,12.89,12.89,12.89-5.78,12.89-12.89-5.78-12.89-12.89-12.89Z"/>
        </g>
        <g>
          <circle class="cls-3" cx="140.48" cy="99.34" r="7.97"/>
          <path class="cls-4" d="M140.48,108.94c-5.29,0-9.6-4.3-9.6-9.6s4.3-9.6,9.6-9.6,9.6,4.3,9.6,9.6-4.3,9.6-9.6,9.6Zm0-15.94c-3.5,0-6.35,2.85-6.35,6.35s2.85,6.35,6.35,6.35,6.35-2.85,6.35-6.35-2.85-6.35-6.35-6.35Z"/>
        </g>
        <g>
          <path class="cls-3" d="M93.18,133.35c0,3.63-2.94,6.58-6.58,6.58s-6.58-2.94-6.58-6.58,2.94-6.58,6.58-6.58,6.58,2.95,6.58,6.58Z"/>
          <path class="cls-4" d="M86.6,141.55c-4.52,0-8.2-3.68-8.2-8.2s3.68-8.2,8.2-8.2,8.2,3.68,8.2,8.2-3.68,8.2-8.2,8.2Zm0-13.15c-2.73,0-4.95,2.22-4.95,4.95s2.22,4.95,4.95,4.95,4.95-2.22,4.95-4.95-2.22-4.95-4.95-4.95Z"/>
        </g>
        <g>
          <path class="cls-3" d="M109.43,118.4c0,3.63-2.95,6.58-6.58,6.58s-6.58-2.94-6.58-6.58,2.94-6.58,6.58-6.58,6.58,2.94,6.58,6.58Z"/>
          <path class="cls-4" d="M102.85,126.6c-4.52,0-8.2-3.68-8.2-8.2s3.68-8.2,8.2-8.2,8.2,3.68,8.2,8.2-3.68,8.2-8.2,8.2Zm0-13.15c-2.73,0-4.95,2.22-4.95,4.95s2.22,4.95,4.95,4.95,4.95-2.22,4.95-4.95-2.22-4.95-4.95-4.95Z"/>
        </g>
        <g>
          <path class="cls-3" d="M128.45,99.34c0,9.3-7.54,16.84-16.84,16.84s-16.84-7.54-16.84-16.84,7.54-16.84,16.84-16.84,16.84,7.54,16.84,16.84Z"/>
          <path class="cls-4" d="M111.61,117.81c-10.18,0-18.46-8.28-18.46-18.46s8.28-18.46,18.46-18.46,18.46,8.28,18.46,18.46-8.28,18.46-18.46,18.46Zm0-33.68c-8.39,0-15.22,6.83-15.22,15.22s6.83,15.22,15.22,15.22,15.22-6.83,15.22-15.22-6.83-15.22-15.22-15.22Z"/>
        </g>
        <g>
          <circle class="cls-4" cx="66.27" cy="54.71" r="6.58"/>
          <path class="cls-4" d="M66.27,62.92c-4.52,0-8.2-3.68-8.2-8.2s3.68-8.2,8.2-8.2,8.2,3.68,8.2,8.2-3.68,8.2-8.2,8.2Zm0-13.15c-2.73,0-4.95,2.22-4.95,4.95s2.22,4.95,4.95,4.95,4.95-2.22,4.95-4.95-2.22-4.95-4.95-4.95Z"/>
        </g>
        <g>
          <path class="cls-2" d="M162.22,80.49c0,3.63-2.95,6.58-6.58,6.58s-6.58-2.95-6.58-6.58,2.95-6.58,6.58-6.58,6.58,2.95,6.58,6.58Z"/>
          <path class="cls-4" d="M155.65,88.69c-4.52,0-8.2-3.68-8.2-8.2s3.68-8.2,8.2-8.2,8.2,3.68,8.2,8.2-3.68,8.2-8.2,8.2Zm0-13.15c-2.73,0-4.95,2.22-4.95,4.95s2.22,4.95,4.95,4.95,4.95-2.22,4.95-4.95-2.22-4.95-4.95-4.95Z"/>
        </g>
        <g>
          <path class="cls-2" d="M143,51.4c0,3.63-2.95,6.58-6.58,6.58s-6.58-2.94-6.58-6.58,2.95-6.58,6.58-6.58,6.58,2.94,6.58,6.58Z"/>
          <path class="cls-4" d="M136.42,59.6c-4.52,0-8.2-3.68-8.2-8.2s3.68-8.2,8.2-8.2,8.2,3.68,8.2,8.2-3.68,8.2-8.2,8.2Zm0-13.15c-2.73,0-4.95,2.22-4.95,4.95s2.22,4.95,4.95,4.95,4.95-2.22,4.95-4.95-2.22-4.95-4.95-4.95Z"/>
        </g>
        <g>
          <path class="cls-4" d="M116.41,47.09c0,3.63-2.94,6.58-6.58,6.58s-6.58-2.94-6.58-6.58,2.94-6.58,6.58-6.58,6.58,2.95,6.58,6.58Z"/>
          <path class="cls-4" d="M109.83,55.29c-4.52,0-8.2-3.68-8.2-8.2s3.68-8.2,8.2-8.2,8.2,3.68,8.2,8.2-3.68,8.2-8.2,8.2Zm0-13.15c-2.73,0-4.95,2.22-4.95,4.95s2.22,4.95,4.95,4.95,4.95-2.22,4.95-4.95-2.22-4.95-4.95-4.95Z"/>
        </g>
        <g>
          <path class="cls-3" d="M90.29,53.16c0,5.61-4.55,10.17-10.16,10.17s-10.17-4.55-10.17-10.17,4.55-10.16,10.17-10.16,10.16,4.55,10.16,10.16Z"/>
          <path class="cls-4" d="M80.12,64.95c-6.5,0-11.79-5.29-11.79-11.79s5.29-11.79,11.79-11.79,11.79,5.29,11.79,11.79-5.29,11.79-11.79,11.79Zm0-20.33c-4.71,0-8.54,3.83-8.54,8.54s3.83,8.54,8.54,8.54,8.54-3.83,8.54-8.54-3.83-8.54-8.54-8.54Z"/>
        </g>
        <g>
          <path class="cls-4" d="M136.42,102.88c0,4.4-3.57,7.97-7.97,7.97s-7.97-3.57-7.97-7.97,3.57-7.97,7.97-7.97,7.97,3.57,7.97,7.97Z"/>
          <path class="cls-4" d="M128.45,112.47c-5.29,0-9.6-4.3-9.6-9.6s4.3-9.6,9.6-9.6,9.6,4.3,9.6,9.6-4.3,9.6-9.6,9.6Zm0-15.94c-3.5,0-6.35,2.85-6.35,6.35s2.85,6.35,6.35,6.35,6.35-2.85,6.35-6.35-2.85-6.35-6.35-6.35Z"/>
        </g>
        <g>
          <path class="cls-2" d="M101.87,112.75c0,3.92-3.18,7.11-7.11,7.11s-7.1-3.18-7.1-7.11,3.18-7.11,7.1-7.11,7.11,3.18,7.11,7.11Z"/>
          <path class="cls-4" d="M94.77,121.48c-4.81,0-8.73-3.92-8.73-8.73s3.92-8.73,8.73-8.73,8.73,3.92,8.73,8.73-3.92,8.73-8.73,8.73Zm0-14.21c-3.02,0-5.48,2.46-5.48,5.48s2.46,5.48,5.48,5.48,5.48-2.46,5.48-5.48-2.46-5.48-5.48-5.48Z"/>
        </g>
      </g>
    </g>
  </g>
</svg>