<?xml version="1.0" encoding="UTF-8"?>
<svg id="Capa_2" data-name="Capa 2" xmlns="http://www.w3.org/2000/svg" viewBox="0 0 208.02 208.02">
  <defs>
    <style>
      .cls-1 {
        fill: #fff;
      }

      .cls-2 {
        fill: #a1a1a1;
      }

      .cls-3 {
        fill: #5e5e5e;
      }
    </style>
  </defs>
  <g id="Layer_1" data-name="Layer 1">
    <rect class="cls-3" width="208.02" height="208.02"/>
    <g>
      <g>
        <path class="cls-1" d="M45.31,159.26h-1.84l-.32-1.69c-.21-.13-.53-.25-.94-.35-.41-.1-.84-.15-1.31-.15-.67,0-1.2,.14-1.56,.43s-.55,.65-.55,1.1c0,.42,.19,.76,.58,1.02,.38,.27,1.05,.55,1.99,.85,1.35,.38,2.38,.87,3.08,1.49s1.05,1.43,1.05,2.44-.42,1.88-1.25,2.48c-.83,.61-1.93,.91-3.29,.91-.97,0-1.85-.15-2.63-.46s-1.44-.74-1.96-1.28v-2.56h1.9l.26,1.74c.25,.2,.58,.37,1.01,.5,.42,.13,.9,.2,1.42,.2,.67,0,1.19-.14,1.54-.41s.53-.64,.53-1.1-.17-.85-.5-1.14c-.33-.29-.92-.56-1.76-.81-1.45-.42-2.56-.92-3.3-1.5-.75-.58-1.12-1.37-1.12-2.38s.42-1.81,1.26-2.44c.84-.63,1.9-.96,3.18-.97,.94,0,1.8,.14,2.58,.43,.77,.29,1.43,.67,1.95,1.15v2.51Z"/>
        <path class="cls-1" d="M58.36,161.57c0,1.8-.51,3.28-1.54,4.46-1.03,1.17-2.37,1.76-4.04,1.76s-3-.59-4.01-1.76-1.53-2.66-1.53-4.46v-.19c0-1.79,.51-3.27,1.52-4.45,1.02-1.18,2.35-1.77,4.01-1.77s3.01,.59,4.04,1.77c1.03,1.18,1.55,2.66,1.55,4.45v.19Zm-2.45-.2c0-1.27-.26-2.3-.79-3.09-.53-.79-1.31-1.19-2.34-1.19s-1.8,.39-2.31,1.18c-.51,.79-.76,1.82-.76,3.1v.2c0,1.29,.26,2.33,.77,3.12,.51,.79,1.28,1.18,2.31,1.18s1.82-.39,2.34-1.18c.52-.79,.78-1.83,.78-3.12v-.2Z"/>
        <path class="cls-1" d="M70.09,159.48h-1.83l-.25-1.63c-.24-.24-.55-.43-.91-.57-.37-.14-.8-.21-1.3-.21-1.07,0-1.89,.39-2.46,1.16-.58,.77-.86,1.79-.86,3.03v.43c0,1.25,.29,2.26,.86,3.04,.57,.78,1.38,1.17,2.43,1.17,.48,0,.92-.07,1.33-.21,.4-.14,.71-.33,.93-.57l.25-1.63h1.83v2.43c-.49,.57-1.13,1.03-1.89,1.37-.77,.34-1.62,.51-2.57,.51-1.65,0-2.99-.57-4.04-1.71-1.05-1.14-1.58-2.6-1.58-4.39v-.41c0-1.78,.52-3.24,1.57-4.39,1.04-1.15,2.4-1.72,4.05-1.72,.95,0,1.81,.17,2.57,.52,.76,.35,1.4,.8,1.9,1.37v2.43Z"/>
        <path class="cls-1" d="M71.9,156.82v-1.48h5.08v1.48l-1.31,.25v8.8l1.31,.25v1.47h-5.08v-1.47l1.31-.25v-8.8l-1.31-.25Z"/>
        <path class="cls-1" d="M78.48,166.13l.88-.13,3.73-10.67h2.52l3.71,10.67,.88,.13v1.47h-4.18v-1.47l.85-.15-.54-1.69h-3.98l-.54,1.69,.85,.15v1.47h-4.18v-1.47Zm4.45-3.65h2.81l-1.38-4.32h-.05l-1.38,4.32Z"/>
        <path class="cls-1" d="M91.69,167.61v-1.47l1.31-.25v-8.8l-1.31-.25v-1.48h5.08v1.48l-1.31,.25v8.64h3.46l.12-1.54h1.88v3.43h-9.23Z"/>
        <path class="cls-1" d="M117.58,166.24c-.4,.39-.98,.75-1.74,1.07-.76,.32-1.73,.48-2.9,.48-1.66,0-3-.56-4.04-1.66-1.04-1.11-1.56-2.55-1.56-4.33v-.42c0-1.84,.51-3.33,1.54-4.48,1.03-1.15,2.36-1.73,4.01-1.73,.96,0,1.84,.15,2.63,.46,.79,.31,1.46,.72,1.98,1.24v2.47h-1.82l-.35-1.64c-.22-.19-.52-.34-.89-.46-.37-.12-.79-.17-1.27-.17-1.07,0-1.91,.4-2.5,1.19s-.89,1.83-.89,3.11v.44c0,1.25,.29,2.24,.88,2.99,.58,.74,1.43,1.12,2.53,1.12,.49,0,.89-.04,1.2-.13,.31-.08,.55-.18,.72-.29v-2.08l-1.75-.13v-1.73h4.22v4.71Z"/>
        <path class="cls-1" d="M125.01,155.34c1.39,0,2.49,.32,3.28,.96,.79,.64,1.19,1.52,1.19,2.64,0,.62-.17,1.15-.5,1.61s-.82,.82-1.46,1.1c.72,.21,1.25,.57,1.56,1.07,.32,.5,.48,1.11,.48,1.85v.62c0,.27,.05,.48,.16,.63s.28,.24,.53,.27l.3,.04v1.48h-1.27c-.8,0-1.37-.22-1.69-.65-.33-.43-.49-.99-.49-1.68v-.7c0-.6-.16-1.06-.48-1.4-.32-.34-.77-.52-1.34-.54h-2.01v3.24l1.31,.25v1.47h-5.08v-1.47l1.31-.25v-8.8l-1.31-.25v-1.48h5.51Zm-1.74,5.41h1.7c.68,0,1.2-.15,1.54-.44,.34-.29,.51-.71,.51-1.26s-.17-.99-.51-1.32c-.34-.33-.84-.49-1.5-.49h-1.74v3.51Z"/>
        <path class="cls-1" d="M143.26,161.57c0,1.8-.51,3.28-1.54,4.46-1.03,1.17-2.37,1.76-4.04,1.76s-3-.59-4.01-1.76c-1.02-1.17-1.53-2.66-1.53-4.46v-.19c0-1.79,.51-3.27,1.53-4.45,1.02-1.18,2.35-1.77,4.01-1.77s3.01,.59,4.04,1.77,1.55,2.66,1.55,4.45v.19Zm-2.45-.2c0-1.27-.26-2.3-.79-3.09-.53-.79-1.31-1.19-2.34-1.19s-1.8,.39-2.31,1.18c-.51,.79-.76,1.82-.76,3.1v.2c0,1.29,.26,2.33,.77,3.12,.51,.79,1.29,1.18,2.31,1.18s1.82-.39,2.34-1.18c.52-.79,.78-1.83,.78-3.12v-.2Z"/>
        <path class="cls-1" d="M149.87,155.34v1.48l-1.31,.25v6.4c0,.81,.22,1.41,.65,1.82,.44,.4,1.03,.6,1.79,.6s1.37-.2,1.81-.6c.44-.4,.66-1.01,.66-1.82v-6.4l-1.31-.25v-1.48h5.08v1.48l-1.31,.25v6.4c0,1.38-.45,2.44-1.36,3.18s-2.1,1.12-3.57,1.12-2.65-.37-3.55-1.12c-.9-.75-1.35-1.81-1.35-3.18v-6.4l-1.31-.25v-1.48h5.08Z"/>
        <path class="cls-1" d="M164.5,155.34c1.4,0,2.51,.36,3.32,1.08,.81,.72,1.22,1.67,1.22,2.84s-.41,2.12-1.22,2.83c-.81,.71-1.92,1.07-3.32,1.07h-2.07v2.72l1.31,.25v1.47h-5.08v-1.47l1.31-.25v-8.8l-1.31-.25v-1.48h5.84Zm-2.07,5.92h2.07c.69,0,1.2-.19,1.55-.56,.35-.37,.53-.85,.53-1.43s-.18-1.08-.53-1.46c-.35-.38-.87-.58-1.55-.58h-2.07v4.03Z"/>
      </g>
      <g>
        <path class="cls-1" d="M74.8,178.33l1.64-3.08h.77l-2.06,3.77v2.39h-.72v-2.36l-2.05-3.8h.78l1.63,3.08Z"/>
        <path class="cls-1" d="M83.41,178.33c0,.99-.25,1.76-.75,2.33-.5,.56-1.19,.85-2.08,.85s-1.61-.28-2.1-.83c-.49-.55-.74-1.34-.74-2.35s.25-1.78,.74-2.33c.49-.55,1.2-.83,2.11-.83s1.58,.28,2.07,.84c.5,.56,.75,1.34,.75,2.33Zm-4.91,0c0,.83,.18,1.47,.53,1.9,.35,.43,.87,.65,1.55,.65s1.2-.21,1.55-.64c.35-.43,.52-1.06,.52-1.9s-.17-1.46-.52-1.89c-.35-.43-.86-.64-1.54-.64s-1.2,.22-1.56,.65c-.36,.43-.53,1.06-.53,1.88Z"/>
        <path class="cls-1" d="M89.43,175.26v3.98c0,.7-.21,1.25-.64,1.66-.42,.4-1.01,.6-1.75,.6s-1.31-.2-1.72-.61-.61-.96-.61-1.67v-3.97h.72v4.02c0,.51,.14,.91,.42,1.18,.28,.28,.69,.41,1.24,.41s.92-.14,1.2-.42,.42-.67,.42-1.19v-4.01h.72Z"/>
        <path class="cls-1" d="M91.78,178.85v2.56h-.72v-6.16h1.69c.76,0,1.31,.14,1.67,.43,.36,.29,.54,.72,.54,1.31,0,.81-.41,1.37-1.24,1.65l1.67,2.77h-.85l-1.49-2.56h-1.28Zm0-.61h.98c.51,0,.88-.1,1.11-.3,.24-.2,.35-.5,.35-.9s-.12-.7-.36-.88-.63-.27-1.16-.27h-.93v2.36Z"/>
        <path class="cls-1" d="M100.53,181.41h-.72v-5.52h-1.95v-.64h4.62v.64h-1.95v5.52Z"/>
        <path class="cls-1" d="M107.28,181.41l-.77-1.96h-2.47l-.76,1.96h-.72l2.44-6.18h.6l2.42,6.18h-.74Zm-.99-2.6l-.72-1.91c-.09-.24-.19-.54-.29-.89-.06,.27-.15,.57-.27,.89l-.72,1.91h1.99Z"/>
        <path class="cls-1" d="M111.58,178.19h2.09v3c-.33,.1-.66,.18-.99,.24-.34,.05-.73,.08-1.17,.08-.93,0-1.66-.28-2.18-.83-.52-.55-.78-1.33-.78-2.33,0-.64,.13-1.2,.39-1.68,.26-.48,.63-.85,1.11-1.1,.48-.25,1.05-.38,1.7-.38s1.27,.12,1.84,.36l-.28,.63c-.56-.24-1.09-.35-1.61-.35-.75,0-1.34,.22-1.76,.67s-.63,1.07-.63,1.86c0,.83,.2,1.46,.61,1.89s1,.64,1.79,.64c.43,0,.84-.05,1.25-.15v-1.9h-1.38v-.64Z"/>
        <path class="cls-1" d="M115.15,181.41v-6.16h.72v5.51h2.72v.65h-3.43Z"/>
        <path class="cls-1" d="M119.63,181.41v-6.16h.72v6.16h-.72Z"/>
        <path class="cls-1" d="M126.84,181.41h-.82l-3.37-5.17h-.03c.04,.61,.07,1.16,.07,1.67v3.5h-.66v-6.16h.81l3.36,5.15h.03c0-.08-.02-.32-.04-.73s-.03-.71-.02-.88v-3.53h.67v6.16Z"/>
        <path class="cls-1" d="M131.97,181.41h-3.43v-6.16h3.43v.64h-2.72v1.98h2.55v.63h-2.55v2.27h2.72v.64Z"/>
      </g>
      <path class="cls-2" d="M141.64,138.22h-29.38c-1.29,0-2.33-1.04-2.33-2.33V71.29c0-4.16-3.39-7.55-7.55-7.55h-.88c-4.16,0-7.55,3.39-7.55,7.55v64.59c0,1.29-1.04,2.33-2.33,2.33h-29.38c-1.29,0-2.33-1.04-2.33-2.33v-11.57h-17.43c-1.29,0-2.33-1.04-2.33-2.33s1.04-2.33,2.33-2.33h17.43v-43.79c0-6.73,5.48-12.21,12.21-12.21s12.21,5.48,12.21,12.21v46.11c0,1.29-1.04,2.33-2.33,2.33h-17.43v9.24h24.72v-62.27c0-6.73,5.48-12.21,12.21-12.21h.88c6.73,0,12.21,5.48,12.21,12.21v62.27h24.72v-9.24h-17.43c-1.29,0-2.33-1.04-2.33-2.33v-46.11c0-6.73,5.48-12.21,12.21-12.21s12.21,5.48,12.21,12.21v43.79h17.43c1.29,0,2.33,1.04,2.33,2.33s-1.04,2.33-2.33,2.33h-17.43v11.57c0,1.29-1.04,2.33-2.33,2.33Zm-17.43-18.56h15.1v-43.79c0-4.16-3.39-7.55-7.55-7.55s-7.55,3.39-7.55,7.55v43.79Zm-59.63,0h15.1v-43.79c0-4.16-3.39-7.55-7.55-7.55s-7.55,3.39-7.55,7.55v43.79Z"/>
      <path class="cls-1" d="M81.5,49.54c0,5.12-4.15,9.27-9.27,9.27s-9.27-4.15-9.27-9.27,4.15-9.27,9.27-9.27,9.27,4.15,9.27,9.27Z"/>
      <path class="cls-1" d="M140.94,49.54c0,5.12-4.15,9.27-9.27,9.27s-9.27-4.15-9.27-9.27,4.15-9.27,9.27-9.27,9.27,4.15,9.27,9.27Z"/>
      <path class="cls-1" d="M111.22,44.69c0,5.12-4.15,9.27-9.27,9.27s-9.27-4.15-9.27-9.27,4.15-9.27,9.27-9.27,9.27,4.15,9.27,9.27Z"/>
    </g>
  </g>
</svg>