<?xml version="1.0" encoding="UTF-8"?>
<svg id="Capa_2" data-name="Capa 2" xmlns="http://www.w3.org/2000/svg" viewBox="0 0 208.01 208.01">
  <defs>
    <style>
      .cls-1 {
        fill: #fff;
      }

      .cls-2 {
        fill: #a3a3a3;
      }

      .cls-3 {
        fill: #666;
      }

      .cls-4 {
        fill: #a2a2a2;
      }
    </style>
  </defs>
  <g id="Layer_1" data-name="Layer 1">
    <g>
      <rect class="cls-1" width="208.01" height="208.01"/>
      <g>
        <path class="cls-4" d="M64.97,69.61c-.34-.17-.62-.47-.77-.92-.02-.06-.04-.13-.09-.21-.33-.04-.64-.18-.86-.45-2.24-2.79-6.89-2.69-9.57-.62-4.92,3.81-2.21,12.48-3.78,17.83-1.03,3.52-3.35,6.53-5.97,9.04-2.37,2.26-5.56,4.7-9.01,4.63,1.67-1.63,3.48-3.84,5.06-6.75-2.72,3.73-7.07,7.07-11.71,7.82-5.01,.81-15.67-3.78-15.61-4.36,2.69-.24,5.35-.84,7.8-1.96,.54-.25,1.08-.52,1.6-.81,3.83-2.18,6.55-5.69,8.44-9.6,2.86-5.91,3.9-12.65,8.23-17.8,3.57-4.25,8.98-6.57,14.38-5.89,.91,.11,1.82,.31,2.73,.6,2.37,.76,4.58,1.99,6.76,3.18,1.9,1.04,3.91,2.36,4.62,4.52,.48,1.48-1.18,2.31-2.27,1.76Z"/>
        <path class="cls-3" d="M162.19,42.22c-1.25,.11-2.4,.59-3.31,1.09l-.03,.07s.96,.72,1.72,1.6c.48-.7,1.11-1.56,1.81-2.42,.12-.15,0-.37-.18-.35Z"/>
        <path class="cls-4" d="M66.38,67.97l-1.41,1.64c-.34-.17-.62-.47-.77-.92-.02-.06-.04-.13-.09-.21-.33-.04-.64-.18-.86-.45-2.24-2.79-6.89-2.69-9.57-.62-4.92,3.81-2.21,12.48-3.78,17.83-1.03,3.52-3.35,6.53-5.97,9.04-2.37,2.26-5.56,4.7-9.01,4.63,1.67-1.63,3.48-3.84,5.06-6.75,4.98-20.13,3.72-26.73,13.88-29.47,5.31-1.43,9.17,1.52,11.1,3.55,0,0,0,0,0,0h0c.91,.96,1.39,1.72,1.39,1.72Z"/>
        <path class="cls-3" d="M169.89,61.09s-.9,.36-5.02-.71c-.64-.02-1.29-.12-1.92-.24-2.64,.06-3.92,1.81-7.46,.41-.78-.31-1.44-.71-2.01-1.16,0,0,0,.01,0,.01-1.08-1.19-1.49-2.36-1.49-2.36-.08,1.01,.57,2.14,1.17,2.96-.5,1.32-.21,3.21-.21,4.83,0,3.81-.47,7.61-1.4,11.3-.52,2.08-2.01,3.87-2.55,5.86-.93,3.42-.07,6.62-1.05,9.58,2.53,1.59,5.28,2.74,7.83,4.27,3.88,2.32,2.51,7.46,1.85,11.07-.85,4.61,.67,9.61-1.3,14.04-1.35,3.03-6.22,7.6-9.86,6.06-2.41-1.02-.24-6.66,1.62-7.7,1.21,.03,2.86,.01,3.27-.17,.08-.04,.16-.08,.23-.13,.02,0,.04,0,.06-.01,1.69-.46,.91-1.86,.69-2.93-.57-2.72,1.88-5.88,1.81-8.81-.12-5.05-2.72-8.07-7.92-7.75-5.74,.35-11.94-2.08-16.6-5.33-.79-.55-1.66-1.07-2.58-1.53l-1.74-.46c.32,.1,2.08,.69,3.85,2.79,.18,.21,.41,.43,.67,.65,.18,.15,.38,.3,.59,.45,0,0,.02,.01,.03,.02,.06,.04,.12,.08,.18,.13,.02,.01,.04,.03,.06,.04,.05,.04,.11,.07,.16,.11,.02,.01,.05,.03,.07,.05,.05,.03,.1,.07,.16,.1,.03,.02,.05,.03,.08,.05,.05,.03,.11,.07,.16,.1,.03,.02,.06,.03,.09,.05,.06,.03,.11,.07,.17,.1,.03,.02,.06,.03,.08,.05,.06,.03,.12,.07,.18,.1,.02,.01,.05,.03,.07,.04,2.08,1.17,4.77,2.31,6.84,3.11-1.54,2.86-3.14,5.69-4.13,8.73-1.07,3.27-2.29,6.74-2.49,10.14-.17,2.92-.29,5.93-.22,8.87,.02,.95-.05,1.9,.08,2.84,.13,.93,.6,1.73,1.25,2.39,1.21,1.24,1.42,2.53,1.69,4.21,.4,2.49-2.51,2.21-4.29,2.28-.78,.03-1.68,0-2.4-.31-1.01-.45-1.02-1.09-.98-2.06,.09-2.36,.62-2.68,.13-5-1.75-1.03-1.32-2.59-.54-4.31,.47-4.51,2.56-11.23,2.01-15.69-.21-1.72-1.35-3.47-1.23-5.23,.15-2.24,1.75-4.33,1.98-6.69,.07-.7,.12-1.4,.15-2.1-.72,.29-1.46,.56-2.2,.81-3.86,1.3-7.51,3.26-11.56,3.8-4.45,1.14-9.03,1.48-13.69,.33-4.92-1.22-8.92-4.25-13.44-6.39-.85-.4-1.71-.78-2.58-1.15,.48-2.56,.95-5.69,1.29-9.34-.94,3.54-2.01,6.81-2.68,8.77-.02,0-.05-.02-.07-.03-.18,.64-.38,1.27-.6,1.91,0,0,0,.01,0,.01h0c-1,2.91-2.38,5.73-4.11,8.2-1.09,1.56-3.94,2.89-5.35,4.16-.2,.34-.4,.67-.61,.99-1.31,2.03-2.75,3.57-3.01,6.19-.19,1.95,.15,4.01,.14,5.98-.02,2.23-.35,4.56-.13,6.78,.11,1.11,.33,1.92,.64,2.59,.17,.36,.36,.67,.58,.97,.55,.75,1.26,1.38,2.11,2.26,1.72,1.79,5.98,7.3,1.32,8.36-1.4,.32-4.22-.09-5.39-1.07-.96-.82,.33-5.18-.48-5.15-.56,.02-.97-.34-1.19-.82-.1-.22-.16-.46-.19-.7-.03-.37-.06-.74-.09-1.11-.38-5.19-.17-10.4-2.62-15.04-2.02-3.82-1.04-5.38,.33-9.16,.43-1.19,.69-2.43,.81-3.71,.03-1.16,.03-2.3,0-3.43-.07-.75-.18-1.5-.34-2.24-.02,.03-.04,.05-.05,.07-.47-1.8-1.59-5.56-3.15-7.57,.63,3.6,1.54,6.52,1.79,9.41-1.41,1.94-2.76,3.9-3.81,6.01-1.52,3.09-3.21,6.35-3.89,9.69-.58,2.87-1.12,5.83-1.46,8.75-.11,.94-.32,1.87-.32,2.82s.44,1.21,.99,1.95c1.03,1.4,1.61,3.09,1.63,4.78,.04,2.52-3.43,2.05-5.2,1.87-.78-.08-1.67-.23-2.33-.64-.94-.59-.85-1.22-.68-2.18,.42-2.33,.99-2.56,.83-4.94-1.58-1.27-.95-2.76,.07-4.34,1.1-4.4,4.11-10.76,4.19-15.25,.03-1.74-.85-3.63-.49-5.35,.47-2.2,2.34-4.05,2.9-6.34,1.34-5.45,1.43-10.82,1.48-16.32-.55-2.37-.61-4.76-.24-7.16,.46-3.07,2.04-5.92,4.26-8.28,.8-.85,1.69-1.64,2.64-2.36,4.48-3.37,10.37-5.06,15.43-3.79,3.04,.77,5.78,2.36,8.5,3.92,6.94,3.97,16.09,6.58,24.1,4.37,6.64-1.83,10.55-6.42,12.22-8.46l.63-.78c3.45-4.37,6.29-9.38,10.21-13.27,4.5-4.47,11.35-6.49,17.44-5.07,1.23,.29,2.42,.71,3.56,1.28,.9,.45,1.76,.99,2.57,1.63,.23,.18,.44,.39,.64,.61,.47,.52,.86,1.12,1.31,1.66,2.98,3.59,8.33,5.78,10.47,10.06,.5,1-3,3.34-3,3.34Z"/>
        <path class="cls-4" d="M19.7,92.16c.3-.05,1.6,.85,2.01,.95,1.59,.38,3.08,.05,4.52-.65,5.58-2.69,7.86-9.22,10.28-14.52,1.23-2.69,2.41-5.42,3.74-8.06,2.58-5.14,6.53-9.81,15.62-9.73-15.87-4.69-21.05,12.06-21.31,12.7-1.01,2.56-2.37,5.02-3.6,7.48-1.37,2.74-2.49,5.66-4.35,8.12-1.74,2.29-4.1,3.26-6.91,3.71Z"/>
        <path class="cls-4" d="M161.78,43.65c-.17-.27-.47-.47-.79-.64-.02-.01-.04-.02-.07-.03-2.27-1.12-4.67-2.34-7.14-2.89-3.1-.69-6.52-.55-9.61,.12-.52,.11-1.04,.25-1.54,.42l2.33,.84c-2.69,.2-5.64,.88-7.82,2.51-.56,.41-1.08,.87-1.59,1.34-.18,.17-1.22,1.5-1.25,1.5,0,0,2.75-.17,3.25,.14-.22,.2-8.28,6.06-12.82,12.91l5.04,.98-5.67-.19c-1.67,2.03-3.5,3.9-5.66,5.42l5.83,1.18s-4.87,.25-7.76,.02l-4.62,1.84s4,2.42,10.16,.98c6.15-1.44,10.74-9.54,13.38-13.65,.87-1.36,1.76-2.67,2.69-3.91,3.12-4.13,6.81-7.32,12.53-7.92,3.3-.35,6.13-.32,9.77,1.13,.03-.09,.07-.18,.11-.28,.25-.65,.81-1.15,1.4-1.51-.03-.11-.07-.21-.14-.3Z"/>
        <path class="cls-3" d="M156.42,46.03s1.6-2.61,3.74-5.24c.16-.19,0-.49-.24-.47-2.15,.19-4.09,1.2-5.38,2.05-.83,.55-.84,1.78-.02,2.35l1.89,1.31Z"/>
      </g>
      <rect class="cls-2" x="137.95" y="167.39" width="28.16" height="1.24"/>
      <rect class="cls-2" x="35.28" y="167.39" width="28.16" height="1.24"/>
      <g>
        <path class="cls-3" d="M69.73,166.44c.21,.14,.33,.33,.33,.55,0,.26-.16,.4-.37,.4s-.39-.13-.39-.36c0-.21,.14-.34,.3-.39-.09-.17-.37-.3-.64-.3-.47,0-1.01,.4-1.01,1.74,0,1.26,.47,1.69,1.02,1.69,.37,0,.78-.2,1.03-.73l.13,.05c-.14,.46-.54,.98-1.3,.98-.88,0-1.57-.71-1.57-1.88s.68-1.97,1.65-1.97c.3,0,.6,.07,.82,.22Z"/>
        <path class="cls-3" d="M73.89,168.15c0,1.36-.71,1.92-1.61,1.92s-1.61-.56-1.61-1.92,.71-1.93,1.61-1.93,1.61,.56,1.61,1.93Zm-2.53,0c0,1.27,.38,1.78,.92,1.78s.92-.51,.92-1.78-.38-1.78-.92-1.78-.92,.52-.92,1.78Z"/>
        <path class="cls-3" d="M79.82,169.31c0,.39,.15,.51,.54,.51v.15c-.16,0-.54-.02-.85-.02s-.65,.02-.79,.02v-.15c.34,0,.47-.12,.47-.51v-2.05c0-.44-.03-.82-.54-.82-.55,0-.95,.56-.95,1.29v1.58c0,.39,.15,.51,.53,.51v.15c-.16,0-.53-.02-.85-.02s-.65,.02-.8,.02v-.15c.34,0,.47-.12,.47-.51v-2.05c0-.44-.03-.82-.54-.82-.55,0-.96,.57-.96,1.29v1.58c0,.39,.13,.51,.47,.51v.15c-.15,0-.49-.02-.8-.02s-.69,.02-.85,.02v-.15c.39,0,.54-.12,.54-.51v-2.21c0-.43-.13-.63-.54-.63v-.15c.15,.01,.3,.02,.44,.02,.28,0,.54-.03,.74-.1v.84c.24-.61,.71-.85,1.16-.85,.33,0,.58,.1,.74,.26,.12,.14,.19,.32,.22,.57,.25-.65,.73-.84,1.18-.84,.33,0,.58,.1,.74,.26,.18,.2,.23,.49,.23,.93v1.9Z"/>
        <path class="cls-3" d="M84.18,167.98c0,1.02-.47,2.09-1.62,2.09-.37,0-.67-.16-.83-.38v.9c0,.41,.26,.51,.68,.51v.15c-.21,0-.61-.03-1.02-.03-.3,0-.62,.02-.77,.03v-.15c.34,0,.47-.1,.47-.44v-3.57c0-.43-.13-.63-.54-.63v-.15c.15,.01,.3,.02,.44,.02,.28,0,.53-.03,.74-.1v.75c.21-.49,.63-.77,1.13-.77,.74,0,1.32,.61,1.32,1.76Zm-.69,.09c0-1.12-.28-1.64-.82-1.64-.41,0-.79,.3-.94,.9v2.12c.13,.26,.38,.46,.75,.46,.79,0,1.01-.82,1.01-1.83Z"/>
        <path class="cls-3" d="M87.09,166.49c.22,.23,.28,.49,.28,1v1.97c0,.23,.06,.33,.22,.33,.13,0,.22-.06,.32-.15l.08,.12c-.2,.15-.34,.26-.65,.26-.5,0-.61-.29-.61-.63-.3,.5-.75,.63-1.09,.63-.47,0-.9-.24-.9-.79s.43-.81,1.14-1.11c.47-.2,.85-.32,.85-.6v-.44c0-.6-.29-.71-.66-.71-.24,0-.54,.05-.7,.25,.18,.04,.33,.2,.33,.43,0,.25-.16,.39-.42,.39s-.38-.18-.38-.44c0-.21,.14-.37,.33-.5,.2-.13,.54-.26,.99-.26,.4,0,.69,.1,.86,.26Zm-.36,1.32c-.08,.12-.23,.19-.68,.41-.31,.15-.69,.36-.69,.9,0,.43,.24,.63,.57,.63,.28,0,.56-.15,.8-.54v-1.4Z"/>
        <path class="cls-3" d="M91.3,166.49c.18,.2,.25,.45,.25,.93v1.9c0,.39,.15,.51,.54,.51v.15c-.16,0-.54-.02-.85-.02s-.64,.02-.79,.02v-.15c.34,0,.46-.12,.46-.51v-2.05c0-.44-.06-.82-.57-.82-.6,0-.99,.57-.99,1.29v1.58c0,.39,.13,.51,.47,.51v.15c-.15,0-.49-.02-.8-.02s-.69,.02-.85,.02v-.15c.39,0,.54-.12,.54-.51v-2.21c0-.43-.13-.63-.54-.63v-.15c.15,.01,.3,.02,.44,.02,.28,0,.53-.03,.74-.1v.84c.25-.64,.72-.85,1.21-.85,.36,0,.59,.1,.75,.26Z"/>
        <path class="cls-3" d="M95.58,166.32v.14c-.18,.02-.32,.14-.46,.5l-1.16,3.05-.24,.61c-.09,.24-.19,.39-.3,.5-.16,.14-.38,.18-.55,.18-.27,0-.48-.15-.48-.43,0-.22,.14-.37,.38-.37,.2,0,.36,.11,.36,.33,0,.16-.09,.26-.19,.31,.02,.01,.03,.01,.04,.01,.26,0,.45-.17,.6-.55l.25-.65-1.29-3.09c-.18-.37-.37-.39-.48-.39v-.15c.2,.02,.42,.04,.7,.04,.29,0,.64-.03,.92-.04v.15c-.26,0-.49,0-.49,.25,0,.08,.02,.2,.09,.35l.86,2.12,.78-2.06c.05-.13,.08-.24,.08-.33,0-.22-.17-.31-.53-.34v-.14c.25,.01,.38,.02,.59,.02s.39,0,.54-.02Z"/>
        <path class="cls-3" d="M99.47,166.33v.14h-1.05v2.74c0,.44,.17,.6,.45,.6s.49-.2,.64-.76l.14,.03c-.1,.55-.34,.98-.92,.98-.33,0-.52-.08-.67-.23-.21-.21-.28-.49-.28-.99v-2.37h-.68v-.14h.68v-1.08c.23-.01,.46-.04,.64-.1v1.19h1.05Z"/>
        <path class="cls-3" d="M102.19,166.49c.22,.23,.28,.49,.28,1v1.97c0,.23,.06,.33,.22,.33,.13,0,.22-.06,.32-.15l.08,.12c-.2,.15-.34,.26-.65,.26-.5,0-.61-.29-.61-.63-.3,.5-.75,.63-1.09,.63-.48,0-.9-.24-.9-.79s.43-.81,1.14-1.11c.47-.2,.85-.32,.85-.6v-.44c0-.6-.29-.71-.66-.71-.24,0-.54,.05-.7,.25,.18,.04,.33,.2,.33,.43,0,.25-.16,.39-.42,.39s-.38-.18-.38-.44c0-.21,.14-.37,.33-.5,.2-.13,.54-.26,.99-.26,.4,0,.69,.1,.86,.26Zm-.36,1.32c-.08,.12-.23,.19-.68,.41-.31,.15-.69,.36-.69,.9,0,.43,.24,.63,.57,.63,.28,0,.56-.15,.8-.54v-1.4Z"/>
        <path class="cls-3" d="M105.77,169.19c.45,0,.83,.17,.83,.66,0,.63-.61,1.46-1.98,1.46-.71,0-1.42-.22-1.42-.65,0-.34,.44-.66,.89-.87h-.02c-.25,0-.71-.06-.71-.54,0-.3,.21-.59,.89-.89-.4-.16-.66-.48-.66-1.02,0-.77,.56-1.11,1.31-1.11,.18,0,.35,.02,.5,.06,.05-.26,.14-.49,.25-.63,.11-.14,.28-.24,.49-.24,.24,0,.37,.17,.37,.37,0,.19-.14,.34-.34,.34-.26,0-.33-.17-.38-.45-.07,.06-.13,.18-.19,.34-.02,.08-.06,.18-.07,.3,.41,.15,.68,.48,.68,1.01,0,.78-.57,1.13-1.31,1.13-.19,0-.37-.02-.52-.07-.32,.17-.59,.34-.59,.56,0,.15,.1,.23,.34,.23h1.66Zm.34,.99c0-.26-.1-.39-.54-.39h-1.32c-.31,.16-.48,.46-.48,.72,0,.48,.56,.68,1.03,.68,.6,0,1.3-.32,1.3-1Zm-1.87-2.84c0,.76,.25,1,.64,1s.65-.23,.65-1-.25-.99-.65-.99-.64,.23-.64,.99Z"/>
        <path class="cls-3" d="M108.01,169.31c0,.39,.15,.51,.54,.51v.15c-.16,0-.54-.02-.86-.02s-.7,.02-.86,.02v-.15c.39,0,.54-.12,.54-.51v-4.05c0-.42-.13-.62-.54-.62v-.15c.15,.01,.3,.02,.44,.02,.28,0,.54-.03,.74-.1v4.9Z"/>
        <path class="cls-3" d="M110.07,169.31c0,.39,.15,.51,.54,.51v.15c-.16,0-.53-.02-.86-.02s-.69,.02-.86,.02v-.15c.39,0,.54-.12,.54-.51v-2.21c0-.43-.13-.63-.54-.63v-.15c.15,.01,.3,.02,.44,.02,.28,0,.54-.03,.74-.1v3.07Zm.09-4.31c0,.25-.21,.45-.45,.45s-.46-.2-.46-.45,.21-.45,.46-.45,.45,.2,.45,.45Z"/>
        <path class="cls-3" d="M114.08,166.49c.18,.2,.25,.45,.25,.93v1.9c0,.39,.15,.51,.54,.51v.15c-.16,0-.54-.02-.85-.02s-.64,.02-.79,.02v-.15c.34,0,.46-.12,.46-.51v-2.05c0-.44-.06-.82-.57-.82-.6,0-.99,.57-.99,1.29v1.58c0,.39,.13,.51,.47,.51v.15c-.15,0-.49-.02-.8-.02s-.69,.02-.85,.02v-.15c.39,0,.54-.12,.54-.51v-2.21c0-.43-.13-.63-.54-.63v-.15c.15,.01,.3,.02,.44,.02,.28,0,.53-.03,.74-.1v.84c.25-.64,.72-.85,1.21-.85,.36,0,.59,.1,.75,.26Z"/>
        <path class="cls-3" d="M118.2,169.12c-.15,.47-.62,.95-1.32,.95-1.03,0-1.63-.75-1.63-1.83,0-1.25,.63-2.01,1.6-2.01,.83,0,1.33,.49,1.33,1.56h-2.22c-.02,.13-.02,.29-.02,.45,0,.97,.54,1.54,1.08,1.54,.42,0,.79-.18,1.04-.71l.14,.06Zm-2.25-1.48h1.54c.02-.69-.2-1.29-.67-1.29-.42,0-.8,.39-.87,1.29Z"/>
        <path class="cls-3" d="M121.32,167.07c.25-.64,.72-.85,1.2-.85,.36,0,.59,.1,.75,.26,.18,.2,.25,.45,.25,.93v1.9c0,.39,.15,.51,.54,.51v.15c-.17,0-.54-.02-.85-.02s-.65,.02-.8,.02v-.15c.34,0,.47-.12,.47-.51v-2.05c0-.44-.06-.82-.57-.82-.58,0-.99,.54-.99,1.29v1.58c0,.39,.13,.51,.46,.51v.15c-.15,0-.48-.02-.79-.02s-.69,.02-.85,.02v-.15c.39,0,.54-.12,.54-.51v-4.04c0-.42-.13-.62-.54-.62v-.15c.15,.01,.3,.02,.44,.02,.28,0,.53-.02,.74-.1v2.65Z"/>
        <path class="cls-3" d="M127.41,169.12c-.16,.47-.62,.95-1.33,.95-1.03,0-1.63-.75-1.63-1.83,0-1.25,.63-2.01,1.6-2.01,.83,0,1.32,.49,1.32,1.56h-2.22c-.02,.13-.02,.29-.02,.45,0,.97,.54,1.54,1.08,1.54,.42,0,.8-.18,1.04-.71l.14,.06Zm-2.26-1.48h1.54c.02-.69-.2-1.29-.67-1.29-.42,0-.8,.39-.87,1.29Z"/>
        <path class="cls-3" d="M130.72,166.78c0,.25-.15,.45-.4,.45-.2,0-.38-.13-.38-.37,0-.17,.11-.3,.24-.38-.03-.05-.09-.07-.15-.07-.59,0-.98,.81-.98,1.33v1.5c0,.46,.28,.58,.75,.58v.15c-.22,0-.65-.02-1.09-.02-.33,0-.68,.02-.84,.02v-.15c.39,0,.54-.12,.54-.51v-2.21c0-.43-.13-.63-.54-.63v-.15c.15,.01,.3,.02,.44,.02,.28,0,.54-.03,.74-.1v.89c.15-.41,.53-.9,1.03-.9,.38,0,.65,.25,.65,.55Z"/>
        <path class="cls-3" d="M133.93,169.12c-.16,.47-.62,.95-1.33,.95-1.03,0-1.63-.75-1.63-1.83,0-1.25,.63-2.01,1.6-2.01,.83,0,1.32,.49,1.32,1.56h-2.21c-.02,.13-.02,.29-.02,.45,0,.97,.54,1.54,1.08,1.54,.42,0,.8-.18,1.04-.71l.14,.06Zm-2.25-1.48h1.54c.02-.69-.2-1.29-.67-1.29-.42,0-.8,.39-.87,1.29Z"/>
      </g>
      <g>
        <g>
          <path class="cls-2" d="M63.33,132.44c-2.46,.11-2.9,.51-2.9,3.31v19.11c0,2.8,.47,3.2,2.9,3.31v.77c-1.26-.07-3.48-.11-5.85-.11-2.24,0-4.63,.04-6.06,.11v-.77c2.46-.11,2.9-.51,2.9-3.31v-9.25h-10.21v9.25c0,2.8,.45,3.2,2.9,3.31v.77c-1.39-.07-3.69-.11-5.83-.11-2.46,0-4.78,.04-6.07,.11v-.77c2.44-.11,2.88-.51,2.88-3.31v-19.11c0-2.8-.45-3.2-2.88-3.31v-.77c1.3,.08,3.61,.11,6.07,.11,2.14,0,4.44-.04,5.83-.11v.77c-2.46,.11-2.9,.51-2.9,3.31v9.08h10.21v-9.08c0-2.8-.45-3.2-2.9-3.31v-.77c1.43,.08,3.82,.11,6.06,.11,2.37,0,4.59-.04,5.85-.11v.77Z"/>
          <path class="cls-1" d="M63.33,131.67v.77c-2.46,.11-2.9,.51-2.9,3.31v19.11c0,2.8,.47,3.2,2.9,3.31v.77c-1.26-.07-3.48-.11-5.85-.11-2.24,0-4.63,.04-6.06,.11v-.77c2.46-.11,2.9-.51,2.9-3.31v-9.25h-10.21v9.25c0,2.8,.45,3.2,2.9,3.31v.77c-1.39-.07-3.69-.11-5.83-.11-2.46,0-4.78,.04-6.07,.11v-.77c2.44-.11,2.88-.51,2.88-3.31v-19.11c0-2.8-.45-3.2-2.88-3.31v-.77c1.3,.08,3.61,.11,6.07,.11,2.14,0,4.44-.04,5.83-.11v.77c-2.46,.11-2.9,.51-2.9,3.31v9.08h10.21v-9.08c0-2.8-.45-3.2-2.9-3.31v-.77c1.43,.08,3.82,.11,6.06,.11,2.37,0,4.59-.04,5.85-.11h0Zm1.2-1.28l-1.27,.08c-1.18,.07-3.28,.11-5.78,.11s-4.69-.04-5.99-.11l-1.27-.07v3.19l1.15,.05c1.18,.05,1.46,.18,1.53,.25,.08,.09,.22,.45,.22,1.86v7.88h-7.81v-7.88c0-1.41,.14-1.77,.22-1.86,.06-.07,.35-.19,1.53-.25l1.15-.05v-3.19l-1.27,.07c-1.27,.07-3.48,.11-5.76,.11-2.56,0-4.81-.04-6-.11l-1.27-.07v3.19l1.15,.05c1.17,.05,1.45,.18,1.51,.25,.08,.09,.22,.46,.22,1.86v19.11c0,1.41-.14,1.77-.22,1.86-.06,.07-.34,.19-1.51,.25l-1.15,.05v3.19l1.27-.07c1.2-.07,3.44-.11,6-.11,2.29,0,4.5,.04,5.76,.11l1.27,.07v-3.19l-1.15-.05c-1.18-.05-1.46-.18-1.53-.25-.08-.09-.22-.45-.22-1.86v-8.05h7.81v8.05c0,1.41-.14,1.77-.22,1.86-.06,.07-.34,.19-1.53,.25l-1.15,.05v3.19l1.27-.07c1.3-.07,3.6-.11,5.99-.11s4.6,.04,5.78,.11l1.27,.08v-3.19l-1.15-.05c-1.17-.05-1.46-.18-1.52-.25-.08-.09-.23-.46-.23-1.85v-19.11c0-1.41,.14-1.77,.22-1.86,.06-.07,.34-.19,1.53-.25l1.15-.05v-3.19h0Z"/>
        </g>
        <g>
          <path class="cls-2" d="M93.21,145.08c0,8.61-5.64,14.4-13.63,14.4s-13.6-5.13-13.6-13.95,5.62-14.4,13.63-14.4,13.6,5.13,13.6,13.95Zm-20.83,.3c0,8.2,3.29,13.41,7.35,13.41,4.31,0,7.09-5.58,7.09-13.56s-3.29-13.41-7.37-13.41c-4.31,0-7.07,5.59-7.07,13.56Z"/>
          <path class="cls-1" d="M79.62,131.13c8.14,0,13.6,5.13,13.6,13.95s-5.64,14.4-13.63,14.4-13.6-5.13-13.6-13.95,5.62-14.4,13.63-14.4h0Zm.11,27.66c4.31,0,7.09-5.58,7.09-13.56s-3.29-13.41-7.37-13.41c-4.31,0-7.07,5.59-7.07,13.56s3.29,13.41,7.35,13.41h0Zm-.11-28.86c-2.13,0-4.14,.38-5.97,1.13-1.81,.74-3.4,1.82-4.73,3.22-1.33,1.39-2.36,3.06-3.07,4.96-.72,1.93-1.08,4.05-1.08,6.3,0,4.6,1.41,8.45,4.09,11.13,2.62,2.63,6.33,4.02,10.71,4.02,8.73,0,14.84-6.42,14.84-15.61,0-4.6-1.42-8.45-4.1-11.13-2.63-2.63-6.33-4.02-10.7-4.02h0Zm.11,27.66c-1.56,0-3.04-1.07-4.16-3.02-1.29-2.25-1.99-5.51-1.99-9.18s.64-6.98,1.79-9.22c1.33-2.59,2.95-3.14,4.08-3.14,1.57,0,3.06,1.07,4.17,3.02,1.29,2.25,2,5.51,2,9.18s-.64,6.97-1.8,9.22c-1.34,2.59-2.96,3.14-4.09,3.14h0Z"/>
        </g>
        <g>
          <path class="cls-2" d="M121.94,157.25c-1.37,1.58-2.86,2.24-5.12,2.24-2.76,0-4.63-.96-5.21-4.18l-.68-3.84c-.56-3.22-1.18-5.47-3.59-5.47h-2.5v8.86c0,2.8,.45,3.2,2.9,3.31v.77c-1.39-.07-3.69-.11-5.83-.11-2.46,0-4.78,.04-6.07,.11v-.77c2.44-.11,2.88-.51,2.88-3.31v-19.11c0-2.8-.45-3.2-2.88-3.31v-.77c1.3,.08,3.69,.11,5.85,.11,2.52,0,5.08-.07,6.06-.07,7.16,0,10.66,2.46,10.66,6.69,0,3.12-1.9,6.68-8.65,7.45h.02c4.66,.4,6.71,1.88,7.39,5.08l.87,3.97c.43,2.05,.87,2.76,1.82,2.76,.66,0,1.07-.3,1.56-.88l.53,.47Zm-17.09-21.49v9.48h1.65c4.55,0,5.51-2.86,5.51-6.39,0-4.04-1.28-6.39-4.78-6.39-1.97,0-2.39,.66-2.39,3.31Z"/>
          <path class="cls-1" d="M95.84,131.67c1.3,.08,3.69,.11,5.85,.11,2.52,0,5.08-.07,6.06-.07,7.16,0,10.66,2.46,10.66,6.69,0,3.12-1.9,6.68-8.65,7.45h.02c4.66,.4,6.71,1.88,7.39,5.08l.87,3.97c.43,2.05,.87,2.76,1.82,2.76,.66,0,1.07-.3,1.56-.88l.53,.47c-1.37,1.58-2.86,2.24-5.12,2.24-2.76,0-4.63-.96-5.21-4.18l-.68-3.84c-.56-3.22-1.18-5.47-3.59-5.47h-2.5v8.86c0,2.8,.45,3.2,2.9,3.31v.77c-1.39-.07-3.69-.11-5.83-.11-2.46,0-4.78,.04-6.07,.11v-.77c2.44-.11,2.88-.51,2.88-3.31v-19.11c0-2.8-.45-3.2-2.88-3.31v-.77h0Zm9.01,13.56h1.65c4.55,0,5.51-2.86,5.51-6.39,0-4.04-1.28-6.39-4.78-6.39-1.97,0-2.39,.66-2.39,3.31v9.48h0Zm-10.21-14.83v3.19l1.15,.05c1.17,.05,1.45,.18,1.51,.25,.08,.09,.22,.46,.22,1.86v19.11c0,1.41-.14,1.77-.22,1.86-.06,.07-.34,.19-1.51,.25l-1.15,.05v3.19l1.27-.07c1.2-.07,3.44-.11,6-.11,2.29,0,4.5,.04,5.76,.11l1.27,.07v-3.19l-1.15-.05c-1.18-.05-1.46-.18-1.53-.25-.08-.09-.22-.45-.22-1.86v-7.65h1.3c.68,0,1.07,.24,1.43,.9,.43,.78,.7,2,.98,3.57l.68,3.84h0s0,0,0,0c.34,1.87,1.08,3.19,2.26,4.05,1.03,.75,2.38,1.11,4.13,1.11,2.61,0,4.41-.79,6.02-2.65l.78-.9-.88-.79-.53-.47-.92-.83-.8,.95c-.38,.45-.49,.45-.64,.45-.03,0-.04,0-.06,0-.08-.08-.3-.42-.59-1.81h0s0,0,0,0l-.86-3.96c-.41-1.94-1.29-3.35-2.69-4.32-.3-.21-.62-.39-.96-.56,1.11-.51,2.04-1.16,2.79-1.95,1.39-1.45,2.13-3.33,2.13-5.44,0-2.95-1.54-7.9-11.86-7.9-.39,0-.99,.01-1.75,.03-1.23,.02-2.76,.05-4.3,.05-2.35,0-4.62-.04-5.78-.11l-1.27-.07h0Zm11.41,13.63v-8.28c0-1.34,.13-1.81,.23-1.96,.01-.02,.13-.15,.95-.15,1.71,0,2.37,.66,2.71,1.16,.57,.83,.86,2.18,.86,4.03s-.27,3.03-.83,3.83c-.23,.34-.95,1.36-3.48,1.36h-.45Z"/>
        </g>
        <g>
          <path class="cls-2" d="M137.74,132.67c.62,.38,.96,.55,1.3,.55,.51,0,.7-.58,.87-1.69h.88c-.13,1.52-.21,3.37-.21,8.78h-.88c-.26-4.01-2.43-8.2-6.54-8.2-2.46,0-4.23,1.49-4.23,3.93,0,3.1,2.35,4.36,6.66,7.26,3.65,2.43,6.51,4.51,6.51,8.69,0,5.08-4.38,7.5-9.55,7.5-3.2,0-4.89-.73-6.19-1.43-.62-.4-1.02-.54-1.32-.54-.51,0-.7,.58-.85,1.69h-.88c.11-1.81,.15-4.27,.15-10.4h.88c.32,5.13,2.09,9.67,7.01,9.67,2.69,0,4.78-1.43,4.78-4.31,0-3.16-2.39-4.98-5.77-7.16-3.67-2.33-6.86-4.49-6.86-8.78,0-4.85,4.12-7.03,8.63-7.03,3.01,0,4.42,.77,5.62,1.49Z"/>
          <path class="cls-1" d="M132.12,131.18c3.01,0,4.42,.77,5.62,1.49,.62,.38,.96,.55,1.3,.55,.51,0,.7-.58,.87-1.69h.88c-.13,1.52-.21,3.37-.21,8.78h-.88c-.26-4.01-2.43-8.2-6.54-8.2-2.46,0-4.23,1.49-4.23,3.93,0,3.1,2.35,4.36,6.66,7.26,3.65,2.43,6.51,4.51,6.51,8.69,0,5.08-4.38,7.5-9.55,7.5-3.2,0-4.89-.73-6.19-1.43-.62-.4-1.02-.54-1.32-.54-.51,0-.7,.58-.85,1.69h-.88c.11-1.81,.15-4.27,.15-10.4h.88c.32,5.13,2.09,9.67,7.01,9.67,2.69,0,4.78-1.43,4.78-4.31,0-3.16-2.39-4.98-5.77-7.16-3.67-2.33-6.86-4.49-6.86-8.78,0-4.85,4.12-7.03,8.63-7.03h0Zm0-1.2c-2.61,0-4.99,.68-6.71,1.92-2.04,1.48-3.12,3.66-3.12,6.31,0,5.08,3.94,7.58,7.42,9.79,1.76,1.13,3.02,2.03,3.91,3.01,.9,.99,1.31,1.96,1.31,3.14,0,1.01-.32,1.78-.95,2.31-.62,.52-1.53,.79-2.63,.79-1.86,0-3.24-.76-4.21-2.34-.9-1.45-1.44-3.54-1.6-6.2l-.07-1.13h-3.21v1.2c0,6.02-.04,8.53-.15,10.32l-.08,1.28h3.21l.14-1.04c.02-.18,.05-.33,.07-.45,.07,.04,.16,.09,.26,.16l.04,.02,.04,.02c1.52,.82,3.39,1.57,6.75,1.57,2.95,0,5.51-.72,7.41-2.07,2.19-1.56,3.34-3.85,3.34-6.63,0-2.21-.71-4.1-2.18-5.79-1.27-1.46-2.95-2.63-4.86-3.9-.39-.26-.75-.5-1.11-.74-3.73-2.48-5.01-3.44-5.01-5.52,0-.84,.27-1.51,.8-1.99,.53-.48,1.31-.74,2.23-.74,1.51,0,2.76,.7,3.73,2.09,.9,1.28,1.49,3.1,1.61,4.99l.07,1.12h3.21v-1.2c0-5.33,.07-7.16,.2-8.68l.11-1.31h-3.23l-.16,1.02c-.03,.19-.06,.34-.08,.46-.08-.05-.17-.1-.27-.16h0s0,0,0,0c-1.41-.84-3.05-1.65-6.24-1.65h0Z"/>
        </g>
        <g>
          <path class="cls-2" d="M166.34,158.94c-2.61-.11-6.22-.11-8.82-.11s-8.35,0-12.54,.11v-.77c2.44-.11,2.88-.51,2.88-3.31v-19.11c0-2.8-.45-3.2-2.88-3.31v-.77c4.19,.11,9.97,.11,12.54,.11,2.35,0,5.68,0,8.05-.11-.19,2.28-.26,4.59-.26,5.7,0,1.02,.04,1.99,.11,2.61h-.88c-.77-5.64-2.78-7.43-6.32-7.43h-1.58c-2.24,0-2.65,.34-2.65,2.75v9.53h1.24c3.08,0,4.17-2.99,4.59-5.08h.88c-.11,1.64-.13,2.74-.13,3.63,0,.71,.02,1.28,.02,1.84,0,1.26,.04,2.54,.23,5.47h-.88c-.4-2.71-1.62-5.1-4.7-5.1h-1.24v9.7c0,2.41,.41,2.75,2.65,2.75h1.9c3.44,0,5.81-1.99,6.77-8.2h.88c-.08,.83-.11,1.97-.11,3.23,0,1.15,.04,3.54,.26,5.85Z"/>
          <path class="cls-1" d="M165.57,131.67c-.19,2.28-.26,4.59-.26,5.7,0,1.02,.04,1.99,.11,2.61h-.88c-.77-5.64-2.78-7.43-6.32-7.43h-1.58c-2.24,0-2.65,.34-2.65,2.75v9.53h1.24c3.08,0,4.17-2.99,4.59-5.08h.88c-.11,1.64-.13,2.74-.13,3.63,0,.71,.02,1.28,.02,1.84,0,1.26,.04,2.54,.23,5.47h-.88c-.4-2.71-1.62-5.1-4.7-5.1h-1.24v9.7c0,2.41,.41,2.75,2.65,2.75h1.9c3.44,0,5.81-1.99,6.77-8.2h.88c-.08,.83-.11,1.97-.11,3.23,0,1.15,.04,3.54,.26,5.85-2.61-.11-6.22-.11-8.82-.11s-8.35,0-12.54,.11v-.77c2.44-.11,2.88-.51,2.88-3.31v-19.11c0-2.8-.45-3.2-2.88-3.31v-.77c4.19,.11,9.97,.11,12.54,.11,2.35,0,5.68,0,8.05-.11h0Zm1.31-1.27l-1.37,.06c-2.34,.11-5.61,.11-7.99,.11s-8.33,0-12.51-.11l-1.23-.03v3.15l1.15,.05c1.17,.05,1.45,.18,1.51,.25,.08,.09,.22,.46,.22,1.86v19.11c0,1.41-.14,1.77-.22,1.86-.06,.07-.34,.19-1.51,.25l-1.15,.05v3.15l1.23-.03c4.18-.11,10.02-.11,12.51-.11s6.18,0,8.77,.11l1.38,.06-.13-1.38c-.23-2.38-.26-4.8-.26-5.73,0-1.25,.04-2.36,.11-3.13l.12-1.31h-3.23l-.16,1.02c-.42,2.72-1.15,4.68-2.16,5.81-.84,.94-1.93,1.37-3.42,1.37h-1.9c-.92,0-1.22-.07-1.31-.12-.05-.09-.14-.39-.14-1.42v-8.5h.04c1.25,0,2.98,.42,3.51,4.07l.15,1.03h3.2l-.08-1.28c-.19-2.91-.22-4.18-.22-5.4,0-.27,0-.54,0-.83,0-.32-.01-.64-.01-1.01,0-.83,.02-1.9,.13-3.55l.09-1.28h-3.16l-.19,.97c-.24,1.21-.61,2.17-1.1,2.86-.6,.85-1.33,1.25-2.31,1.25h-.04v-8.33c0-1.03,.09-1.34,.14-1.42,.09-.05,.39-.12,1.31-.12h1.58c1.53,0,2.55,.37,3.3,1.2,.88,.98,1.48,2.67,1.82,5.19l.14,1.04h3.29l-.16-1.35c-.07-.54-.1-1.46-.1-2.47,0-1.19,.08-3.44,.26-5.6l.11-1.36h0Z"/>
        </g>
      </g>
    </g>
  </g>
</svg>