<?xml version="1.0" encoding="UTF-8"?>
<svg id="Capa_2" data-name="Capa 2" xmlns="http://www.w3.org/2000/svg" viewBox="0 0 208.02 208.02">
  <defs>
    <style>
      .cls-1 {
        fill: #fff;
      }

      .cls-2 {
        fill: #838383;
      }

      .cls-3 {
        fill: #5e5e5e;
      }
    </style>
  </defs>
  <g id="Layer_1" data-name="Layer 1">
    <rect class="cls-3" width="208.02" height="208.02"/>
    <g>
      <g>
        <path class="cls-2" d="M43.72,159.95c0,.84-.21,1.58-.64,2.23-.42,.65-1.04,1.15-1.84,1.51-.8,.36-1.74,.54-2.82,.54-.9,0-1.65-.06-2.26-.19-.61-.13-1.24-.35-1.9-.66v-3.25c.7,.36,1.42,.64,2.17,.84,.75,.2,1.44,.3,2.07,.3,.54,0,.94-.09,1.19-.28,.25-.19,.38-.43,.38-.73,0-.18-.05-.35-.15-.48-.1-.14-.26-.28-.49-.42-.22-.14-.82-.43-1.8-.87-.88-.4-1.54-.79-1.98-1.16s-.77-.81-.98-1.29c-.21-.49-.32-1.06-.32-1.73,0-1.24,.45-2.21,1.36-2.91,.91-.7,2.15-1.04,3.73-1.04,1.4,0,2.82,.32,4.27,.97l-1.12,2.82c-1.26-.58-2.35-.87-3.27-.87-.47,0-.82,.08-1.03,.25s-.32,.37-.32,.62c0,.27,.14,.5,.41,.71,.27,.21,1.02,.59,2.23,1.14,1.16,.52,1.97,1.08,2.42,1.69s.68,1.36,.68,2.27Z"/>
        <path class="cls-2" d="M58.44,157.29c0,2.27-.56,4-1.67,5.18-1.11,1.18-2.75,1.77-4.89,1.77s-3.74-.59-4.87-1.78c-1.13-1.19-1.69-2.92-1.69-5.19s.56-3.96,1.69-5.15c1.12-1.19,2.76-1.78,4.9-1.78s3.78,.59,4.88,1.76c1.11,1.18,1.66,2.9,1.66,5.18Zm-9.29,0c0,2.61,.91,3.92,2.72,3.92,.92,0,1.61-.32,2.05-.95,.45-.63,.67-1.62,.67-2.96s-.23-2.34-.68-2.99c-.45-.64-1.13-.96-2.03-.96-1.83,0-2.74,1.32-2.74,3.95Z"/>
        <path class="cls-2" d="M66.89,153.35c-.87,0-1.54,.36-2.03,1.07-.49,.71-.73,1.69-.73,2.94,0,2.6,.99,3.9,2.96,3.9,.6,0,1.18-.08,1.74-.25s1.12-.37,1.69-.6v3.08c-1.13,.5-2.4,.75-3.82,.75-2.04,0-3.6-.59-4.69-1.77-1.09-1.18-1.63-2.89-1.63-5.13,0-1.4,.26-2.63,.79-3.68,.53-1.06,1.28-1.87,2.27-2.44s2.15-.85,3.49-.85c1.46,0,2.85,.32,4.18,.95l-1.12,2.87c-.5-.23-1-.43-1.5-.59-.5-.16-1.03-.24-1.61-.24Z"/>
        <path class="cls-2" d="M73.15,164.05v-13.5h3.67v13.5h-3.67Z"/>
        <path class="cls-2" d="M88.01,164.05l-.66-2.53h-4.39l-.68,2.53h-4.01l4.4-13.55h4.87l4.46,13.55h-3.99Zm-1.42-5.52l-.58-2.22c-.14-.49-.3-1.13-.49-1.91s-.32-1.34-.38-1.68c-.06,.31-.17,.83-.33,1.55-.16,.72-.52,2.14-1.08,4.26h2.87Z"/>
        <path class="cls-2" d="M93.46,164.05v-13.5h3.65v10.55h5.2v2.95h-8.85Z"/>
        <path class="cls-2" d="M115.34,164.05h-3.65v-10.52h-3.3v-2.98h10.23v2.98h-3.29v10.52Z"/>
        <path class="cls-2" d="M124.2,159.14v4.91h-3.65v-13.5h4.42c3.67,0,5.5,1.33,5.5,3.99,0,1.56-.76,2.77-2.29,3.63l3.93,5.88h-4.14l-2.86-4.91h-.92Zm0-2.74h.68c1.27,0,1.91-.56,1.91-1.69,0-.93-.62-1.39-1.87-1.39h-.72v3.08Z"/>
        <path class="cls-2" d="M141.37,164.05h-8.02v-13.5h8.02v2.93h-4.37v2.12h4.04v2.93h-4.04v2.55h4.37v2.97Z"/>
        <path class="cls-2" d="M151.74,164.05h-8.01v-13.5h8.01v2.93h-4.37v2.12h4.04v2.93h-4.04v2.55h4.37v2.97Z"/>
        <path class="cls-2" d="M162.94,159.95c0,.84-.21,1.58-.64,2.23-.43,.65-1.04,1.15-1.84,1.51-.8,.36-1.74,.54-2.82,.54-.9,0-1.65-.06-2.26-.19s-1.24-.35-1.9-.66v-3.25c.7,.36,1.42,.64,2.17,.84,.75,.2,1.44,.3,2.07,.3,.54,0,.94-.09,1.19-.28,.25-.19,.38-.43,.38-.73,0-.18-.05-.35-.15-.48-.1-.14-.26-.28-.49-.42s-.82-.43-1.8-.87c-.88-.4-1.54-.79-1.98-1.16-.44-.38-.77-.81-.98-1.29s-.32-1.06-.32-1.73c0-1.24,.45-2.21,1.36-2.91,.9-.7,2.15-1.04,3.73-1.04,1.4,0,2.82,.32,4.28,.97l-1.12,2.82c-1.26-.58-2.35-.87-3.27-.87-.47,0-.82,.08-1.03,.25s-.32,.37-.32,.62c0,.27,.14,.5,.41,.71,.27,.21,1.02,.59,2.23,1.14,1.16,.52,1.97,1.08,2.42,1.69,.45,.6,.68,1.36,.68,2.27Z"/>
      </g>
      <g>
        <path class="cls-1" d="M68.21,175.81l1.8-3.38h.85l-2.25,4.13v2.62h-.79v-2.58l-2.25-4.17h.86l1.79,3.38Z"/>
        <path class="cls-1" d="M77.64,175.8c0,1.08-.27,1.93-.82,2.55s-1.31,.93-2.28,.93-1.76-.3-2.3-.91c-.54-.61-.81-1.47-.81-2.57s.27-1.95,.81-2.56,1.31-.91,2.31-.91,1.73,.31,2.27,.92c.54,.62,.82,1.46,.82,2.55Zm-5.38,0c0,.91,.19,1.61,.58,2.08s.96,.71,1.7,.71,1.31-.24,1.69-.71c.38-.47,.57-1.16,.57-2.08s-.19-1.6-.57-2.07c-.38-.47-.94-.7-1.69-.7s-1.32,.24-1.71,.71c-.39,.47-.58,1.16-.58,2.06Z"/>
        <path class="cls-1" d="M84.25,172.43v4.37c0,.77-.23,1.37-.7,1.81-.46,.44-1.1,.66-1.92,.66s-1.44-.22-1.89-.66c-.44-.44-.67-1.05-.67-1.83v-4.35h.78v4.4c0,.56,.15,1,.46,1.3,.31,.3,.76,.45,1.36,.45s1.01-.15,1.32-.45c.31-.3,.46-.74,.46-1.3v-4.4h.79Z"/>
        <path class="cls-1" d="M86.82,176.38v2.81h-.79v-6.75h1.85c.83,0,1.44,.16,1.83,.48,.4,.32,.59,.79,.59,1.43,0,.89-.45,1.5-1.36,1.81l1.83,3.03h-.93l-1.63-2.81h-1.41Zm0-.67h1.08c.55,0,.96-.11,1.22-.33,.26-.22,.39-.55,.39-.99s-.13-.77-.39-.96c-.26-.2-.69-.3-1.27-.3h-1.02v2.58Z"/>
        <path class="cls-1" d="M96.41,179.18h-.79v-6.05h-2.14v-.7h5.06v.7h-2.14v6.05Z"/>
        <path class="cls-1" d="M103.81,179.18l-.84-2.15h-2.71l-.83,2.15h-.79l2.67-6.78h.66l2.65,6.78h-.81Zm-1.08-2.85l-.78-2.09c-.1-.26-.21-.59-.31-.97-.07,.3-.16,.62-.29,.97l-.79,2.09h2.18Z"/>
        <path class="cls-1" d="M108.52,175.65h2.29v3.28c-.36,.11-.72,.2-1.09,.26-.37,.06-.8,.09-1.28,.09-1.02,0-1.82-.3-2.39-.91s-.85-1.46-.85-2.56c0-.7,.14-1.32,.42-1.84s.69-.93,1.22-1.21c.53-.28,1.15-.42,1.86-.42s1.39,.13,2.01,.4l-.3,.69c-.61-.26-1.2-.39-1.76-.39-.82,0-1.46,.24-1.93,.73-.46,.49-.69,1.17-.69,2.04,0,.91,.22,1.6,.67,2.07,.44,.47,1.1,.71,1.96,.71,.47,0,.92-.05,1.37-.16v-2.08h-1.51v-.7Z"/>
        <path class="cls-1" d="M112.43,179.18v-6.75h.79v6.04h2.98v.71h-3.76Z"/>
        <path class="cls-1" d="M117.34,179.18v-6.75h.79v6.75h-.79Z"/>
        <path class="cls-1" d="M125.25,179.18h-.9l-3.69-5.66h-.04c.05,.66,.07,1.27,.07,1.83v3.84h-.73v-6.75h.89l3.68,5.64h.04c0-.08-.02-.35-.04-.8-.02-.45-.03-.77-.02-.97v-3.87h.73v6.75Z"/>
        <path class="cls-1" d="M130.87,179.18h-3.76v-6.75h3.76v.7h-2.98v2.17h2.8v.69h-2.8v2.48h2.98v.7Z"/>
      </g>
      <rect class="cls-1" x="80.17" y="112.08" width="4.54" height="17.77"/>
      <polygon class="cls-2" points="105.52 132.13 57.1 132.13 57.1 127.58 100.97 127.58 100.97 94.7 105.52 94.7 105.52 132.13"/>
      <polygon class="cls-1" points="138.99 132.13 110.52 132.13 110.52 94.31 115.06 94.31 115.06 127.58 138.99 127.58 138.99 132.13"/>
      <g>
        <path class="cls-3" d="M141.41,63.88c0,18.15-14.71,32.87-32.87,32.87-12.57,0-23.49-7.06-29.02-17.42-2.45-4.6-3.85-9.86-3.85-15.44,0-18.15,14.72-32.87,32.87-32.87,5.58,0,10.84,1.39,15.44,3.85,10.37,5.53,17.42,16.45,17.42,29.02Z"/>
        <path class="cls-1" d="M108.54,99.01c-13.01,0-24.9-7.14-31.02-18.63-2.69-5.05-4.11-10.76-4.11-16.51,0-19.38,15.76-35.14,35.14-35.14,5.75,0,11.46,1.42,16.51,4.11,11.49,6.13,18.63,18.01,18.63,31.02,0,19.38-15.76,35.14-35.14,35.14Zm0-65.73c-16.87,0-30.6,13.73-30.6,30.6,0,5.01,1.24,9.98,3.58,14.37,5.34,10.01,15.69,16.22,27.02,16.22,16.87,0,30.6-13.73,30.6-30.6,0-11.33-6.22-21.68-16.22-27.02-4.39-2.34-9.36-3.58-14.37-3.58Z"/>
      </g>
      <g>
        <path class="cls-3" d="M97.79,96.74c0,8.48-6.87,15.35-15.35,15.35-6.09,0-11.35-3.55-13.83-8.68-.97-2.01-1.52-4.27-1.52-6.66,0-8.47,6.87-15.34,15.34-15.34,2.39,0,4.65,.54,6.66,1.52,5.14,2.48,8.68,7.74,8.68,13.83Z"/>
        <path class="cls-1" d="M82.44,114.36c-3.38,0-6.66-.96-9.49-2.77-2.75-1.77-4.96-4.25-6.38-7.19-1.16-2.39-1.74-4.97-1.74-7.65,0-9.71,7.9-17.61,17.62-17.61,2.68,0,5.26,.59,7.65,1.74,2.94,1.42,5.43,3.62,7.19,6.38,1.81,2.83,2.77,6.11,2.77,9.49,0,9.71-7.9,17.62-17.62,17.62Zm0-30.69c-7.21,0-13.07,5.86-13.07,13.07,0,1.99,.43,3.9,1.29,5.67,2.17,4.5,6.79,7.4,11.78,7.4,7.21,0,13.07-5.87,13.07-13.08,0-4.99-2.9-9.61-7.4-11.78-1.77-.86-3.68-1.29-5.68-1.29Z"/>
      </g>
    </g>
  </g>
</svg>