<?xml version="1.0" encoding="UTF-8"?>
<svg id="Capa_2" data-name="Capa 2" xmlns="http://www.w3.org/2000/svg" viewBox="0 0 208.01 208.01">
  <defs>
    <style>
      .cls-1 {
        fill: #fff;
      }

      .cls-2 {
        fill: #7d7d7d;
      }

      .cls-3 {
        fill: #a3a3a3;
      }

      .cls-4 {
        fill: #666;
      }

      .cls-5 {
        fill: #a2a2a2;
      }
    </style>
  </defs>
  <g id="Layer_1" data-name="Layer 1">
    <g>
      <rect class="cls-1" width="208.01" height="208.01"/>
      <g>
        <path class="cls-5" d="M169.07,119.75c-.13-.06-.26-.11-.4-.13-.73-.14-1.49-.09-2.19-.32-1.95-.66-2.54-3.08-2.82-5.12-1.14-8.22-1.13-17.79-4.61-25.4-2.96-6.48-7.89-11.44-12.13-17.05-.03-.04-.05-.07-.08-.1-1.02-1.85-2.76-3.16-4.62-4.03-1.54-.72-3.19-1.58-4.89-2.1-.32-.19-.65-.36-.99-.51-2.73-1.25-5.69-1.65-8.67-1.57-2.86,.08-5.71,.54-8.53,.99-1.83,.29-2.5,.41-4.21,.58-2.1,.21-4.21,.33-6.32,.39-.65,.02-1.3,.03-1.95,.04-.14-.02-.28-.03-.42-.05-2.14-.24-4.28-.37-6.43-.53-.02,0-.41-.05-.56-.07-.17-.03-.37-.07-.37-.07-.38-.08-.76-.17-1.14-.28-.97-.27-1.92-.63-2.86-.99-.47-.18-.94-.35-1.41-.52-3.16,.33-6.09,.7-8.28,1.17,0,0,0,0-.01,0-.31,.07-.6,.14-.87,.21,0,0,0,0,0,0,.13-.09,2.25-1.59,9.03-2.2,.02-.23-.05-.47-.26-.74-.54-.69-2.44-1.99-2.89-2.37-.09-.08-.18-.15-.28-.23-.27-.22-.55-.42-.84-.62-1.42-.97-3.03-1.76-4.41-2.76-.87-.63-1.65-1.35-2.23-2.24-.03-.04-.06-.09-.08-.13-2.04-2.17-3.51-4.74-5.74-6.76-4.01-3.62-8.8-5.31-14.01-5.67-.31-.02-.63-.04-.95-.05l1.5,1.03,1.02,.7c-.14-.06-4.73-1.88-5.06-2.01-.9-.25-2.24-.69-2.59-.75-.01,0-.03,0-.04,0-1.13-.09-2.31,.33-3.01,1.19l4.12,1.93-2.86-.8c-1.16-.32-2.34-.51-3.54-.56-1.53-.06-3.1-.08-4.58,.06-.79,.08-4.68,1.42-4.74,2.73,1.71,.66,5.14,2.5,5.42,6.7-2.23,.56-4.46,1.82-5.16,4.06-.13,.41-.12,.79-.03,1.11-1.28,1.18-2.55,2.35-3.83,3.53-.62,.57-1.25,1.15-1.63,1.9-.85,1.67-.09,3.76,1.24,4.94,.21,.18,.43,.33,.65,.45,.03,.75,.32,1.48,.94,2.05,.8,.74,2.26,1.25,3.34,.87,.7-.25,1.28-.73,1.96-.99,.8-.31,1.62-.22,2.46-.3-.15,.48-.3,.96-.43,1.45-.17,.65-.33,1.33-.45,2.02-.32,1.75-.48,3.6-.41,5.41,0,.06,0,.12,0,.18,.05,1.07,.18,2.11,.4,3.11,.19,.86,.47,1.71,.82,2.54,1,2.39,2.56,4.61,4.16,6.54,.29,.35,.59,.67,.9,.99,.16,.16,.32,.32,.48,.48,.74,.94,1.53,1.84,2.31,2.74,.24,.27,.5,.55,.77,.83,1.37,2.77,3.73,7.94,3.73,10.61,1.01-.75,1.89-1.71,2.65-2.77,.01,.06,.02,.11,.03,.17,0,.25,.01,.5,.02,.76,0,.04,.01,.07,.02,.11,.27,1.33,.48,2.67,.72,3.95,.8,4.32,2.37,8.5,2.54,12.92,.06,1.47,.19,4.63-1.11,5.69-.7,.57-2.1,.42-2.94,1.01-.82,.58-2.94,3.19-1.36,4.12,.08,.27,.19,.5,.33,.7h7.62c.62-.31,1.2-.7,1.67-1.17,1.63-1.63,2.11-4.02,2.31-6.23,.25-2.75,.06-5.52,.26-8.28,.29-3.78,.85-7.53,1.58-11.25-.97-1.1-2.46-2.45-4.74-3.9,0,0,2.56-.19,5.42,3.08,.04,.02,.08,.03,.12,.05,.16,.24,.33,.48,.5,.71,.3,.4,.61,.84,.92,1.33,.2,.3,.39,.6,.56,.9,1.09,1.93,2.05,3.9,2.82,5.98,1.73,4.68,1.64,10.52-1.83,14.41-1.93,.16-4.43,1.26-4.87,3.08-.09,.13-.15,.31-.14,.52,.01,.28,.06,.54,.16,.77h11.84c1.91-1.66,3.18-5.16,3.78-7.26,.79-2.77,.77-5.36,.39-7.93-.36-2.47-1.05-4.92-1.67-7.49-.4-1.68-.7-3.37-.91-5.07,0,0-1.31-5.22-.42-8.26,.27,2.75,1.53,6.23,2.41,8.38,4.55,.24,9.08,.25,13.56-.88,3.76-.95,7.34-2.76,10.78-4.51,1.62-.83,3.24-1.68,4.86-2.51,.79-.4,1.58-.79,2.38-1.17,.38-.18,.76-.35,1.14-.52,.21-.1,.42-.19,.64-.28,.05-.02,.09-.04,.12-.06,.03-.01,.07-.03,.11-.04,.54-.22,1.09-.43,1.63-.63-1.5-2.07-3.5-5.41-2.74-7.53,.53,3.18,3.61,6.1,4.54,6.92,.03-.01,.06-.02,.1-.03,.9,1.37,1.83,2.73,2.6,4.18,1.06,1.99,1.66,3.39,2.27,5.34,.31,.97,.57,1.96,.78,2.97,.1,.47,.18,.95,.26,1.43,.01,.09,.05,.41,.06,.47,.03,.26,.05,.51,.07,.77,.09,1.17,.09,2.36,0,3.53-.07,1-.21,1.59-.48,2.91-.24,1.21-.47,2.43-.75,3.64-.25,1.07-.66,2.58-.95,3.32-.56,1.45-1.22,2.91-1.99,4.24-.17,.29-.35,.57-.53,.85-.03,.04-.06,.07-.08,.1-.13,.14-.26,.28-.39,.43,.02,0,.04,0,.05,0-.02,0-.06,.02-.11,.06-.01,.02-.03,.03-.04,.05,0,0,0,0-.01,.01,0,0-.01,0-.02,0,0,0-.02,.02-.03,.03-.01,0-.02,0-.03,0,0,0,0-.01,.01-.02-.27,.04-.54,.09-.82,.13-1.45,.21-2.29,2.09-2.11,3.47,.05,.36,.14,.69,.28,.99h9.3c1.66-.9,2.97-2.29,3.41-4.55,.44-2.26,.71-4.63,.86-6.93,.02-.27,.04-.54,.05-.8,0-.04,0-.07,0-.11,.06-.33,.14-.65,.22-.98,.09-.17,.17-.34,.26-.51,.06-.1,.22-.31,.26-.42,.26-.19,.46-.28,.75-.84,.35-.66,.48-1.34,.54-2.09,.09-1.08-.25-2.01-.5-3.02-.02-.06-.03-.12-.04-.17,0-.02,0-.06,0-.15-.03-.28-.05-.56-.06-.84-.03-.51-.03-1.03-.04-1.54,0-1.24,0-2.49,.02-3.73,.06-3.98-.36-7.91,2.41-11.09,3.38-3.88,6-7.98,6.88-13.17,.18-1.06,.32-2.14,.36-3.22-.05,1.16,1.88,3.13,2.48,4.01,1.4,2.07,2.65,4.18,3.98,6.28,2.87,4.52,4.15,10.08,4.72,15.29,.45,4.07,.67,7.45,1.79,12.09,.52,2.14,2.06,4.44,3.97,5.76,1.01,.69,2.17,1.12,3.41,.96,1.56-.2,2.64-1.44,.7-2.34Zm-31.89-1.69c.21-.25,.36-.38,.51-.48-.11,.16-.76,.79-.51,.48Z"/>
        <path class="cls-5" d="M155.55,109.28c-.24-.23-.45-.49-.68-.73-.04-.04-.07-.07-.09-.09-.02-.03-.04-.06-.07-.11-.32-.48-.61-.97-.88-1.48-.15-.28-.27-.57-.41-.86-.03-.07-.05-.11-.07-.14-.01-.04-.03-.08-.05-.15-.22-.61-.43-1.22-.62-1.85-.71-2.41-1.02-4.9-1.52-7.36-.58-2.82-1.34-5.59-2.35-8.27-.38-1.01-.77-2.02-1.12-3.05-.46,1.37-1.23,2.87-1.51,3.49-.79,1.71-1.8,3.33-3.09,4.71-2.21,2.37-3.2,2.92-3.49,6.31-.04,.45-.08,.9-.11,1.37,.8,.71,1.66,1.36,2.58,1.9,.76,.45,1.55,.85,2.3,1.31,.14,.08,.27,.17,.41,.26,.57,.83,1.11,1.67,1.7,2.48,.41,.57,.85,1.12,1.27,1.68,0,0,.11,.15,.15,.22,.16,.23,.31,.47,.46,.71,.42,.69,.78,1.41,1.14,2.13-.04,.2-.06,.4-.06,.61-.03,3.2-.8,6.1-1.58,9.43-.08,.32-.15,.64-.24,.96-.04,.13-.23,.56-.22,.55-.1,.18-.2,.36-.29,.54-.01,.02-.02,.04-.03,.06l-.03,.03c-.14,.14-.28,.28-.42,.42-.07,.06-.25,.21-.33,.26-.2,.13-.41,.24-.62,.35,.11-.07-.57,.21-.68,.25-1.47,.47-3.21,2.54-2.71,4.14,.48,1.54,1.97,2.41,3.63,2.33,4.79-.25,6.44-3.94,7.43-7.43,.95-3.33,1.75-6.9,1.95-10.41,.09-.08,.18-.16,.26-.25,1.06-1.2,1.2-3.16,0-4.34Z"/>
        <path class="cls-5" d="M85.19,64.07c-.28,.07-.58,.14-.87,.21,.28-.07,.57-.14,.87-.21Z"/>
        <path class="cls-4" d="M84.65,63.48c-1.11,0-2.22,.07-3.32,.2-2.31,.35-4.56,.98-6.73,1.86-3.23,1.41-6.21,3.31-9.01,5.44-2.05,1.61-3.96,3.39-6.11,4.88-1.9,1.32-3.91,2.49-5.77,3.87-.92,.74-1.79,1.55-2.55,2.46-.5,.71-.93,1.47-1.38,2.22-.62,1.05-1.31,2.05-2.11,2.99,.21,3.25,1.21,8.4,5.11,12.6-.41-.45,1.52-4.17,1.82-4.74,.21-.41,.43-.8,.66-1.2,.17,.18,.34,.37,.52,.55,1.37,2.77,3.73,7.94,3.73,10.61,1.01-.75,1.89-1.71,2.65-2.77,.01,.06,.02,.11,.03,.17,0,.25,.01,.5,.02,.76,0,.04,.01,.07,.02,.11,2.33-1.96,5.33-4.69,7.9-7.65,2.77-3.19,4.03-7.86,5.36-11.77,1.23-3.62,2.44-7.39,3.88-10.98,.7-1.74,1.37-3.75,2.44-5.3,1.05-1.54,2.69-2.73,4.11-3.9,0,0-1.07-.39-1.27-.39Z"/>
        <path class="cls-2" d="M93.35,62.07c-4.12,.37-8.18,1.45-11.93,3.21-6.51,3.07-9.04,10.92-15.35,14.34-5.66,3.07-12.81,4.4-17.63,8.89-.83,.77-1.84,1.89-1.45,3.13-1.15-3.16-1.84-7.44-.51-10.62,1.2-2.88,3.72-4.48,6.38-5.83,7.09-3.59,13.59-11.66,19.93-16.42,.61-.46,10.37-4.73,10.39-4.72,1.89,2.04,4.89,3.08,7.02,4.91,.45,.38,2.35,1.69,2.89,2.37,.21,.26,.28,.51,.26,.74Z"/>
        <path class="cls-3" d="M83.18,54.06c-2.22,3.19-6.13,4.43-9.38,6.25-3.94,2.2-6.79,5.84-10,8.93-3.32,3.2-7.37,4.82-11.06,7.41-2.69,1.89-6.29,4.19-8.01,7.08-1.96-5.78,1.61-11.28,5.6-14.84,4.39-3.91,10.22-6.71,14.18-11.09,.16-.18,.32-.35,.47-.53,8.76-10.08-7.37-14.69-7.37-14.69l-4.12-1.93c.7-.86,1.88-1.28,3.01-1.19,.27,.02,1.69,.49,2.63,.75,.34,.13,5.06,2.01,5.06,2.01l-2.53-1.72c5.58,.22,10.71,1.88,14.96,5.72,2.23,2.02,3.7,4.58,5.74,6.76,.03,.04,.05,.09,.08,.13,.22,.34,.47,.65,.74,.94Z"/>
        <path class="cls-3" d="M173.24,122.47c.62,.1,1.54,.12,2.69-.19h0c-1.26-.67-1.92-1.44-1.92-1.44,0,0,.25-.54,.95-.24-.1-.04-.26-.51-.36-.62-.17-.18-.38-.31-.6-.42-.49-.24-1.1-.35-1.67-.38-1.92-.12-3.78,.29-5.65,.67-.13,.03-.27,.05-.38,.13-.77,.49,.55,1.39,.91,1.62,.71,.44,1.27,1.06,2.02,1.44,1.64,.83,4.03,.79,5.81-.02-.61-.04-1.31-.25-1.85-.44,.02-.03,.05-.06,.07-.09Z"/>
        <path class="cls-3" d="M47.3,50.71s4.42-1.02,7.51,1.17c1.29-2.19,2.45-2.56,3.61-1.41,1.16,1.15-2.06,2.7-2.06,2.7,0,0,3.89,1.37,3.74,4.1-.26,4.58-4.66,6.24-8.12,8.13-1.97,1.07-3.84,1.9-5.3,3.7-1.74,2.15-2.21,4.49-2.36,7.16,1.36-2.22,5.04-5.23,6.9-6.89,4.39-3.91,9.34-7.19,13.3-11.56,.16-.18,.32-.35,.47-.53,8.76-10.08-7.37-14.69-7.37-14.69l-2.86-.8c-1.16-.32-2.34-.51-3.54-.56-1.53-.06-3.1-.08-4.58,.06-.79,.08-4.68,1.42-4.74,2.73,1.71,.66,5.14,2.5,5.42,6.7Z"/>
        <polygon class="cls-4" points="48.09 57.27 51.15 55.87 52.8 56.02 51.24 57.44 48.09 57.27"/>
      </g>
      <g>
        <path class="cls-4" d="M51.63,137.36c-1.57,.07-1.87,.31-1.87,1.98v11.7c0,1.44,.23,1.64,1.45,1.64h1.13c2.13,0,3.74-2.07,4.2-5.14h.53c-.05,.53-.07,1.24-.07,2.02,0,.72,.02,2.2,.16,3.64-1.56-.07-3.72-.07-5.28-.07s-4.99,0-7.5,.07v-.46c1.46-.07,1.72-.3,1.72-1.98v-11.43c0-1.67-.27-1.91-1.72-1.98v-.46c.78,.05,2.16,.07,3.63,.07,1.34,0,2.77-.02,3.62-.07v.46Z"/>
        <path class="cls-4" d="M63.01,151.07c0,1.28,.39,1.65,1.47,1.65v.49c-.58-.02-1.88-.09-3.08-.09s-2.58,.07-3.18,.09v-.49c1.07,0,1.47-.37,1.47-1.65v-7.27c0-1.38-.36-2.04-1.47-2.04v-.49c.48,.05,.97,.08,1.43,.08,1.28,0,2.4-.1,3.36-.33v10.03Zm.28-13.95c0,1.11-.82,1.78-2.09,1.78s-2.1-.67-2.1-1.78,.81-1.78,2.1-1.78,2.09,.68,2.09,1.78Z"/>
        <path class="cls-4" d="M77.07,147.26c0,4.57-2.33,6.28-5.65,6.28s-5.63-1.71-5.63-6.28,2.33-6.29,5.63-6.29,5.65,1.74,5.65,6.29Zm-7.81,0c0,4.13,.91,5.81,2.16,5.81s2.17-1.69,2.17-5.81-.91-5.83-2.17-5.83-2.16,1.71-2.16,5.83Z"/>
        <path class="cls-4" d="M89.58,141.87c.5,.58,.72,1.43,.72,3v6.21c0,1.28,.41,1.65,1.47,1.65v.49c-.58-.02-1.91-.09-3.04-.09-1.18,0-2.43,.07-2.99,.09v-.49c.91,0,1.24-.37,1.24-1.65v-7.17c0-1.14-.27-1.92-1.42-1.92-1.29,0-2.29,1.14-2.29,2.66v6.42c0,1.28,.33,1.65,1.24,1.65v.49c-.54-.02-1.73-.09-2.86-.09-1.18,0-2.57,.07-3.17,.09v-.49c1.07,0,1.47-.37,1.47-1.65v-7.27c0-1.38-.36-2.04-1.47-2.04v-.49c.48,.05,.97,.08,1.43,.08,1.28,0,2.4-.1,3.36-.33v2.08c.77-1.56,2.14-2.15,3.76-2.15,1.31,0,2.07,.36,2.54,.9Z"/>
        <path class="cls-4" d="M111.09,138.06c.17,.15,.33,.23,.46,.23,.32,0,.48-.44,.58-1.4h.53c-.07,1.18-.09,2.77-.09,5.58h-.53c-.21-1.85-.54-3.21-1.73-4.17-.75-.72-1.92-1.14-3.01-1.14-3.36,0-4.77,3.87-4.77,7.92,0,5.54,1.58,7.99,4.42,7.99,.73,0,1.28-.22,1.63-.45,.43-.3,.56-.64,.56-1.21v-2.26c0-2.09-.39-2.42-2.33-2.5v-.46c.94,.05,2.7,.08,3.94,.08s2.4-.03,3.09-.08v.46c-.88,.08-1.05,.28-1.05,1.98v4.57h-.46c-.03-.53-.23-1.32-.68-1.32-.22,0-.5,.07-1.24,.47-1.13,.65-2.4,1.17-3.78,1.17-5.37,0-8.22-3.08-8.22-8.29s3.46-8.68,8.33-8.68c2.09,0,3.29,.69,4.34,1.5Z"/>
        <path class="cls-4" d="M124.92,143.1c0,1.13-.71,1.93-1.79,1.93s-1.72-.58-1.72-1.48c0-.84,.44-1.4,1.01-1.78-.09-.04-.19-.06-.3-.06-.1,0-.21,.02-.33,.06-1.22,.2-2.09,1.73-2.09,2.97v6.1c0,1.49,.71,1.89,2.16,1.89v.49c-.71-.02-2.2-.09-3.65-.09-1.26,0-2.66,.07-3.3,.09v-.49c1.07,0,1.47-.37,1.47-1.65v-7.27c0-1.38-.36-2.04-1.47-2.04v-.49c.48,.05,.97,.08,1.43,.08,1.28,0,2.4-.1,3.36-.33v2.15c.55-1.24,1.67-2.21,3.12-2.21s2.1,1.09,2.1,2.13Z"/>
        <path class="cls-4" d="M136.91,147.26c0,4.57-2.33,6.28-5.65,6.28s-5.63-1.71-5.63-6.28,2.33-6.29,5.63-6.29,5.65,1.74,5.65,6.29Zm-7.81,0c0,4.13,.91,5.81,2.16,5.81s2.17-1.69,2.17-5.81-.91-5.83-2.17-5.83-2.16,1.71-2.16,5.83Z"/>
        <path class="cls-4" d="M149.79,150.71c0,1.37,.36,2.02,1.47,2.02v.49c-.48-.04-.97-.07-1.43-.07-1.28,0-2.41,.09-3.36,.31v-2.08c-.75,1.54-2.13,2.15-3.71,2.15-1.27,0-2.03-.37-2.52-.91-.5-.57-.69-1.46-.69-2.98v-5.83c0-1.38-.36-2.04-1.47-2.04v-.49c.48,.05,.97,.08,1.43,.08,1.28,0,2.4-.1,3.36-.33v9.55c0,1.15,.22,1.93,1.37,1.93,1.23,0,2.24-1.14,2.24-2.66v-6.05c0-1.38-.36-2.04-1.47-2.04v-.49c.48,.05,.97,.08,1.43,.08,1.28,0,2.41-.1,3.36-.33v9.67Z"/>
        <path class="cls-4" d="M164.64,146.71c0,4.48-2.1,6.82-5.33,6.82-.95,0-1.79-.26-2.36-.74v2.31c0,1.43,.77,1.8,2.07,1.8v.48c-.78-.02-2.31-.1-3.87-.1-1.13,0-2.33,.08-2.9,.1v-.48c1.01,0,1.38-.35,1.38-1.58v-11.51c0-1.38-.36-2.03-1.47-2.03v-.48c.48,.04,.97,.07,1.43,.07,1.28,0,2.41-.09,3.36-.33v2.16c.64-1.46,1.94-2.24,3.57-2.24,2.34,0,4.12,1.91,4.12,5.75Zm-3.48,.45c0-3.91-.79-5.21-1.99-5.21-1.01,0-1.95,.73-2.23,2.04v8.29c.34,.39,.84,.62,1.46,.62,2.05,0,2.76-2.2,2.76-5.74Z"/>
      </g>
      <rect class="cls-5" x="44.17" y="131.28" width="120.57" height="1.18"/>
      <rect class="cls-5" x="129.49" y="161.08" width="35.26" height="1.18"/>
      <rect class="cls-5" x="44.17" y="161.08" width="35.26" height="1.18"/>
      <g>
        <path class="cls-4" d="M82.88,160.64c.15,.1,.23,.23,.23,.38,0,.18-.11,.28-.26,.28s-.27-.09-.27-.25c0-.15,.1-.24,.21-.27-.07-.12-.26-.21-.44-.21-.33,0-.71,.28-.71,1.21,0,.87,.33,1.17,.71,1.17,.26,0,.54-.13,.71-.5l.1,.03c-.1,.32-.38,.68-.91,.68-.61,0-1.09-.49-1.09-1.3s.47-1.37,1.15-1.37c.21,0,.41,.06,.57,.15Z"/>
        <path class="cls-4" d="M85.79,161.83c0,.94-.5,1.33-1.12,1.33s-1.12-.39-1.12-1.33,.49-1.34,1.12-1.34,1.12,.39,1.12,1.34Zm-1.76,0c0,.88,.27,1.23,.64,1.23s.64-.35,.64-1.23-.26-1.24-.64-1.24-.64,.36-.64,1.24Z"/>
        <path class="cls-4" d="M89.93,162.64c0,.27,.1,.35,.38,.35v.1c-.11,0-.38-.02-.59-.02s-.45,.01-.55,.02v-.1c.23,0,.32-.08,.32-.35v-1.42c0-.31-.02-.57-.38-.57-.38,0-.66,.39-.66,.89v1.1c0,.27,.1,.35,.37,.35v.1c-.11,0-.37-.02-.59-.02s-.45,.01-.55,.02v-.1c.24,0,.32-.08,.32-.35v-1.42c0-.31-.02-.57-.37-.57-.38,0-.66,.39-.66,.9v1.09c0,.27,.09,.35,.33,.35v.1c-.1,0-.34-.02-.55-.02s-.48,.01-.59,.02v-.1c.27,0,.38-.08,.38-.35v-1.54c0-.3-.09-.43-.38-.43v-.1c.1,0,.21,.01,.3,.01,.19,0,.37-.02,.51-.07v.58c.17-.42,.49-.59,.81-.59,.23,0,.4,.07,.51,.18,.09,.09,.13,.22,.15,.39,.18-.44,.51-.58,.82-.58,.23,0,.4,.07,.51,.18,.12,.14,.16,.34,.16,.65v1.32Z"/>
        <path class="cls-4" d="M92.99,161.71c0,.71-.33,1.45-1.13,1.45-.26,0-.46-.11-.58-.26v.63c0,.28,.18,.36,.47,.36v.1c-.14,0-.42-.02-.71-.02-.21,0-.43,.02-.53,.02v-.1c.23,0,.32-.07,.32-.3v-2.49c0-.3-.09-.43-.37-.43v-.1c.1,0,.21,.01,.3,.01,.19,0,.37-.02,.51-.07v.52c.15-.34,.44-.54,.79-.54,.52,0,.92,.42,.92,1.22Zm-.48,.07c0-.78-.2-1.14-.57-1.14-.29,0-.55,.2-.65,.62v1.47c.09,.18,.26,.32,.52,.32,.55,0,.7-.57,.7-1.27Z"/>
        <path class="cls-4" d="M95.03,160.67c.16,.16,.2,.34,.2,.69v1.37c0,.16,.04,.23,.15,.23,.09,0,.15-.04,.22-.1l.06,.09c-.14,.1-.24,.18-.45,.18-.34,0-.42-.2-.42-.44-.21,.35-.52,.44-.76,.44-.33,0-.63-.16-.63-.55s.3-.56,.79-.77c.33-.14,.59-.22,.59-.42v-.31c0-.41-.2-.49-.46-.49-.17,0-.38,.03-.49,.17,.12,.04,.23,.14,.23,.3,0,.17-.11,.27-.29,.27s-.27-.13-.27-.31c0-.14,.1-.26,.23-.35,.14-.09,.37-.18,.69-.18,.28,0,.48,.07,.6,.18Zm-.25,.92c-.05,.08-.16,.13-.47,.28-.22,.1-.48,.24-.48,.62,0,.29,.17,.43,.39,.43,.2,0,.39-.1,.56-.37v-.97Z"/>
        <path class="cls-4" d="M97.97,160.67c.12,.14,.17,.31,.17,.65v1.32c0,.27,.1,.35,.38,.35v.1c-.11,0-.38-.02-.59-.02s-.45,.01-.55,.02v-.1c.24,0,.33-.08,.33-.35v-1.42c0-.31-.04-.57-.4-.57-.41,0-.69,.39-.69,.9v1.09c0,.27,.09,.35,.33,.35v.1c-.1,0-.34-.02-.55-.02s-.48,.01-.59,.02v-.1c.27,0,.37-.08,.37-.35v-1.54c0-.3-.09-.43-.37-.43v-.1c.1,0,.21,.01,.3,.01,.19,0,.37-.02,.51-.07v.58c.17-.44,.5-.59,.84-.59,.25,0,.41,.07,.52,.18Z"/>
        <path class="cls-4" d="M100.96,160.56v.1c-.12,.01-.23,.09-.32,.34l-.81,2.12-.17,.42c-.07,.17-.13,.28-.21,.35-.11,.1-.27,.12-.38,.12-.19,0-.34-.1-.34-.3,0-.15,.1-.26,.26-.26,.14,0,.25,.08,.25,.23,0,.11-.07,.18-.13,.22h.03c.18,0,.31-.11,.42-.38l.18-.45-.9-2.15c-.13-.26-.25-.28-.33-.28v-.1c.14,.02,.3,.03,.48,.03,.2,0,.44-.02,.64-.03v.1c-.19,0-.34,0-.34,.17,0,.06,.02,.14,.06,.25l.59,1.47,.54-1.43c.03-.09,.05-.17,.05-.22,0-.16-.12-.22-.37-.24v-.1c.18,0,.26,.01,.42,.01s.27,0,.38-.01Z"/>
        <path class="cls-4" d="M103.69,160.56v.1h-.73v1.9c0,.31,.12,.42,.31,.42s.34-.14,.45-.52l.1,.02c-.07,.38-.24,.68-.64,.68-.22,0-.36-.05-.46-.16-.14-.15-.19-.34-.19-.69v-1.65h-.47v-.1h.47v-.76c.16,0,.32-.02,.44-.07v.82h.73Z"/>
        <path class="cls-4" d="M105.58,160.67c.16,.16,.2,.34,.2,.69v1.37c0,.16,.04,.23,.15,.23,.09,0,.15-.04,.22-.1l.06,.09c-.14,.1-.24,.18-.45,.18-.34,0-.42-.2-.42-.44-.21,.35-.52,.44-.76,.44-.33,0-.62-.16-.62-.55s.3-.56,.79-.77c.33-.14,.59-.22,.59-.42v-.31c0-.41-.2-.49-.46-.49-.17,0-.37,.03-.49,.17,.12,.04,.23,.14,.23,.3,0,.17-.11,.27-.29,.27s-.27-.13-.27-.31c0-.14,.1-.26,.23-.35,.14-.09,.37-.18,.69-.18,.28,0,.48,.07,.6,.18Zm-.25,.92c-.05,.08-.16,.13-.47,.28-.22,.1-.48,.24-.48,.62,0,.29,.17,.43,.39,.43,.2,0,.39-.1,.56-.37v-.97Z"/>
        <path class="cls-4" d="M108.08,162.55c.31,0,.58,.11,.58,.45,0,.44-.42,1.01-1.38,1.01-.5,0-.99-.15-.99-.45,0-.24,.31-.46,.62-.6h-.02c-.17,0-.49-.04-.49-.38,0-.21,.14-.41,.62-.62-.28-.1-.46-.33-.46-.7,0-.54,.39-.78,.91-.78,.13,0,.24,.01,.35,.04,.03-.18,.1-.34,.17-.44,.08-.1,.19-.17,.34-.17,.17,0,.26,.12,.26,.26s-.1,.23-.24,.23c-.18,0-.23-.12-.26-.31-.05,.04-.09,.12-.13,.24-.02,.06-.04,.12-.05,.2,.29,.1,.47,.34,.47,.71,0,.54-.4,.78-.91,.78-.13,0-.25-.02-.36-.05-.22,.12-.42,.24-.42,.39,0,.1,.07,.16,.24,.16h1.15Zm.24,.69c0-.18-.07-.28-.37-.28h-.92c-.21,.11-.33,.31-.33,.5,0,.33,.39,.47,.72,.47,.42,0,.91-.22,.91-.7Zm-1.3-1.97c0,.53,.17,.69,.45,.69s.45-.16,.45-.69-.18-.69-.45-.69-.45,.17-.45,.69Z"/>
        <path class="cls-4" d="M109.66,162.64c0,.27,.1,.35,.38,.35v.1c-.11,0-.37-.02-.6-.02s-.48,.01-.6,.02v-.1c.27,0,.38-.08,.38-.35v-2.81c0-.29-.09-.44-.38-.44v-.1c.1,0,.21,.01,.3,.01,.19,0,.37-.02,.51-.07v3.4Z"/>
        <path class="cls-4" d="M111.1,162.64c0,.27,.1,.35,.38,.35v.1c-.11,0-.37-.02-.6-.02s-.48,.01-.6,.02v-.1c.27,0,.37-.08,.37-.35v-1.54c0-.3-.09-.43-.37-.43v-.1c.1,0,.21,.01,.3,.01,.19,0,.37-.02,.51-.07v2.13Zm.06-3c0,.17-.14,.31-.31,.31s-.31-.14-.31-.31,.14-.31,.31-.31,.31,.14,.31,.31Z"/>
        <path class="cls-4" d="M113.9,160.67c.12,.14,.17,.31,.17,.65v1.32c0,.27,.1,.35,.38,.35v.1c-.11,0-.38-.02-.59-.02s-.45,.01-.55,.02v-.1c.24,0,.33-.08,.33-.35v-1.42c0-.31-.04-.57-.4-.57-.41,0-.69,.39-.69,.9v1.09c0,.27,.09,.35,.33,.35v.1c-.1,0-.34-.02-.55-.02s-.48,.01-.59,.02v-.1c.27,0,.38-.08,.38-.35v-1.54c0-.3-.09-.43-.38-.43v-.1c.1,0,.21,.01,.3,.01,.19,0,.37-.02,.51-.07v.58c.17-.44,.5-.59,.84-.59,.25,0,.41,.07,.52,.18Z"/>
        <path class="cls-4" d="M116.78,162.5c-.11,.33-.43,.66-.92,.66-.71,0-1.13-.52-1.13-1.27,0-.87,.44-1.4,1.11-1.4,.58,0,.92,.34,.92,1.08h-1.54c-.01,.09-.02,.2-.02,.31,0,.68,.38,1.07,.75,1.07,.3,0,.55-.13,.73-.49l.1,.04Zm-1.57-1.02h1.07c.02-.49-.14-.9-.46-.9-.29,0-.55,.28-.61,.9Z"/>
        <path class="cls-4" d="M118.97,161.08c.17-.44,.5-.59,.84-.59,.25,0,.41,.07,.52,.18,.12,.14,.17,.31,.17,.65v1.32c0,.27,.1,.35,.38,.35v.1c-.11,0-.38-.02-.59-.02s-.45,.01-.55,.02v-.1c.24,0,.33-.08,.33-.35v-1.42c0-.31-.05-.57-.4-.57-.4,0-.69,.37-.69,.89v1.1c0,.27,.09,.35,.32,.35v.1c-.1,0-.33-.02-.55-.02s-.48,.01-.59,.02v-.1c.27,0,.37-.08,.37-.35v-2.81c0-.3-.09-.44-.37-.44v-.1c.1,.01,.21,.02,.3,.02,.19,0,.37-.02,.51-.07v1.85Z"/>
        <path class="cls-4" d="M123.21,162.5c-.11,.33-.43,.66-.92,.66-.71,0-1.13-.52-1.13-1.27,0-.87,.44-1.4,1.11-1.4,.58,0,.92,.34,.92,1.08h-1.54c-.01,.09-.02,.2-.02,.31,0,.68,.38,1.07,.75,1.07,.3,0,.55-.13,.73-.49l.1,.04Zm-1.57-1.02h1.07c.02-.49-.14-.9-.46-.9-.29,0-.55,.28-.61,.9Z"/>
        <path class="cls-4" d="M125.54,160.88c0,.17-.11,.31-.28,.31-.14,0-.26-.09-.26-.25,0-.12,.08-.22,.17-.27-.02-.03-.06-.04-.1-.04-.41,0-.68,.56-.68,.92v1.05c0,.32,.2,.4,.52,.4v.1c-.15,0-.45-.02-.76-.02-.22,0-.47,.01-.58,.02v-.1c.27,0,.38-.08,.38-.35v-1.54c0-.3-.09-.43-.38-.43v-.1c.1,0,.21,.01,.3,.01,.19,0,.37-.02,.51-.07v.61c.1-.28,.37-.63,.71-.63,.26,0,.45,.17,.45,.39Z"/>
        <path class="cls-4" d="M127.77,162.5c-.11,.33-.43,.66-.92,.66-.71,0-1.13-.52-1.13-1.27,0-.87,.44-1.4,1.11-1.4,.58,0,.92,.34,.92,1.08h-1.54c-.01,.09-.02,.2-.02,.31,0,.68,.38,1.07,.75,1.07,.3,0,.55-.13,.73-.49l.1,.04Zm-1.57-1.02h1.07c.02-.49-.14-.9-.46-.9-.29,0-.55,.28-.61,.9Z"/>
      </g>
    </g>
  </g>
</svg>