<?xml version="1.0" encoding="UTF-8"?>
<svg id="Capa_2" data-name="Capa 2" xmlns="http://www.w3.org/2000/svg" viewBox="0 0 208.02 208.02">
  <defs>
    <style>
      .cls-1 {
        fill: #fff;
      }

      .cls-2 {
        fill: #a1a1a1;
      }

      .cls-3 {
        fill: #a3a3a3;
      }

      .cls-4 {
        fill: #8dc63f;
      }

      .cls-5 {
        fill: #f4c92d;
      }

      .cls-6 {
        fill: #ef4136;
      }

      .cls-7 {
        fill: #838383;
      }
    </style>
  </defs>
  <g id="Layer_1" data-name="Layer 1">
    <rect class="cls-3" width="208.02" height="208.02"/>
    <g>
      <g>
        <path class="cls-2" d="M42.21,151.8h5.01v6.26c-1.36,.47-2.86,.7-4.49,.7-1.79,0-3.17-.52-4.15-1.56-.98-1.04-1.46-2.52-1.46-4.44s.53-3.33,1.6-4.38c1.07-1.04,2.57-1.56,4.5-1.56,.73,0,1.42,.07,2.07,.21,.65,.14,1.21,.31,1.7,.52l-.99,2.46c-.84-.41-1.76-.62-2.76-.62-.92,0-1.62,.3-2.12,.89-.5,.6-.75,1.45-.75,2.55s.23,1.91,.68,2.48c.45,.57,1.11,.85,1.96,.85,.47,0,.89-.04,1.29-.13v-1.82h-2.07v-2.42Z"/>
        <path class="cls-2" d="M52.73,154.38v4.23h-3.14v-11.61h3.8c3.16,0,4.73,1.14,4.73,3.43,0,1.34-.66,2.39-1.97,3.12l3.38,5.06h-3.56l-2.46-4.23h-.79Zm0-2.36h.59c1.1,0,1.64-.48,1.64-1.45,0-.8-.54-1.2-1.61-1.2h-.62v2.65Z"/>
        <path class="cls-2" d="M71.46,152.78c0,1.95-.48,3.44-1.44,4.45-.96,1.02-2.36,1.53-4.21,1.53s-3.22-.51-4.19-1.53-1.46-2.51-1.46-4.46,.48-3.41,1.45-4.43c.97-1.02,2.37-1.53,4.21-1.53s3.25,.51,4.2,1.52c.95,1.01,1.43,2.5,1.43,4.46Zm-7.99,0c0,2.24,.78,3.37,2.34,3.37,.79,0,1.38-.27,1.77-.82,.38-.54,.58-1.39,.58-2.55s-.19-2.02-.58-2.57c-.39-.55-.97-.83-1.74-.83-1.57,0-2.36,1.13-2.36,3.4Z"/>
        <path class="cls-2" d="M86.1,158.6h-3.71l-1.11-5.06c-.05-.21-.14-.63-.25-1.26-.11-.63-.2-1.16-.25-1.58-.04,.34-.11,.77-.21,1.28s-.19,.98-.28,1.41c-.09,.43-.48,2.17-1.16,5.21h-3.71l-2.87-11.61h3.03l1.26,5.82c.29,1.29,.48,2.31,.59,3.07,.07-.54,.19-1.27,.37-2.2,.18-.93,.34-1.69,.5-2.3l1.02-4.39h2.91l.99,4.39c.17,.7,.34,1.52,.52,2.44,.17,.92,.29,1.61,.35,2.06,.07-.59,.26-1.61,.56-3.06l1.29-5.84h3.03l-2.86,11.61Z"/>
        <path class="cls-2" d="M95.58,158.6h-3.14v-9.05h-2.84v-2.57h8.8v2.57h-2.83v9.05Z"/>
        <path class="cls-2" d="M110.02,158.6h-3.15v-4.73h-3.65v4.73h-3.15v-11.61h3.15v4.3h3.65v-4.3h3.15v11.61Z"/>
        <path class="cls-1" d="M125.18,150.69c0,1.3-.38,2.3-1.15,3.01-.77,.71-1.85,1.06-3.26,1.06h-.88v3.85h-3.14v-11.61h4.02c1.47,0,2.57,.32,3.3,.96,.74,.64,1.1,1.55,1.1,2.73Zm-5.29,1.51h.57c.47,0,.85-.13,1.12-.4,.28-.27,.42-.63,.42-1.1,0-.78-.43-1.18-1.3-1.18h-.81v2.67Z"/>
        <path class="cls-1" d="M127.03,158.6v-11.61h3.14v9.08h4.47v2.53h-7.61Z"/>
        <path class="cls-1" d="M143.62,158.6l-.57-2.18h-3.77l-.59,2.18h-3.45l3.79-11.66h4.19l3.84,11.66h-3.43Zm-1.22-4.75l-.5-1.91c-.12-.42-.26-.97-.42-1.64-.17-.67-.28-1.15-.33-1.45-.05,.27-.14,.71-.28,1.33-.14,.62-.45,1.84-.93,3.66h2.47Z"/>
        <path class="cls-1" d="M153.48,149.4c-.75,0-1.33,.31-1.75,.92-.42,.61-.63,1.45-.63,2.53,0,2.23,.85,3.35,2.55,3.35,.51,0,1.01-.07,1.49-.21s.97-.32,1.45-.52v2.65c-.97,.43-2.06,.64-3.29,.64-1.75,0-3.1-.51-4.03-1.53-.93-1.02-1.4-2.49-1.4-4.41,0-1.2,.23-2.26,.68-3.17,.45-.91,1.1-1.61,1.95-2.1,.85-.49,1.85-.74,3-.74,1.26,0,2.45,.27,3.6,.82l-.96,2.47c-.43-.2-.86-.37-1.29-.51-.43-.14-.89-.21-1.38-.21Z"/>
        <path class="cls-1" d="M165.75,158.6h-6.89v-11.61h6.89v2.52h-3.76v1.83h3.48v2.52h-3.48v2.19h3.76v2.56Z"/>
      </g>
      <g>
        <path class="cls-1" d="M75.36,168.71l1.55-2.9h.73l-1.94,3.55v2.25h-.68v-2.22l-1.93-3.59h.74l1.54,2.9Z"/>
        <path class="cls-1" d="M83.48,168.71c0,.93-.23,1.66-.7,2.19-.47,.53-1.12,.8-1.96,.8s-1.51-.26-1.98-.78c-.46-.52-.7-1.26-.7-2.21s.23-1.68,.7-2.2c.47-.52,1.13-.78,1.99-.78s1.48,.26,1.95,.79c.47,.53,.7,1.26,.7,2.19Zm-4.63,0c0,.79,.17,1.38,.5,1.79,.33,.41,.82,.61,1.46,.61s1.13-.2,1.46-.61,.49-1,.49-1.79-.16-1.37-.49-1.78c-.33-.4-.81-.61-1.45-.61s-1.13,.2-1.47,.61c-.34,.41-.5,1-.5,1.77Z"/>
        <path class="cls-1" d="M89.16,165.81v3.76c0,.66-.2,1.18-.6,1.56-.4,.38-.95,.57-1.65,.57s-1.24-.19-1.62-.57-.57-.91-.57-1.57v-3.74h.67v3.79c0,.48,.13,.86,.4,1.12,.27,.26,.65,.39,1.17,.39s.87-.13,1.13-.39c.26-.26,.4-.63,.4-1.12v-3.78h.67Z"/>
        <path class="cls-1" d="M91.37,169.2v2.41h-.67v-5.81h1.59c.71,0,1.24,.14,1.58,.41s.51,.68,.51,1.23c0,.77-.39,1.29-1.17,1.56l1.58,2.61h-.8l-1.41-2.41h-1.21Zm0-.58h.93c.48,0,.83-.09,1.05-.28,.22-.19,.33-.47,.33-.85s-.11-.66-.34-.83-.59-.25-1.09-.25h-.88v2.22Z"/>
        <path class="cls-1" d="M99.62,171.62h-.67v-5.21h-1.84v-.6h4.35v.6h-1.84v5.21Z"/>
        <path class="cls-1" d="M105.98,171.62l-.72-1.85h-2.33l-.72,1.85h-.68l2.3-5.83h.57l2.28,5.83h-.7Zm-.93-2.45l-.67-1.8c-.09-.23-.18-.51-.27-.84-.06,.25-.14,.53-.25,.84l-.68,1.8h1.88Z"/>
        <path class="cls-1" d="M110.03,168.57h1.97v2.82c-.31,.1-.62,.17-.94,.22-.32,.05-.69,.07-1.1,.07-.88,0-1.56-.26-2.05-.78-.49-.52-.73-1.26-.73-2.2,0-.6,.12-1.13,.36-1.59,.24-.45,.59-.8,1.05-1.04,.46-.24,.99-.36,1.6-.36s1.2,.11,1.73,.34l-.26,.6c-.52-.22-1.03-.33-1.51-.33-.71,0-1.26,.21-1.66,.63-.4,.42-.6,1-.6,1.75,0,.78,.19,1.38,.57,1.78s.94,.61,1.69,.61c.4,0,.8-.05,1.18-.14v-1.79h-1.3v-.6Z"/>
        <path class="cls-1" d="M113.4,171.62v-5.81h.67v5.19h2.56v.61h-3.24Z"/>
        <path class="cls-1" d="M117.62,171.62v-5.81h.67v5.81h-.67Z"/>
        <path class="cls-1" d="M124.42,171.62h-.77l-3.17-4.87h-.03c.04,.57,.06,1.1,.06,1.57v3.3h-.62v-5.81h.76l3.16,4.85h.03c0-.07-.02-.3-.04-.69-.02-.39-.03-.67-.02-.83v-3.33h.63v5.81Z"/>
        <path class="cls-1" d="M129.25,171.62h-3.24v-5.81h3.24v.6h-2.56v1.87h2.41v.6h-2.41v2.14h2.56v.6Z"/>
      </g>
      <path class="cls-1" d="M110.7,95.31l13.59-12.44c2.21-2.02,2.07-5.55-.3-7.39h0c-1.84-1.43-4.45-1.34-6.19,.22l-18.69,16.74,11.59,2.86Z"/>
      <g>
        <path class="cls-1" d="M63.73,102.06c.64-5.24,2.49-10.36,5.34-14.8,2.85-4.44,6.74-8.25,11.24-11.01l16.58-10.16,.8,.39c2.68,1.31,4.27,2.93,4.88,4.97,.67,2.24,.09,4.78-1.82,7.97l-.11,.18-9.25,9.12,19.59,4.84,17.18-15.72c1.44-1.31,3.3-2.04,5.24-2.04s3.66,.67,5.07,1.88c1.61,1.39,2.56,3.32,2.68,5.44,.12,2.12-.6,4.15-2.04,5.71l-20.69,22.49c-2.14,2.33-5.18,3.66-8.34,3.66-.32,0-.65-.01-.97-.04l-19.64-1.69c-.32-.03-.64-.04-.96-.04-2.64,0-5.2,.94-7.21,2.64l-21.48,18.19,3.9-31.98Z"/>
        <path class="cls-3" d="M96.98,67.94c5.02,2.45,5.24,5.85,2.37,10.65l-11.18,11.02,23.26,5.74,17.82-16.31c1.17-1.07,2.66-1.61,4.15-1.61,1.43,0,2.85,.49,4.01,1.49h0c2.63,2.27,2.86,6.26,.51,8.81l-20.69,22.49c-1.85,2.01-4.44,3.14-7.15,3.14-.28,0-.56-.01-.83-.04l-19.64-1.69c-.37-.03-.73-.05-1.1-.05-3.01,0-5.94,1.07-8.26,3.03l-18.31,15.51,3.4-27.86c1.24-10.19,7.07-19.26,15.82-24.62l15.82-9.7h0Zm-.18-3.71l-1.52,.93-15.82,9.7c-4.71,2.89-8.78,6.87-11.76,11.52-2.99,4.65-4.92,10-5.59,15.49l-3.4,27.86-1,8.24,6.34-5.37,18.31-15.51c1.72-1.46,3.91-2.26,6.16-2.26,.27,0,.55,.01,.82,.03l19.64,1.69c.37,.03,.74,.05,1.11,.05,3.61,0,7.09-1.53,9.54-4.19l20.7-22.49c1.74-1.89,2.61-4.34,2.47-6.9-.15-2.56-1.3-4.9-3.25-6.57-1.7-1.47-3.88-2.28-6.13-2.28-2.35,0-4.61,.88-6.34,2.46l-16.54,15.13-15.93-3.93,7.04-6.94,.3-.29,.21-.36c2.13-3.56,2.78-6.6,1.98-9.27-.73-2.46-2.66-4.47-5.72-5.97l-1.61-.78h0Z"/>
      </g>
      <path class="cls-1" d="M107.75,73.31s15.92-4.71,18.67-19.37c2.74-14.66-6-20.94-4.51-30.36-14.16,9.95-28.76,20.42-14.16,49.73Z"/>
      <path class="cls-7" d="M108.03,73.91s13.91-9.07,12.35-23.9c-1.56-14.83-11.74-18.35-13-27.8-10.72,13.58-21.71,27.8,.65,51.7Z"/>
    </g>
    <g>
      <rect class="cls-6" width="208.02" height="208.02"/>
      <g>
        <g>
          <path class="cls-5" d="M42.21,151.8h5.01v6.26c-1.36,.47-2.86,.7-4.49,.7-1.79,0-3.17-.52-4.15-1.56-.98-1.04-1.46-2.52-1.46-4.44s.53-3.33,1.6-4.38c1.07-1.04,2.57-1.56,4.5-1.56,.73,0,1.42,.07,2.07,.21,.65,.14,1.21,.31,1.7,.52l-.99,2.46c-.84-.41-1.76-.62-2.76-.62-.92,0-1.62,.3-2.12,.89-.5,.6-.75,1.45-.75,2.55s.23,1.91,.68,2.48c.45,.57,1.11,.85,1.96,.85,.47,0,.89-.04,1.29-.13v-1.82h-2.07v-2.42Z"/>
          <path class="cls-5" d="M52.73,154.38v4.23h-3.14v-11.61h3.8c3.16,0,4.73,1.14,4.73,3.43,0,1.34-.66,2.39-1.97,3.12l3.38,5.06h-3.56l-2.46-4.23h-.79Zm0-2.36h.59c1.1,0,1.64-.48,1.64-1.45,0-.8-.54-1.2-1.61-1.2h-.62v2.65Z"/>
          <path class="cls-5" d="M71.46,152.78c0,1.95-.48,3.44-1.44,4.45-.96,1.02-2.36,1.53-4.21,1.53s-3.22-.51-4.19-1.53-1.46-2.51-1.46-4.46,.48-3.41,1.45-4.43c.97-1.02,2.37-1.53,4.21-1.53s3.25,.51,4.2,1.52c.95,1.01,1.43,2.5,1.43,4.46Zm-7.99,0c0,2.24,.78,3.37,2.34,3.37,.79,0,1.38-.27,1.77-.82,.38-.54,.58-1.39,.58-2.55s-.19-2.02-.58-2.57c-.39-.55-.97-.83-1.74-.83-1.57,0-2.36,1.13-2.36,3.4Z"/>
          <path class="cls-5" d="M86.1,158.6h-3.71l-1.11-5.06c-.05-.21-.14-.63-.25-1.26-.11-.63-.2-1.16-.25-1.58-.04,.34-.11,.77-.21,1.28s-.19,.98-.28,1.41c-.09,.43-.48,2.17-1.16,5.21h-3.71l-2.87-11.61h3.03l1.26,5.82c.29,1.29,.48,2.31,.59,3.07,.07-.54,.19-1.27,.37-2.2,.18-.93,.34-1.69,.5-2.3l1.02-4.39h2.91l.99,4.39c.17,.7,.34,1.52,.52,2.44,.17,.92,.29,1.61,.35,2.06,.07-.59,.26-1.61,.56-3.06l1.29-5.84h3.03l-2.86,11.61Z"/>
          <path class="cls-5" d="M95.58,158.6h-3.14v-9.05h-2.84v-2.57h8.8v2.57h-2.83v9.05Z"/>
          <path class="cls-5" d="M110.02,158.6h-3.15v-4.73h-3.65v4.73h-3.15v-11.61h3.15v4.3h3.65v-4.3h3.15v11.61Z"/>
          <path class="cls-1" d="M125.18,150.69c0,1.3-.38,2.3-1.15,3.01-.77,.71-1.85,1.06-3.26,1.06h-.88v3.85h-3.14v-11.61h4.02c1.47,0,2.57,.32,3.3,.96,.74,.64,1.1,1.55,1.1,2.73Zm-5.29,1.51h.57c.47,0,.85-.13,1.12-.4,.28-.27,.42-.63,.42-1.1,0-.78-.43-1.18-1.3-1.18h-.81v2.67Z"/>
          <path class="cls-1" d="M127.03,158.6v-11.61h3.14v9.08h4.47v2.53h-7.61Z"/>
          <path class="cls-1" d="M143.62,158.6l-.57-2.18h-3.77l-.59,2.18h-3.45l3.79-11.66h4.19l3.84,11.66h-3.43Zm-1.22-4.75l-.5-1.91c-.12-.42-.26-.97-.42-1.64-.17-.67-.28-1.15-.33-1.45-.05,.27-.14,.71-.28,1.33-.14,.62-.45,1.84-.93,3.66h2.47Z"/>
          <path class="cls-1" d="M153.48,149.4c-.75,0-1.33,.31-1.75,.92-.42,.61-.63,1.45-.63,2.53,0,2.23,.85,3.35,2.55,3.35,.51,0,1.01-.07,1.49-.21s.97-.32,1.45-.52v2.65c-.97,.43-2.06,.64-3.29,.64-1.75,0-3.1-.51-4.03-1.53-.93-1.02-1.4-2.49-1.4-4.41,0-1.2,.23-2.26,.68-3.17,.45-.91,1.1-1.61,1.95-2.1,.85-.49,1.85-.74,3-.74,1.26,0,2.45,.27,3.6,.82l-.96,2.47c-.43-.2-.86-.37-1.29-.51-.43-.14-.89-.21-1.38-.21Z"/>
          <path class="cls-1" d="M165.75,158.6h-6.89v-11.61h6.89v2.52h-3.76v1.83h3.48v2.52h-3.48v2.19h3.76v2.56Z"/>
        </g>
        <g>
          <path class="cls-1" d="M75.36,168.71l1.55-2.9h.73l-1.94,3.55v2.25h-.68v-2.22l-1.93-3.59h.74l1.54,2.9Z"/>
          <path class="cls-1" d="M83.48,168.71c0,.93-.23,1.66-.7,2.19-.47,.53-1.12,.8-1.96,.8s-1.51-.26-1.98-.78c-.46-.52-.7-1.26-.7-2.21s.23-1.68,.7-2.2c.47-.52,1.13-.78,1.99-.78s1.48,.26,1.95,.79c.47,.53,.7,1.26,.7,2.19Zm-4.63,0c0,.79,.17,1.38,.5,1.79,.33,.41,.82,.61,1.46,.61s1.13-.2,1.46-.61,.49-1,.49-1.79-.16-1.37-.49-1.78c-.33-.4-.81-.61-1.45-.61s-1.13,.2-1.47,.61c-.34,.41-.5,1-.5,1.77Z"/>
          <path class="cls-1" d="M89.16,165.81v3.76c0,.66-.2,1.18-.6,1.56-.4,.38-.95,.57-1.65,.57s-1.24-.19-1.62-.57-.57-.91-.57-1.57v-3.74h.67v3.79c0,.48,.13,.86,.4,1.12,.27,.26,.65,.39,1.17,.39s.87-.13,1.13-.39c.26-.26,.4-.63,.4-1.12v-3.78h.67Z"/>
          <path class="cls-1" d="M91.37,169.2v2.41h-.67v-5.81h1.59c.71,0,1.24,.14,1.58,.41s.51,.68,.51,1.23c0,.77-.39,1.29-1.17,1.56l1.58,2.61h-.8l-1.41-2.41h-1.21Zm0-.58h.93c.48,0,.83-.09,1.05-.28,.22-.19,.33-.47,.33-.85s-.11-.66-.34-.83-.59-.25-1.09-.25h-.88v2.22Z"/>
          <path class="cls-1" d="M99.62,171.62h-.67v-5.21h-1.84v-.6h4.35v.6h-1.84v5.21Z"/>
          <path class="cls-1" d="M105.98,171.62l-.72-1.85h-2.33l-.72,1.85h-.68l2.3-5.83h.57l2.28,5.83h-.7Zm-.93-2.45l-.67-1.8c-.09-.23-.18-.51-.27-.84-.06,.25-.14,.53-.25,.84l-.68,1.8h1.88Z"/>
          <path class="cls-1" d="M110.03,168.57h1.97v2.82c-.31,.1-.62,.17-.94,.22-.32,.05-.69,.07-1.1,.07-.88,0-1.56-.26-2.05-.78-.49-.52-.73-1.26-.73-2.2,0-.6,.12-1.13,.36-1.59,.24-.45,.59-.8,1.05-1.04,.46-.24,.99-.36,1.6-.36s1.2,.11,1.73,.34l-.26,.6c-.52-.22-1.03-.33-1.51-.33-.71,0-1.26,.21-1.66,.63-.4,.42-.6,1-.6,1.75,0,.78,.19,1.38,.57,1.78s.94,.61,1.69,.61c.4,0,.8-.05,1.18-.14v-1.79h-1.3v-.6Z"/>
          <path class="cls-1" d="M113.4,171.62v-5.81h.67v5.19h2.56v.61h-3.24Z"/>
          <path class="cls-1" d="M117.62,171.62v-5.81h.67v5.81h-.67Z"/>
          <path class="cls-1" d="M124.42,171.62h-.77l-3.17-4.87h-.03c.04,.57,.06,1.1,.06,1.57v3.3h-.62v-5.81h.76l3.16,4.85h.03c0-.07-.02-.3-.04-.69-.02-.39-.03-.67-.02-.83v-3.33h.63v5.81Z"/>
          <path class="cls-1" d="M129.25,171.62h-3.24v-5.81h3.24v.6h-2.56v1.87h2.41v.6h-2.41v2.14h2.56v.6Z"/>
        </g>
        <path class="cls-1" d="M110.7,95.31l13.59-12.44c2.21-2.02,2.07-5.55-.3-7.39h0c-1.84-1.43-4.45-1.34-6.19,.22l-18.69,16.74,11.59,2.86Z"/>
        <g>
          <path class="cls-1" d="M63.73,102.06c.64-5.24,2.49-10.36,5.34-14.8,2.85-4.44,6.74-8.25,11.24-11.01l16.58-10.16,.8,.39c2.68,1.31,4.27,2.93,4.88,4.97,.67,2.24,.09,4.78-1.82,7.97l-.11,.18-9.25,9.12,19.59,4.84,17.18-15.72c1.44-1.31,3.3-2.04,5.24-2.04s3.66,.67,5.07,1.88c1.61,1.39,2.56,3.32,2.68,5.44,.12,2.12-.6,4.15-2.04,5.71l-20.69,22.49c-2.14,2.33-5.18,3.66-8.34,3.66-.32,0-.65-.01-.97-.04l-19.64-1.69c-.32-.03-.64-.04-.96-.04-2.64,0-5.2,.94-7.21,2.64l-21.48,18.19,3.9-31.98Z"/>
          <path class="cls-6" d="M96.98,67.94c5.02,2.45,5.24,5.85,2.37,10.65l-11.18,11.02,23.26,5.74,17.82-16.31c1.17-1.07,2.66-1.61,4.15-1.61,1.43,0,2.85,.49,4.01,1.49h0c2.63,2.27,2.86,6.26,.51,8.81l-20.69,22.49c-1.85,2.01-4.44,3.14-7.15,3.14-.28,0-.56-.01-.83-.04l-19.64-1.69c-.37-.03-.73-.05-1.1-.05-3.01,0-5.94,1.07-8.26,3.03l-18.31,15.51,3.4-27.86c1.24-10.19,7.07-19.26,15.82-24.62l15.82-9.7h0Zm-.18-3.71l-1.52,.93-15.82,9.7c-4.71,2.89-8.78,6.87-11.76,11.52-2.99,4.65-4.92,10-5.59,15.49l-3.4,27.86-1,8.24,6.34-5.37,18.31-15.51c1.72-1.46,3.91-2.26,6.16-2.26,.27,0,.55,.01,.82,.03l19.64,1.69c.37,.03,.74,.05,1.11,.05,3.61,0,7.09-1.53,9.54-4.19l20.7-22.49c1.74-1.89,2.61-4.34,2.47-6.9-.15-2.56-1.3-4.9-3.25-6.57-1.7-1.47-3.88-2.28-6.13-2.28-2.35,0-4.61,.88-6.34,2.46l-16.54,15.13-15.93-3.93,7.04-6.94,.3-.29,.21-.36c2.13-3.56,2.78-6.6,1.98-9.27-.73-2.46-2.66-4.47-5.72-5.97l-1.61-.78h0Z"/>
        </g>
        <path class="cls-1" d="M107.75,73.31s15.92-4.71,18.67-19.37c2.74-14.66-6-20.94-4.51-30.36-14.16,9.95-28.76,20.42-14.16,49.73Z"/>
        <path class="cls-4" d="M108.03,73.91s13.91-9.07,12.35-23.9c-1.56-14.83-11.74-18.35-13-27.8-10.72,13.58-21.71,27.8,.65,51.7Z"/>
      </g>
    </g>
  </g>
</svg>