<?xml version="1.0" encoding="UTF-8"?>
<svg id="Capa_2" data-name="Capa 2" xmlns="http://www.w3.org/2000/svg" viewBox="0 0 208.02 208.02">
  <defs>
    <style>
      .cls-1 {
        fill: #fff;
      }

      .cls-2 {
        fill: #7d7d7d;
      }

      .cls-3 {
        fill: #a3a3a3;
      }

      .cls-4 {
        fill: #d1d3d4;
      }

      .cls-5 {
        fill: #666;
      }
    </style>
  </defs>
  <g id="Layer_1" data-name="Layer 1">
    <rect class="cls-4" width="208.02" height="208.02"/>
    <g>
      <path class="cls-3" d="M63.77,65.4c2.82-2.16,5.64-4.32,8.47-6.49,2.6-1.99,5.27-4.02,8.38-5.05,2.53-.84,5.24-.98,7.91-1.11,5.49-.27,10.98-.53,16.46-.8,4.63-.22,9.33-.44,13.85,.57,5.55,1.25,10.51,4.29,15.35,7.28,2.3,1.42,4.59,2.84,6.89,4.25,1.25,.77,2.5,1.54,3.61,2.5,1.46,1.25,2.65,2.78,3.79,4.32,2.79,3.77,5.44,7.77,6.66,12.29,1.63,6.01,.11,25.63-20.88,25.94-3.42,.05-6.98-.81-9.66-2.94-.67,3.23-3.29,5.84-6.35,7.1-3.05,1.26-6.49,1.31-9.76,.84-3.65-.53-7.69-1.63-10.8,.37-4.52,2.91-3.53,5.76-6.17,10.44-2.04,3.61-6.08,5.55-10,6.89-1.28,.44-2.91,.76-3.83-.23-1.09-1.17-.26-3.06,.62-4.41,1.59-2.42,3.15-5.88,1.07-7.9-.68-.66-1.62-.98-2.54-1.19-3.1-.69-6.43-.4-9.34-1.65-3.15-1.35-5.43-4.56-5.67-7.98-.09-1.33,.1-2.68-.22-3.98-.68-2.74-3.38-4.43-5-6.75-1.61-2.31-2.09-5.23-2.15-8.05-.18-8.07,3.42-18.45,9.3-24.28Z"/>
      <g>
        <path class="cls-5" d="M43.68,155.12h.94v-7.1h-.94v-2.08h6.02c2.68,0,3.95,1,3.95,2.76,0,1.36-.37,2.02-1.58,2.5,1.16,.32,2.13,1.18,2.13,2.74,0,2.28-1.28,3.28-4.39,3.28h-6.13v-2.1Zm4.28-4.63h.98c.86,0,1.1-.47,1.1-1.24s-.45-1.18-1.07-1.18h-1.02v2.42Zm1.29,4.63c.68,0,1.31-.52,1.31-1.39,0-.82-.47-1.42-1.36-1.42h-1.24v2.81h1.29Z"/>
        <path class="cls-5" d="M60.01,145.94c3.74,0,4.47,1.48,4.47,3.33,0,1.26-1,2.15-2.34,2.34,1.11,.16,2.11,1.13,2.11,2.29,0,.69,.1,1.1,.39,1.1,.24,0,.37-.19,.37-.52v-.53h1.08v.89c0,1.34-.56,2.58-2.36,2.58-2.11,0-3.13-1.11-3.13-3,0-1.47-.18-1.82-1.61-1.82v2.5h.98v2.13h-5.21v-2.13h.9v-7.04h-.9v-2.11h5.25Zm-1.02,4.84h.73c.94,0,1.55-.45,1.55-1.31,0-.95-.53-1.44-1.47-1.44h-.81v2.74Z"/>
        <path class="cls-5" d="M72.83,157.22v-2.11h1.53l-.34-1.1h-3.31l-.34,1.1h1.26v2.11h-5.13v-2.11h1.1l2.18-7.09h-.66v-2.08h6.2l2.86,9.17h1.13v2.11h-6.47Zm.6-5.15l-1.07-3.49-1.05,3.49h2.11Z"/>
        <path class="cls-5" d="M85.31,145.94v2.13h-1v7.01h1v2.15h-5.36v-2.15h1.02v-7.01h-1.02v-2.13h5.36Z"/>
        <path class="cls-5" d="M97.41,148.02v9.2h-3.47l-4.12-6.15v4.07h1.24v2.08h-4.96v-2.08h.95v-7.12h-.94v-2.08h4.63l3.96,5.92v-3.84h-1.1v-2.08h4.86v2.08h-1.07Z"/>
        <path class="cls-5" d="M108.16,153.57c.03-.45,.47-2.47,.79-4l.81-3.63h3.36l1.02,4.46c.23,1.05,.4,2.37,.48,3.18h.08c.06-.73,.34-2.41,.48-3.08l.55-2.45h-.89v-2.1h4.62v2.1h-.89l-2.41,9.18h-3.83l-.97-3.84c-.14-.55-.32-1.5-.4-2h-.06c-.06,.48-.27,1.5-.39,1.97l-.98,3.87h-3.74l-2.13-9.18h-.9v-2.1h5.33v2.1h-.94l.42,2.36c.18,.77,.45,2.7,.52,3.18h.08Z"/>
        <path class="cls-5" d="M119.54,151.52c0-3.49,2.32-5.89,5.67-5.89,3.95,0,5.79,2.37,5.79,6s-2.03,5.88-5.68,5.88c-3.37,0-5.78-1.95-5.78-5.99Zm7.43,.11c0-1.95-.53-3.52-1.78-3.52-.98-.02-1.66,1.4-1.66,3.41,0,2.11,.76,3.45,1.79,3.45s1.65-1.34,1.65-3.34Z"/>
        <path class="cls-5" d="M136.9,145.94c3.74,0,4.47,1.48,4.47,3.33,0,1.26-1,2.15-2.34,2.34,1.11,.16,2.11,1.13,2.11,2.29,0,.69,.1,1.1,.39,1.1,.24,0,.37-.19,.37-.52v-.53h1.08v.89c0,1.34-.57,2.58-2.36,2.58-2.11,0-3.13-1.11-3.13-3,0-1.47-.18-1.82-1.61-1.82v2.5h.98v2.13h-5.21v-2.13h.9v-7.04h-.9v-2.11h5.25Zm-1.02,4.84h.73c.94,0,1.55-.45,1.55-1.31,0-.95-.53-1.44-1.47-1.44h-.81v2.74Z"/>
        <path class="cls-5" d="M147.76,148.02v2.63l3-2.63h-1.16v-2.08h5.38v2.08h-.94l-2.34,2.02,3.26,5.08h.94v2.1h-6.3v-2.1h1.1l-1.74-2.74-1.19,1.02v1.73h.87v2.1h-5.08v-2.1h.87v-7.1h-.87v-2.08h5.08v2.08h-.87Z"/>
        <path class="cls-5" d="M156.7,153.15h3c0,1.36,1.36,1.58,2.03,1.61,.56,0,1.37-.13,1.37-.81,0-1.26-6.2-.73-6.2-4.84,0-2.39,2.26-3.47,3.84-3.47,1.36,0,2.73,.44,3.37,1.65l.16-1.36h2.78v4.05h-2.92c0-1.19-.94-1.87-2.07-1.87-.47,0-1.11,.29-1.11,.86,0,1.66,6.39,1.28,6.39,5.07,0,2.52-2.36,3.42-4.28,3.42-1.63,0-2.76-.76-3.37-1.48l-.18,1.24h-2.82v-4.07Z"/>
      </g>
      <g>
        <path class="cls-2" d="M64.25,167.13v-.5h6.26v.5h-6.26Z"/>
        <path class="cls-2" d="M74.45,166.28l1.29-2.43h.61l-1.62,2.97v1.88h-.57v-1.86l-1.62-3h.62l1.29,2.43Z"/>
        <path class="cls-2" d="M81.24,166.27c0,.78-.2,1.39-.59,1.83-.39,.45-.94,.67-1.64,.67s-1.27-.22-1.66-.66-.58-1.05-.58-1.85,.19-1.4,.58-1.84c.39-.43,.94-.65,1.66-.65s1.24,.22,1.63,.66,.59,1.05,.59,1.83Zm-3.87,0c0,.66,.14,1.16,.42,1.5,.28,.34,.69,.51,1.22,.51s.94-.17,1.22-.51c.27-.34,.41-.84,.41-1.5s-.14-1.15-.41-1.49-.68-.51-1.21-.51-.95,.17-1.23,.51c-.28,.34-.42,.83-.42,1.48Z"/>
        <path class="cls-2" d="M85.99,163.85v3.14c0,.55-.17,.99-.5,1.31-.33,.32-.79,.48-1.38,.48s-1.04-.16-1.36-.48c-.32-.32-.48-.76-.48-1.32v-3.13h.56v3.17c0,.41,.11,.72,.33,.93,.22,.22,.55,.33,.98,.33s.73-.11,.95-.33c.22-.22,.33-.53,.33-.94v-3.16h.56Z"/>
        <path class="cls-2" d="M87.84,166.68v2.02h-.56v-4.85h1.33c.6,0,1.04,.11,1.32,.34,.28,.23,.43,.57,.43,1.03,0,.64-.33,1.08-.98,1.3l1.32,2.18h-.67l-1.18-2.02h-1.01Zm0-.48h.77c.4,0,.69-.08,.88-.24s.28-.4,.28-.71-.09-.55-.28-.69c-.19-.14-.49-.21-.91-.21h-.73v1.86Z"/>
        <path class="cls-2" d="M94.74,168.7h-.57v-4.35h-1.54v-.5h3.64v.5h-1.54v4.35Z"/>
        <path class="cls-2" d="M100.06,168.7l-.6-1.54h-1.95l-.6,1.54h-.57l1.92-4.88h.48l1.91,4.88h-.58Zm-.78-2.05l-.56-1.5c-.07-.19-.15-.42-.23-.7-.05,.21-.12,.45-.21,.7l-.57,1.5h1.57Z"/>
        <path class="cls-2" d="M103.45,166.16h1.65v2.36c-.26,.08-.52,.14-.78,.19-.27,.04-.57,.06-.92,.06-.74,0-1.31-.22-1.72-.66s-.61-1.05-.61-1.84c0-.5,.1-.95,.3-1.33,.2-.38,.49-.67,.88-.87,.38-.2,.83-.3,1.34-.3s1,.1,1.45,.29l-.22,.5c-.44-.19-.86-.28-1.27-.28-.59,0-1.05,.18-1.38,.53-.33,.35-.5,.84-.5,1.46,0,.66,.16,1.15,.48,1.49,.32,.34,.79,.51,1.41,.51,.34,0,.67-.04,.99-.12v-1.49h-1.09v-.5Z"/>
        <path class="cls-2" d="M106.26,168.7v-4.85h.56v4.34h2.14v.51h-2.71Z"/>
        <path class="cls-2" d="M109.79,168.7v-4.85h.56v4.85h-.56Z"/>
        <path class="cls-2" d="M115.48,168.7h-.64l-2.65-4.07h-.03c.04,.48,.05,.92,.05,1.31v2.76h-.52v-4.85h.64l2.65,4.06h.03c0-.06-.01-.25-.03-.58s-.02-.56-.02-.7v-2.79h.53v4.85Z"/>
        <path class="cls-2" d="M119.52,168.7h-2.71v-4.85h2.71v.5h-2.14v1.56h2.01v.5h-2.01v1.79h2.14v.5Z"/>
        <path class="cls-2" d="M126.05,168.7h-.56v-2.28h-2.56v2.28h-.56v-4.85h.56v2.07h2.56v-2.07h.56v4.85Z"/>
        <path class="cls-2" d="M130.09,168.7h-2.71v-4.85h2.71v.5h-2.14v1.56h2.01v.5h-2.01v1.79h2.14v.5Z"/>
        <path class="cls-2" d="M131.73,166.68v2.02h-.56v-4.85h1.33c.6,0,1.04,.11,1.32,.34,.28,.23,.43,.57,.43,1.03,0,.64-.33,1.08-.98,1.3l1.32,2.18h-.67l-1.18-2.02h-1.01Zm0-.48h.77c.4,0,.69-.08,.88-.24s.28-.4,.28-.71-.1-.55-.28-.69c-.19-.14-.49-.21-.91-.21h-.73v1.86Z"/>
        <path class="cls-2" d="M138.08,168.7h-2.71v-4.85h2.71v.5h-2.14v1.56h2.01v.5h-2.01v1.79h2.14v.5Z"/>
        <path class="cls-2" d="M140.52,167.13v-.5h6.26v.5h-6.26Z"/>
      </g>
      <g>
        <path class="cls-5" d="M89.68,72.8c-1.68,0-3.04-1.36-3.04-3.04v-.9c-.21-.08-.42-.16-.63-.25l-.64,.64c-.57,.57-1.34,.89-2.15,.89s-1.57-.32-2.15-.89l-1.76-1.76c-.57-.57-.89-1.34-.89-2.15s.32-1.58,.89-2.15l.55-.55c-.11-.23-.21-.47-.31-.71h-.76c-1.68,0-3.04-1.36-3.04-3.04v-2.49c0-1.68,1.36-3.04,3.04-3.04h.58c.1-.29,.22-.58,.34-.86l-.4-.4c-.57-.57-.89-1.34-.89-2.15s.32-1.57,.89-2.15l1.76-1.76c.57-.57,1.34-.89,2.15-.89s1.57,.32,2.15,.89l.31,.31c.31-.15,.63-.28,.95-.4v-.43c0-1.68,1.36-3.04,3.04-3.04h2.49c1.68,0,3.04,1.36,3.04,3.04v.43c.32,.12,.64,.25,.95,.4l.31-.31c.57-.57,1.34-.89,2.15-.89s1.57,.32,2.15,.89l1.76,1.76c.57,.57,.89,1.34,.89,2.15s-.32,1.57-.89,2.15l-.4,.4c.12,.28,.24,.57,.34,.86h.58c1.68,0,3.04,1.36,3.04,3.04v2.49c0,1.68-1.36,3.04-3.04,3.04h-.76c-.1,.24-.2,.48-.31,.71l.55,.55c.57,.57,.89,1.34,.89,2.15s-.32,1.57-.89,2.15l-1.76,1.76c-.57,.57-1.34,.89-2.15,.89s-1.57-.32-2.15-.89l-.64-.64c-.21,.09-.42,.18-.63,.25v.9c0,1.68-1.36,3.04-3.04,3.04h-2.49Zm1.24-20.72c-2.94,0-5.33,2.39-5.33,5.33s2.39,5.33,5.33,5.33,5.33-2.39,5.33-5.33-2.39-5.33-5.33-5.33Z"/>
        <path class="cls-4" d="M92.17,43.3c1.23,0,2.22,.99,2.22,2.22v1.01c.67,.21,1.31,.49,1.93,.82l.73-.73c.43-.43,1-.65,1.57-.65s1.14,.22,1.57,.65l1.76,1.76c.87,.87,.87,2.27,0,3.14l-.81,.81c.29,.59,.54,1.21,.73,1.85h1.18c1.23,0,2.22,.99,2.22,2.22v2.49c0,1.23-.99,2.22-2.22,2.22h-1.33c-.2,.59-.45,1.15-.74,1.69l.97,.97c.87,.87,.87,2.27,0,3.14l-1.76,1.76c-.43,.43-1,.65-1.57,.65s-1.14-.22-1.57-.65l-1.04-1.04c-.52,.26-1.06,.48-1.61,.66v1.49c0,1.23-.99,2.22-2.22,2.22h-2.49c-1.23,0-2.22-.99-2.22-2.22v-1.49c-.56-.18-1.1-.4-1.61-.66l-1.04,1.04c-.43,.43-1,.65-1.57,.65s-1.14-.22-1.57-.65l-1.76-1.76c-.87-.87-.87-2.27,0-3.14l.97-.97c-.29-.54-.53-1.1-.74-1.69h-1.33c-1.23,0-2.22-.99-2.22-2.22v-2.49c0-1.23,.99-2.22,2.22-2.22h1.18c.19-.64,.43-1.26,.73-1.85l-.81-.81c-.87-.87-.87-2.28,0-3.14l1.76-1.76c.43-.43,1-.65,1.57-.65s1.14,.22,1.57,.65l.73,.73c.61-.33,1.25-.6,1.93-.82v-1.01c0-1.23,.99-2.22,2.22-2.22h2.49Zm-1.24,20.25c3.39,0,6.14-2.75,6.14-6.14s-2.75-6.14-6.14-6.14-6.14,2.75-6.14,6.14,2.75,6.14,6.14,6.14h0Zm1.24-21.89h-2.49c-2.07,0-3.76,1.63-3.85,3.68-.71-.65-1.63-1.01-2.6-1.01-1.03,0-2,.4-2.73,1.13l-1.76,1.76c-.73,.73-1.13,1.7-1.13,2.73,0,.97,.36,1.89,1.01,2.6-2.04,.09-3.68,1.78-3.68,3.85v2.49c0,2.07,1.63,3.76,3.68,3.85-.65,.71-1.01,1.63-1.01,2.6,0,1.03,.4,2,1.13,2.72l1.76,1.76c.73,.73,1.7,1.13,2.73,1.13,.97,0,1.89-.36,2.6-1.01,.09,2.04,1.78,3.68,3.85,3.68h2.49c2.07,0,3.76-1.63,3.85-3.68,.71,.65,1.63,1.01,2.6,1.01,1.03,0,2-.4,2.73-1.13l1.76-1.76c.73-.73,1.13-1.7,1.13-2.72,0-.97-.36-1.89-1.01-2.6,2.04-.09,3.68-1.78,3.68-3.85v-2.49c0-2.07-1.63-3.76-3.68-3.85,.65-.71,1.01-1.63,1.01-2.6,0-1.03-.4-2-1.13-2.73l-1.76-1.76c-.73-.73-1.7-1.13-2.73-1.13-.97,0-1.89,.36-2.6,1.01-.09-2.04-1.78-3.68-3.85-3.68h0Zm-1.24,20.25c-2.49,0-4.51-2.02-4.51-4.51s2.02-4.51,4.51-4.51,4.51,2.02,4.51,4.51-2.02,4.51-4.51,4.51h0Z"/>
      </g>
      <path class="cls-1" d="M123.72,84.26h-1.46c-.23-.8-.54-1.56-.9-2.3l1-1c1.08-1.08,1.08-2.82,0-3.9l-2.18-2.18c-1.08-1.08-2.82-1.08-3.9,0l-.91,.91c-.76-.41-1.56-.75-2.39-1.01v-1.26c0-1.52-1.23-2.76-2.76-2.76h-3.09c-1.52,0-2.76,1.23-2.76,2.76v1.26c-.83,.27-1.63,.6-2.39,1.01l-.91-.91c-1.08-1.08-2.82-1.08-3.9,0l-2.18,2.18c-1.08,1.08-1.08,2.82,0,3.9l1,1c-.36,.73-.67,1.5-.9,2.3h-1.46c-1.52,0-2.76,1.23-2.76,2.76v3.09c0,1.52,1.23,2.76,2.76,2.76h1.65c.25,.73,.55,1.43,.91,2.1l-1.2,1.2c-1.08,1.08-1.08,2.82,0,3.9l2.18,2.18c1.08,1.08,2.82,1.08,3.9,0l1.29-1.29c.64,.32,1.31,.59,2,.81v1.84c0,1.52,1.23,2.76,2.76,2.76h3.09c1.52,0,2.76-1.23,2.76-2.76v-1.84c.69-.22,1.36-.49,2-.81l1.29,1.29c1.08,1.08,2.82,1.08,3.9,0l2.18-2.18c1.08-1.08,1.08-2.82,0-3.9l-1.2-1.2c.36-.67,.66-1.37,.91-2.1h1.65c1.52,0,2.76-1.23,2.76-2.76v-3.09c0-1.52-1.23-2.76-2.76-2.76Zm-15.05,11.63c-4.21,0-7.62-3.41-7.62-7.62s3.41-7.62,7.62-7.62,7.62,3.41,7.62,7.62-3.41,7.62-7.62,7.62Z"/>
    </g>
  </g>
</svg>