<?xml version="1.0" encoding="UTF-8"?>
<svg id="Capa_2" data-name="Capa 2" xmlns="http://www.w3.org/2000/svg" viewBox="0 0 208.02 208.02">
  <defs>
    <style>
      .cls-1 {
        fill: #fff;
      }

      .cls-2 {
        fill: #a3a3a3;
      }

      .cls-3 {
        fill: #838383;
      }
    </style>
  </defs>
  <g id="Layer_1" data-name="Layer 1">
    <rect class="cls-3" width="208.02" height="208.02"/>
    <g>
      <g>
        <path class="cls-1" d="M43.12,149.59v3.38h-1.95l-.1-1.42h-2.34v8.95l1.36,.26v1.53h-5.27v-1.53l1.36-.26v-8.95h-2.33l-.1,1.42h-1.94v-3.38h11.32Z"/>
        <path class="cls-1" d="M52.86,156.7h-4.3v3.63h4.1l.11-1.52h1.94v3.47h-10.05v-1.53l1.35-.26v-9.11l-1.35-.26v-1.53h10.03v3.48h-1.95l-.11-1.52h-4.06v3.19h4.3v1.96Z"/>
        <path class="cls-1" d="M56.65,160.76l.91-.13,3.86-11.04h2.61l3.84,11.04,.91,.13v1.53h-4.33v-1.53l.88-.16-.56-1.74h-4.12l-.56,1.74,.88,.16v1.53h-4.33v-1.53Zm4.6-3.78h2.91l-1.43-4.47h-.05l-1.43,4.47Z"/>
        <path class="cls-1" d="M82.57,152.89h-.05s-3.4,9.39-3.4,9.39h-1.71l-3.38-9.37h-.05s.24,5.58,.24,5.58v2l1.36,.26v1.53h-5.26v-1.53l1.35-.26v-9.11l-1.35-.26v-1.53h4.67l3.24,9.36h.05l3.26-9.36h4.69v1.53l-1.36,.26v9.11l1.36,.26v1.53h-5.26v-1.53l1.35-.26v-2l.24-5.61Z"/>
        <path class="cls-1" d="M102.59,153.64h-1.91l-.33-1.74c-.22-.14-.54-.26-.97-.37-.42-.1-.87-.16-1.35-.16-.7,0-1.24,.15-1.62,.44-.38,.29-.57,.67-.57,1.14,0,.43,.2,.78,.6,1.06,.4,.28,1.09,.57,2.06,.88,1.4,.39,2.46,.9,3.19,1.54,.72,.64,1.09,1.48,1.09,2.52s-.43,1.94-1.29,2.57c-.86,.63-1.99,.94-3.4,.94-1.01,0-1.91-.16-2.72-.48-.81-.32-1.49-.76-2.03-1.33v-2.65h1.97l.27,1.81c.26,.21,.6,.38,1.04,.52s.93,.2,1.47,.2c.7,0,1.23-.14,1.59-.43,.36-.28,.54-.67,.54-1.14s-.17-.88-.52-1.18c-.35-.3-.95-.58-1.82-.84-1.51-.44-2.65-.95-3.42-1.55-.77-.6-1.16-1.42-1.16-2.46s.44-1.87,1.31-2.52c.87-.65,1.97-.99,3.29-1.01,.98,0,1.87,.15,2.67,.44,.8,.3,1.48,.69,2.02,1.19v2.6Z"/>
        <path class="cls-1" d="M109.6,149.59v1.53l-1.36,.26v6.63c0,.84,.22,1.46,.68,1.88,.45,.42,1.07,.62,1.85,.62s1.42-.21,1.87-.62,.68-1.04,.68-1.88v-6.63l-1.35-.26v-1.53h5.26v1.53l-1.36,.26v6.63c0,1.42-.47,2.52-1.41,3.3-.94,.77-2.17,1.16-3.69,1.16s-2.74-.39-3.67-1.16c-.93-.77-1.4-1.87-1.4-3.3v-6.63l-1.35-.26v-1.53h5.26Z"/>
        <path class="cls-1" d="M129.1,153.87h-1.89l-.26-1.69c-.25-.25-.57-.45-.95-.59s-.83-.22-1.35-.22c-1.1,0-1.95,.4-2.55,1.2-.6,.8-.89,1.85-.89,3.14v.44c0,1.29,.3,2.34,.89,3.15,.59,.81,1.43,1.21,2.51,1.21,.5,0,.96-.07,1.37-.22,.42-.15,.74-.34,.96-.59l.26-1.69h1.89v2.51c-.51,.59-1.16,1.07-1.96,1.42-.79,.35-1.68,.53-2.66,.53-1.7,0-3.1-.59-4.19-1.77-1.09-1.18-1.63-2.69-1.63-4.54v-.43c0-1.84,.54-3.36,1.62-4.54,1.08-1.19,2.48-1.78,4.19-1.78,.98,0,1.87,.18,2.66,.54,.79,.36,1.44,.83,1.96,1.42v2.51Z"/>
        <path class="cls-1" d="M141.38,153.87h-1.89l-.26-1.69c-.25-.25-.57-.45-.95-.59-.38-.15-.83-.22-1.35-.22-1.1,0-1.95,.4-2.55,1.2-.6,.8-.89,1.85-.89,3.14v.44c0,1.29,.3,2.34,.89,3.15,.59,.81,1.43,1.21,2.51,1.21,.5,0,.96-.07,1.37-.22,.42-.15,.74-.34,.96-.59l.26-1.69h1.89v2.51c-.51,.59-1.16,1.07-1.96,1.42-.79,.35-1.68,.53-2.66,.53-1.7,0-3.1-.59-4.19-1.77-1.09-1.18-1.63-2.69-1.63-4.54v-.43c0-1.84,.54-3.36,1.62-4.54,1.08-1.19,2.48-1.78,4.19-1.78,.98,0,1.87,.18,2.66,.54,.79,.36,1.44,.83,1.96,1.42v2.51Z"/>
        <path class="cls-1" d="M151.46,156.7h-4.3v3.63h4.1l.11-1.52h1.94v3.47h-10.05v-1.53l1.35-.26v-9.11l-1.35-.26v-1.53h10.03v3.48h-1.95l-.11-1.52h-4.06v3.19h4.3v1.96Z"/>
        <path class="cls-1" d="M165.03,153.64h-1.91l-.33-1.74c-.22-.14-.54-.26-.97-.37-.42-.1-.88-.16-1.35-.16-.7,0-1.24,.15-1.62,.44-.38,.29-.57,.67-.57,1.14,0,.43,.2,.78,.6,1.06,.4,.28,1.09,.57,2.06,.88,1.4,.39,2.46,.9,3.19,1.54,.72,.64,1.09,1.48,1.09,2.52s-.43,1.94-1.29,2.57c-.86,.63-1.99,.94-3.4,.94-1.01,0-1.91-.16-2.72-.48-.81-.32-1.49-.76-2.03-1.33v-2.65h1.97l.27,1.81c.26,.21,.6,.38,1.04,.52,.44,.14,.93,.2,1.47,.2,.7,0,1.23-.14,1.59-.43s.54-.67,.54-1.14-.17-.88-.52-1.18c-.35-.3-.95-.58-1.82-.84-1.51-.44-2.64-.95-3.42-1.55-.77-.6-1.16-1.42-1.16-2.46s.44-1.87,1.31-2.52c.87-.65,1.97-.99,3.29-1.01,.98,0,1.87,.15,2.67,.44,.8,.3,1.48,.69,2.02,1.19v2.6Z"/>
        <path class="cls-1" d="M176.58,153.64h-1.91l-.33-1.74c-.22-.14-.54-.26-.97-.37-.42-.1-.88-.16-1.35-.16-.7,0-1.24,.15-1.62,.44-.38,.29-.57,.67-.57,1.14,0,.43,.2,.78,.6,1.06,.4,.28,1.09,.57,2.06,.88,1.4,.39,2.46,.9,3.19,1.54,.72,.64,1.09,1.48,1.09,2.52s-.43,1.94-1.29,2.57c-.86,.63-1.99,.94-3.4,.94-1.01,0-1.91-.16-2.72-.48-.81-.32-1.49-.76-2.03-1.33v-2.65h1.97l.27,1.81c.26,.21,.6,.38,1.04,.52,.44,.14,.93,.2,1.47,.2,.7,0,1.23-.14,1.59-.43,.36-.28,.54-.67,.54-1.14s-.17-.88-.52-1.18c-.35-.3-.95-.58-1.82-.84-1.51-.44-2.64-.95-3.42-1.55-.77-.6-1.16-1.42-1.16-2.46s.44-1.87,1.31-2.52c.87-.65,1.97-.99,3.29-1.01,.98,0,1.87,.15,2.67,.44,.8,.3,1.48,.69,2.02,1.19v2.6Z"/>
      </g>
      <g>
        <path class="cls-1" d="M50.19,174.51v-.66h8.21v.66h-8.21Z"/>
        <path class="cls-1" d="M63.58,173.39l1.7-3.19h.8l-2.13,3.9v2.47h-.75v-2.44l-2.12-3.94h.81l1.69,3.19Z"/>
        <path class="cls-1" d="M72.49,173.38c0,1.02-.26,1.82-.77,2.41-.52,.58-1.23,.88-2.15,.88s-1.66-.29-2.17-.86-.76-1.38-.76-2.43,.26-1.84,.77-2.41c.51-.57,1.24-.86,2.18-.86s1.63,.29,2.15,.87c.51,.58,.77,1.38,.77,2.41Zm-5.08,0c0,.86,.18,1.52,.55,1.96,.37,.45,.9,.67,1.6,.67s1.24-.22,1.6-.67,.54-1.1,.54-1.97-.18-1.51-.54-1.95c-.36-.44-.89-.67-1.59-.67s-1.24,.22-1.61,.67c-.37,.45-.55,1.09-.55,1.95Z"/>
        <path class="cls-1" d="M78.72,170.2v4.12c0,.73-.22,1.3-.66,1.71-.44,.42-1.04,.62-1.81,.62s-1.36-.21-1.78-.63c-.42-.42-.63-.99-.63-1.73v-4.11h.74v4.16c0,.53,.15,.94,.44,1.22,.29,.28,.72,.43,1.28,.43s.95-.14,1.24-.43c.29-.29,.44-.7,.44-1.23v-4.15h.74Z"/>
        <path class="cls-1" d="M81.15,173.92v2.65h-.74v-6.37h1.75c.78,0,1.36,.15,1.73,.45,.37,.3,.56,.75,.56,1.35,0,.84-.43,1.41-1.28,1.71l1.73,2.86h-.88l-1.54-2.65h-1.33Zm0-.64h1.02c.52,0,.91-.1,1.15-.31,.24-.21,.37-.52,.37-.93s-.12-.73-.37-.91c-.25-.19-.65-.28-1.2-.28h-.96v2.44Z"/>
        <path class="cls-1" d="M90.21,176.57h-.74v-5.72h-2.02v-.66h4.78v.66h-2.02v5.72Z"/>
        <path class="cls-1" d="M97.2,176.57l-.79-2.03h-2.56l-.78,2.03h-.75l2.52-6.4h.62l2.51,6.4h-.77Zm-1.02-2.69l-.74-1.98c-.1-.25-.2-.56-.3-.92-.06,.28-.16,.59-.27,.92l-.75,1.98h2.06Z"/>
        <path class="cls-1" d="M101.64,173.23h2.17v3.1c-.34,.11-.68,.19-1.03,.24-.35,.06-.75,.08-1.21,.08-.96,0-1.72-.29-2.25-.86-.54-.57-.81-1.38-.81-2.41,0-.66,.13-1.24,.4-1.74,.27-.5,.65-.88,1.15-1.14,.5-.26,1.09-.4,1.76-.4s1.31,.13,1.9,.38l-.29,.65c-.58-.24-1.13-.37-1.66-.37-.78,0-1.38,.23-1.82,.69-.44,.46-.65,1.1-.65,1.92s.21,1.51,.63,1.96,1.04,.67,1.85,.67c.44,0,.87-.05,1.29-.15v-1.96h-1.43v-.66Z"/>
        <path class="cls-1" d="M105.34,176.57v-6.37h.74v5.7h2.81v.67h-3.55Z"/>
        <path class="cls-1" d="M109.97,176.57v-6.37h.74v6.37h-.74Z"/>
        <path class="cls-1" d="M117.44,176.57h-.85l-3.48-5.35h-.04c.05,.63,.07,1.2,.07,1.73v3.62h-.68v-6.37h.84l3.48,5.33h.03c0-.08-.02-.33-.04-.76-.02-.43-.03-.73-.02-.91v-3.66h.69v6.37Z"/>
        <path class="cls-1" d="M122.75,176.57h-3.55v-6.37h3.55v.66h-2.81v2.05h2.64v.65h-2.64v2.35h2.81v.66Z"/>
        <path class="cls-1" d="M131.32,176.57h-.74v-3h-3.36v3h-.74v-6.37h.74v2.71h3.36v-2.71h.74v6.37Z"/>
        <path class="cls-1" d="M136.62,176.57h-3.55v-6.37h3.55v.66h-2.81v2.05h2.64v.65h-2.64v2.35h2.81v.66Z"/>
        <path class="cls-1" d="M138.78,173.92v2.65h-.74v-6.37h1.75c.78,0,1.36,.15,1.73,.45,.37,.3,.56,.75,.56,1.35,0,.84-.43,1.41-1.28,1.71l1.73,2.86h-.88l-1.54-2.65h-1.33Zm0-.64h1.02c.52,0,.91-.1,1.15-.31,.24-.21,.37-.52,.37-.93s-.12-.73-.37-.91c-.25-.19-.65-.28-1.2-.28h-.96v2.44Z"/>
        <path class="cls-1" d="M147.11,176.57h-3.55v-6.37h3.55v.66h-2.81v2.05h2.64v.65h-2.64v2.35h2.81v.66Z"/>
        <path class="cls-1" d="M150.32,174.51v-.66h8.21v.66h-8.21Z"/>
      </g>
      <g>
        <path class="cls-1" d="M95.35,85.95l.49-2.03s.03-.12,.09-.36c.05-.21,.13-.52,.24-.92,.21-.79,.53-1.92,.96-3.34,.43-1.42,.98-3.13,1.67-5.08,.69-1.95,1.53-4.13,2.55-6.5,1.03-2.37,2.25-4.92,3.83-7.59,.79-1.33,1.67-2.69,2.7-4.06,1.03-1.37,2.21-2.75,3.68-4.08,.36-.33,.76-.66,1.16-.98,.2-.16,.42-.31,.63-.47l.32-.23,.34-.22c.9-.6,1.93-1.13,3.05-1.56,2.22-.88,4.95-1.12,7.31-.6l.44,.09,.43,.12c.28,.08,.57,.16,.84,.26,.53,.2,1.07,.4,1.55,.65,1,.47,1.87,1.04,2.69,1.63,1.62,1.19,2.94,2.51,4.13,3.86,.14,.14,.05,.06,.09,.09l.02,.03,.05,.06,.09,.12,.19,.23,.38,.46c.06,.07,.14,.18,.21,.27l.22,.29,.44,.58c.28,.39,.53,.78,.8,1.16,.25,.41,.5,.82,.74,1.23,.46,.86,.89,1.74,1.22,2.72,.18,.47,.3,.99,.43,1.49,.06,.25,.1,.52,.15,.78l.07,.39,.04,.4c.12,1.06,.06,2.17-.14,3.23-.09,.53-.25,1.04-.41,1.54-.1,.24-.19,.48-.29,.73-.09,.24-.22,.46-.33,.69-.46,.9-1.01,1.71-1.61,2.41-.07,.09-.15,.18-.22,.27l-.23,.25c-.15,.16-.31,.33-.46,.49-.32,.3-.63,.61-.96,.88-1.3,1.12-2.66,1.99-4,2.73-1.35,.74-2.68,1.36-4,1.9-2.63,1.07-5.15,1.84-7.49,2.46-2.34,.62-4.49,1.08-6.4,1.45-1.91,.36-3.58,.63-4.96,.83-2.76,.39-4.34,.52-4.34,.52l-8.41,.7Zm16.99-3.36c.11-.04,.22-.08,.34-.12,1.81-.65,3.82-1.44,5.96-2.38,2.14-.95,4.41-2.07,6.65-3.43,1.12-.68,2.22-1.42,3.26-2.24,1.04-.82,2.03-1.71,2.83-2.68,.21-.24,.39-.49,.58-.73,.09-.12,.17-.25,.25-.38l.12-.19,.11-.19c.31-.5,.52-1.02,.68-1.51,.03-.13,.08-.25,.1-.37,.02-.12,.05-.25,.07-.37,.02-.24,.06-.48,.05-.72,0-.47-.06-.93-.2-1.4l-.05-.17-.07-.18c-.05-.12-.08-.24-.13-.35-.12-.24-.21-.48-.36-.72-.25-.48-.61-.97-.97-1.45-.2-.24-.4-.48-.61-.71-.23-.23-.45-.48-.67-.7l-.68-.64-.44-.4-.22-.2-.11-.1-.06-.05-.03-.02s-.08-.08,.04,.04c-1.06-.87-2.14-1.63-3.18-2.14-.51-.24-1.02-.46-1.47-.57-.23-.08-.44-.09-.65-.14-.1-.02-.2-.01-.3-.02h-.14s-.13,0-.13,0c-.36,0-.65,.07-.92,.17-.14,.04-.27,.12-.4,.17-.07,.04-.13,.08-.2,.12-.07,.03-.14,.09-.21,.13-.28,.19-.57,.41-.87,.72l-.11,.11-.11,.13c-.08,.09-.15,.16-.23,.25-.15,.19-.31,.35-.46,.56-.31,.38-.61,.84-.9,1.29-.29,.47-.57,.95-.83,1.47-.53,1.02-1.01,2.1-1.44,3.2-.86,2.2-1.52,4.44-2.06,6.54-.54,2.11-.95,4.09-1.28,5.86-.33,1.77-.56,3.33-.74,4.61-.18,1.28-.29,2.28-.36,2.95-.03,.33-.05,.57-.07,.74,0,.08-.01,.14-.01,.16,0,.02,0,.06,0,.06l.65-4Z"/>
        <path class="cls-1" d="M95.89,86.95c-.18,.06-.36,.12-.54,.19-1.81,.65-3.82,1.44-5.96,2.39-2.14,.95-4.41,2.07-6.65,3.43-1.12,.68-2.22,1.42-3.26,2.24-1.04,.82-2.03,1.71-2.83,2.68-.21,.24-.39,.49-.58,.73-.09,.12-.17,.25-.25,.38l-.13,.19-.11,.19c-.31,.5-.52,1.02-.68,1.51-.03,.13-.08,.25-.1,.37-.02,.12-.05,.25-.07,.37-.02,.24-.06,.48-.05,.72,0,.47,.06,.93,.2,1.4l.05,.18,.07,.18c.05,.12,.08,.23,.13,.35,.12,.24,.21,.48,.36,.72,.25,.48,.61,.97,.97,1.45,.76,.96,1.72,1.89,2.78,2.77-.12-.12-.02-.02-.04-.04l.03,.02,.06,.05,.12,.09,.23,.19,.46,.38c.08,.07,.14,.1,.2,.15l.18,.13,.36,.25c.25,.17,.53,.33,.79,.5,.27,.15,.53,.29,.78,.43,.51,.24,1.02,.46,1.47,.57,.23,.08,.44,.09,.65,.14,.1,.02,.2,.01,.3,.02h.14s.13,0,.13,0c.36,0,.65-.07,.92-.17,.14-.04,.27-.12,.4-.17,.07-.04,.13-.08,.2-.12,.07-.03,.14-.09,.2-.13,.28-.19,.57-.41,.87-.72l.11-.11,.11-.12c.08-.09,.15-.16,.23-.25,.15-.19,.31-.35,.46-.56,.31-.38,.61-.84,.9-1.29,.29-.47,.57-.95,.83-1.47,.53-1.02,1.01-2.1,1.44-3.2,.86-2.2,1.52-4.44,2.06-6.54,.54-2.11,.95-4.09,1.28-5.86,.32-1.76,.56-3.31,.74-4.59Zm16.75-3.29l-.46,2.01s0,.03-.02,.1c-.01,.06-.04,.15-.06,.27-.05,.21-.13,.52-.24,.92-.21,.79-.53,1.92-.96,3.34-.43,1.42-.98,3.13-1.67,5.08-.69,1.95-1.53,4.13-2.55,6.5-1.03,2.37-2.25,4.92-3.83,7.59-.79,1.33-1.67,2.69-2.7,4.06-1.03,1.37-2.21,2.75-3.68,4.08-.36,.33-.76,.66-1.16,.98-.2,.16-.42,.31-.63,.47l-.32,.23-.34,.22c-.9,.6-1.93,1.13-3.05,1.56-2.22,.88-4.96,1.12-7.31,.6l-.44-.09-.43-.12c-.28-.08-.57-.16-.84-.26-.53-.2-1.07-.4-1.55-.65-1-.47-1.87-1.04-2.7-1.62-.4-.3-.78-.61-1.16-.92-.36-.32-.72-.63-1.07-.96l-.53-.52-.26-.26c-.08-.09-.19-.18-.24-.25l-.4-.44-.2-.22-.1-.11-.05-.06-.02-.03s.05,.05-.09-.09c-1.17-1.36-2.29-2.84-3.23-4.53-.46-.86-.89-1.74-1.22-2.72-.18-.47-.3-.99-.43-1.49-.06-.25-.1-.52-.15-.78l-.07-.39-.04-.4c-.12-1.06-.06-2.17,.14-3.23,.09-.53,.25-1.04,.41-1.54,.1-.24,.19-.48,.29-.73,.09-.24,.22-.46,.33-.69,.46-.9,1.01-1.71,1.61-2.41,.07-.09,.15-.18,.22-.27l.23-.25c.15-.16,.31-.33,.46-.49,.32-.3,.63-.61,.96-.89,1.3-1.12,2.66-1.99,4-2.73,1.35-.75,2.69-1.36,4-1.9,2.63-1.07,5.15-1.84,7.49-2.46,2.34-.62,4.49-1.08,6.4-1.45,1.91-.36,3.58-.63,4.96-.83,2.76-.39,4.34-.52,4.34-.52l8.39-.69Z"/>
        <path class="cls-1" d="M102.87,76.15l2.03,.49s.12,.03,.36,.09c.21,.05,.52,.13,.92,.24,.79,.21,1.92,.53,3.34,.96,1.42,.43,3.13,.98,5.08,1.67,1.95,.69,4.13,1.53,6.5,2.55,2.37,1.03,4.92,2.25,7.59,3.83,1.33,.79,2.69,1.67,4.06,2.7,1.37,1.03,2.75,2.21,4.08,3.68,.33,.36,.66,.76,.98,1.16,.16,.2,.31,.42,.47,.63l.23,.32,.22,.34c.6,.9,1.13,1.93,1.56,3.05,.88,2.22,1.12,4.96,.6,7.31l-.09,.44-.12,.43c-.08,.28-.16,.57-.26,.84-.2,.53-.4,1.07-.65,1.55-.47,1-1.04,1.87-1.63,2.7-1.19,1.62-2.51,2.94-3.86,4.13-.14,.14-.06,.05-.09,.09l-.03,.02-.06,.05-.12,.09-.23,.19-.46,.38c-.07,.06-.18,.14-.27,.21l-.29,.22-.58,.44c-.39,.28-.78,.53-1.16,.8-.41,.25-.82,.5-1.23,.74-.86,.46-1.74,.89-2.72,1.22-.47,.18-.99,.3-1.49,.43-.25,.06-.52,.1-.78,.15l-.39,.07-.4,.04c-1.06,.12-2.17,.06-3.23-.14-.53-.09-1.04-.25-1.54-.41-.24-.1-.48-.19-.73-.29-.24-.09-.46-.22-.69-.33-.9-.46-1.71-1.01-2.41-1.61-.09-.07-.18-.15-.27-.22l-.25-.23c-.16-.15-.33-.31-.49-.46-.3-.32-.61-.63-.88-.96-1.12-1.3-1.99-2.66-2.73-4-.74-1.35-1.36-2.69-1.9-4-1.07-2.63-1.84-5.15-2.46-7.49-.62-2.34-1.08-4.49-1.45-6.4-.36-1.91-.63-3.58-.83-4.96-.39-2.76-.52-4.34-.52-4.34l-.7-8.41Zm3.36,16.99c.04,.11,.08,.22,.12,.33,.65,1.81,1.44,3.82,2.38,5.96,.95,2.14,2.07,4.41,3.43,6.65,.68,1.12,1.42,2.22,2.24,3.26,.82,1.04,1.71,2.03,2.68,2.83,.24,.21,.49,.39,.73,.58,.12,.09,.25,.17,.38,.25l.19,.12,.19,.11c.5,.31,1.02,.52,1.51,.68,.12,.03,.25,.08,.37,.1,.12,.02,.25,.05,.37,.07,.24,.02,.48,.06,.72,.05,.47,0,.93-.05,1.4-.2l.17-.05,.18-.07c.12-.05,.24-.08,.35-.13,.24-.12,.48-.21,.72-.36,.48-.25,.97-.61,1.45-.97,.24-.2,.48-.4,.71-.61,.23-.22,.48-.45,.7-.67l.64-.68,.4-.44,.2-.22,.1-.11,.05-.06,.03-.03s.08-.08-.04,.04c.87-1.06,1.63-2.14,2.14-3.18,.24-.51,.46-1.02,.57-1.47,.08-.23,.09-.44,.14-.65,.02-.1,.01-.2,.02-.3v-.14s0-.13,0-.13c0-.36-.07-.65-.17-.92-.04-.14-.12-.27-.17-.4-.04-.07-.08-.13-.12-.2-.03-.07-.09-.14-.13-.2-.19-.28-.41-.57-.72-.87l-.11-.11-.13-.11c-.09-.08-.16-.15-.25-.23-.19-.15-.35-.31-.56-.46-.38-.31-.84-.61-1.29-.9-.47-.29-.95-.57-1.47-.83-1.02-.53-2.1-1.01-3.2-1.44-2.2-.86-4.44-1.52-6.54-2.06-2.11-.54-4.09-.95-5.86-1.28-1.77-.33-3.33-.56-4.61-.74-1.28-.17-2.28-.29-2.95-.36-.33-.03-.57-.05-.74-.07-.08,0-.14-.01-.16-.01-.02,0-.06,0-.06,0l4,.65Z"/>
        <path class="cls-1" d="M101.86,76.68c-.06-.18-.12-.36-.19-.54-.65-1.81-1.44-3.82-2.39-5.96-.95-2.14-2.07-4.41-3.43-6.65-.68-1.12-1.42-2.22-2.24-3.26-.82-1.04-1.71-2.03-2.68-2.83-.24-.21-.49-.39-.73-.58-.12-.09-.25-.17-.38-.25l-.19-.13-.19-.11c-.5-.31-1.02-.52-1.51-.68-.13-.03-.25-.08-.37-.1-.12-.02-.25-.05-.37-.07-.24-.02-.48-.06-.72-.05-.47,0-.93,.06-1.4,.2l-.18,.05-.18,.07c-.12,.05-.23,.08-.35,.13-.24,.12-.48,.21-.72,.36-.48,.25-.97,.61-1.45,.97-.96,.76-1.89,1.72-2.77,2.78,.12-.12,.02-.02,.04-.04l-.02,.03-.05,.06-.09,.12-.19,.23-.38,.46c-.07,.08-.1,.14-.15,.2l-.13,.18-.25,.36c-.17,.25-.33,.53-.5,.79-.15,.26-.29,.53-.43,.78-.24,.51-.46,1.02-.57,1.47-.08,.23-.09,.44-.14,.65-.02,.1-.01,.2-.02,.3v.14s0,.13,0,.13c0,.36,.07,.65,.17,.92,.04,.14,.12,.27,.17,.4,.04,.07,.08,.13,.12,.2,.03,.07,.09,.14,.13,.21,.19,.28,.41,.57,.72,.87l.11,.11,.12,.11c.09,.08,.16,.15,.25,.23,.19,.15,.35,.31,.56,.46,.38,.31,.84,.61,1.29,.9,.47,.29,.95,.57,1.47,.83,1.02,.53,2.1,1.01,3.2,1.44,2.2,.86,4.44,1.52,6.54,2.06,2.11,.54,4.09,.95,5.86,1.28,1.76,.32,3.31,.56,4.59,.74Zm3.29,16.75l-2.01-.46s-.04,0-.1-.02c-.06-.01-.15-.04-.27-.06-.21-.05-.52-.13-.92-.24-.79-.21-1.92-.53-3.34-.96-1.42-.43-3.13-.98-5.08-1.67-1.95-.69-4.13-1.53-6.5-2.55-2.37-1.03-4.92-2.25-7.59-3.83-1.33-.79-2.69-1.67-4.06-2.7-1.37-1.03-2.75-2.21-4.08-3.68-.33-.36-.65-.76-.97-1.16-.16-.2-.31-.42-.47-.63l-.23-.32-.22-.34c-.6-.9-1.13-1.93-1.56-3.05-.88-2.22-1.12-4.95-.6-7.31l.09-.44,.12-.43c.08-.28,.16-.57,.26-.84,.2-.53,.4-1.07,.65-1.55,.47-1,1.04-1.87,1.62-2.7,.3-.4,.61-.78,.92-1.16,.32-.36,.63-.72,.96-1.07l.52-.53,.26-.26c.09-.08,.18-.19,.25-.24l.44-.4,.22-.2,.11-.1,.06-.05,.03-.02s-.05,.05,.09-.09c1.36-1.17,2.84-2.29,4.53-3.23,.86-.46,1.74-.89,2.72-1.22,.47-.18,.99-.3,1.49-.43,.25-.06,.52-.1,.78-.15l.39-.07,.4-.04c1.06-.12,2.17-.06,3.23,.14,.53,.09,1.04,.25,1.54,.41,.24,.1,.48,.19,.73,.29,.24,.09,.46,.22,.69,.33,.9,.46,1.71,1.01,2.41,1.61,.09,.07,.18,.15,.27,.22l.25,.23c.16,.15,.33,.31,.49,.46,.3,.32,.61,.63,.89,.96,1.12,1.3,1.99,2.66,2.73,4,.75,1.35,1.36,2.68,1.9,4,1.07,2.63,1.84,5.15,2.46,7.49,.62,2.34,1.08,4.49,1.45,6.4,.36,1.91,.63,3.58,.83,4.96,.39,2.76,.52,4.34,.52,4.34l.69,8.39Z"/>
        <path class="cls-2" d="M148.68,52.46c-3.46,3.46-9.06,3.46-12.52,0-3.46-3.46-3.46-9.06,0-12.52,3.46-3.46,9.06-3.46,12.52,0,3.46,3.46,3.46,9.06,0,12.52Z"/>
        <path class="cls-2" d="M71.31,129.83c-3.46,3.46-9.06,3.46-12.52,0-3.46-3.46-3.46-9.06,0-12.52,3.46-3.46,9.06-3.46,12.52,0,3.46,3.46,3.46,9.06,0,12.52Z"/>
        <path class="cls-2" d="M136.16,129.83c-3.46-3.46-3.46-9.06,0-12.52,3.46-3.46,9.06-3.46,12.52,0,3.46,3.46,3.46,9.06,0,12.52-3.46,3.46-9.06,3.46-12.52,0Z"/>
        <path class="cls-2" d="M58.78,52.46c-3.46-3.46-3.46-9.06,0-12.52,3.46-3.46,9.06-3.46,12.52,0,3.46,3.46,3.46,9.06,0,12.52-3.46,3.46-9.06,3.46-12.52,0Z"/>
      </g>
    </g>
  </g>
</svg>