<?xml version="1.0" encoding="UTF-8"?>
<svg id="Capa_2" data-name="Capa 2" xmlns="http://www.w3.org/2000/svg" viewBox="0 0 126.59 139.99">
  <defs>
    <style>
      .cls-1 {
        fill: #fff;
      }

      .cls-2 {
        fill: #668e19;
      }

      .cls-3 {
        fill: #ffbd1a;
      }

      .cls-4 {
        fill: #8dc63f;
      }

      .cls-5 {
        fill: #d1d3d4;
      }
    </style>
  </defs>
  <g id="Layer_1" data-name="Layer 1">
    <path class="cls-5" d="M63.3,139.99C28.4,139.99,0,111.6,0,76.7S28.4,13.4,63.3,13.4s63.29,28.39,63.29,63.29-28.39,63.29-63.29,63.29Zm0-123.5C30.1,16.49,3.08,43.5,3.08,76.7s27.01,60.21,60.21,60.21,60.21-27.01,60.21-60.21S96.5,16.49,63.3,16.49Z"/>
    <path class="cls-3" d="M78.24,14.94c0,8.25-6.69,14.95-14.94,14.95s-14.95-6.69-14.95-14.95S55.04,0,63.3,0s14.94,6.69,14.94,14.94Z"/>
    <path d="M68.04,21.25h-9.35v-1.97l3.36-3.39c.99-1.02,1.64-1.73,1.94-2.12,.31-.4,.52-.76,.66-1.09s.2-.68,.2-1.04c0-.54-.15-.94-.45-1.2-.29-.26-.69-.39-1.18-.39-.52,0-1.02,.12-1.51,.36-.49,.24-1,.58-1.53,1.02l-1.54-1.82c.66-.56,1.2-.96,1.64-1.19,.43-.23,.9-.41,1.41-.54,.51-.12,1.09-.19,1.72-.19,.84,0,1.57,.15,2.21,.46,.64,.31,1.13,.73,1.49,1.28,.35,.55,.52,1.18,.52,1.88,0,.62-.1,1.19-.32,1.73-.21,.54-.55,1.09-1.01,1.66-.45,.57-1.26,1.37-2.4,2.42l-1.72,1.62v.13h5.83v2.38Z"/>
    <g>
      <polygon class="cls-2" points="97.59 71.16 97.59 100.33 87.95 100.33 87.97 103.33 87.98 104.93 88 108.83 85.58 107.33 84.58 106.72 82.35 105.34 81.87 105.05 79.24 103.42 79.03 103.29 76.54 101.75 75.72 101.24 74.24 100.33 45.48 100.33 45.48 71.16 97.59 71.16"/>
      <polygon class="cls-4" points="22.31 52.37 22.31 81.54 31.95 81.54 31.91 90.04 45.66 81.54 74.43 81.54 74.43 52.37 22.31 52.37"/>
      <path class="cls-1" d="M40.35,66.45c0,1.5-1.21,2.71-2.71,2.71s-2.71-1.21-2.71-2.71,1.21-2.71,2.71-2.71,2.71,1.21,2.71,2.71Z"/>
      <path class="cls-1" d="M51.08,66.45c0,1.5-1.21,2.71-2.71,2.71s-2.71-1.21-2.71-2.71,1.21-2.71,2.71-2.71,2.71,1.21,2.71,2.71Z"/>
      <path class="cls-1" d="M61.67,66.45c0,1.5-1.21,2.71-2.71,2.71s-2.71-1.21-2.71-2.71,1.21-2.71,2.71-2.71,2.71,1.21,2.71,2.71Z"/>
    </g>
  </g>
</svg>