<?xml version="1.0" encoding="UTF-8"?>
<svg id="Capa_2" data-name="Capa 2" xmlns="http://www.w3.org/2000/svg" viewBox="0 0 126.59 139.99">
  <defs>
    <style>
      .cls-1 {
        fill: #668e19;
      }

      .cls-2 {
        fill: #ffbd1a;
      }

      .cls-3 {
        fill: #8dc63f;
      }

      .cls-4 {
        fill: #d1d3d4;
      }
    </style>
  </defs>
  <g id="Layer_1" data-name="Layer 1">
    <path class="cls-4" d="M63.29,139.99C28.39,139.99,0,111.6,0,76.7S28.39,13.4,63.29,13.4s63.29,28.39,63.29,63.29-28.39,63.29-63.29,63.29Zm0-123.5C30.09,16.49,3.09,43.5,3.09,76.7s27.01,60.21,60.21,60.21,60.21-27.01,60.21-60.21S96.49,16.49,63.29,16.49Z"/>
    <path class="cls-2" d="M78.24,14.94c0,8.25-6.69,14.95-14.95,14.95s-14.95-6.69-14.95-14.95S55.04,0,63.29,0s14.95,6.69,14.95,14.94Z"/>
    <path d="M63.56,12.71c1.29,0,2.32,.36,3.08,1.09,.77,.73,1.15,1.72,1.15,2.98,0,1.49-.46,2.64-1.38,3.45-.92,.8-2.24,1.21-3.95,1.21-1.49,0-2.69-.24-3.6-.72v-2.44c.48,.26,1.04,.47,1.68,.63s1.24,.24,1.82,.24c1.73,0,2.59-.71,2.59-2.12s-.9-2.02-2.68-2.02c-.33,0-.68,.03-1.07,.1-.39,.06-.71,.13-.95,.2l-1.12-.6,.5-6.81h7.25v2.4h-4.78l-.24,2.62,.32-.06c.37-.09,.84-.13,1.38-.13Z"/>
    <g>
      <rect class="cls-1" x="45.41" y="47" width="18.93" height="55.62" transform="translate(-36.83 60.72) rotate(-45)"/>
      <polygon class="cls-3" points="67.85 101.17 89.88 109.82 81.24 87.79 67.85 101.17"/>
      <rect class="cls-3" x="31.9" y="52.6" width="18.93" height="17.4" transform="translate(-31.23 47.21) rotate(-45)"/>
    </g>
  </g>
</svg>