<?xml version="1.0" encoding="UTF-8"?>
<svg id="Capa_2" data-name="Capa 2" xmlns="http://www.w3.org/2000/svg" viewBox="0 0 126.59 139.99">
  <defs>
    <style>
      .cls-1 {
        fill: #668e19;
      }

      .cls-2 {
        fill: #ffbd1a;
      }

      .cls-3 {
        fill: #8dc63f;
      }

      .cls-4 {
        fill: #d1d3d4;
      }
    </style>
  </defs>
  <g id="Layer_1" data-name="Layer 1">
    <path class="cls-4" d="M63.29,139.99C28.39,139.99,0,111.6,0,76.7S28.39,13.4,63.29,13.4s63.29,28.39,63.29,63.29-28.39,63.29-63.29,63.29Zm0-123.5C30.09,16.49,3.09,43.5,3.09,76.7s27.01,60.21,60.21,60.21,60.21-27.01,60.21-60.21S96.49,16.49,63.29,16.49Z"/>
    <path class="cls-2" d="M78.24,14.94c0,8.25-6.69,14.95-14.95,14.95s-14.95-6.69-14.95-14.95S55.04,0,63.29,0s14.95,6.69,14.95,14.94Z"/>
    <path d="M58.6,15.57c0-2.65,.56-4.62,1.68-5.91,1.12-1.29,2.8-1.94,5.03-1.94,.76,0,1.35,.05,1.79,.14v2.26c-.55-.12-1.09-.18-1.61-.18-.98,0-1.76,.15-2.38,.44-.61,.29-1.07,.73-1.38,1.3s-.48,1.39-.54,2.44h.12c.6-1.04,1.57-1.56,2.9-1.56,1.19,0,2.13,.38,2.81,1.12,.67,.75,1.01,1.79,1.01,3.11,0,1.43-.4,2.56-1.21,3.39-.8,.83-1.92,1.25-3.35,1.25-.99,0-1.85-.23-2.59-.69-.73-.46-1.3-1.12-1.7-2-.4-.88-.6-1.94-.6-3.17Zm4.83,3.6c.6,0,1.07-.2,1.39-.61,.32-.41,.49-.99,.49-1.73,0-.65-.15-1.17-.46-1.54-.3-.38-.76-.56-1.37-.56-.57,0-1.06,.19-1.47,.56-.4,.37-.61,.8-.61,1.3,0,.73,.19,1.34,.57,1.84,.38,.5,.87,.75,1.45,.75Z"/>
    <g>
      <rect class="cls-3" x="43.81" y="58.72" width="36.36" height="36.36" rx="4.74" ry="4.74"/>
      <path class="cls-1" d="M61.98,86.17c-.86,0-1.68-.35-2.27-.98l-15.54-16.46c-1.18-1.25-1.13-3.23,.13-4.41,1.24-1.18,3.24-1.12,4.41,.13l13.24,14.02,30.99-33.73c1.18-1.27,3.15-1.35,4.41-.19,1.27,1.16,1.35,3.14,.19,4.41l-33.26,36.2c-.58,.64-1.41,1-2.28,1.01h-.02Z"/>
    </g>
  </g>
</svg>