<?xml version="1.0" encoding="UTF-8"?>
<svg id="Capa_2" data-name="Capa 2" xmlns="http://www.w3.org/2000/svg" viewBox="0 0 126.59 139.99">
  <defs>
    <style>
      .cls-1 {
        fill: #fff;
      }

      .cls-2 {
        fill: #668e19;
      }

      .cls-3 {
        fill: #ffbd1a;
      }

      .cls-4 {
        fill: #8dc63f;
      }

      .cls-5 {
        fill: #d1d3d4;
      }
    </style>
  </defs>
  <g id="Layer_1" data-name="Layer 1">
    <path class="cls-5" d="M63.3,139.99C28.4,139.99,0,111.6,0,76.7S28.4,13.4,63.3,13.4s63.29,28.39,63.29,63.29-28.39,63.29-63.29,63.29Zm0-123.5C30.1,16.49,3.08,43.5,3.08,76.7s27.01,60.21,60.21,60.21,60.21-27.01,60.21-60.21S96.5,16.49,63.3,16.49Z"/>
    <path class="cls-3" d="M78.24,14.94c0,8.25-6.69,14.95-14.95,14.95s-14.95-6.69-14.95-14.95S55.04,0,63.3,0s14.95,6.69,14.95,14.94Z"/>
    <path d="M67.52,10.87c0,.83-.25,1.55-.76,2.13-.51,.58-1.22,.99-2.13,1.21v.05c1.08,.13,1.9,.46,2.45,.98,.55,.52,.84,1.23,.84,2.11,0,1.29-.47,2.29-1.4,3.01-.94,.72-2.27,1.07-4,1.07-1.45,0-2.74-.24-3.86-.72v-2.4c.52,.26,1.09,.48,1.71,.64s1.23,.25,1.84,.25c.94,0,1.62-.16,2.07-.48,.44-.32,.66-.83,.66-1.53,0-.63-.26-1.07-.77-1.34-.51-.26-1.33-.39-2.45-.39h-1.02v-2.17h1.04c1.04,0,1.79-.13,2.27-.41,.48-.27,.71-.73,.71-1.39,0-1.01-.63-1.52-1.9-1.52-.44,0-.88,.07-1.34,.22-.46,.15-.96,.4-1.52,.76l-1.3-1.95c1.22-.88,2.67-1.32,4.36-1.32,1.38,0,2.48,.28,3.27,.84,.8,.56,1.2,1.34,1.2,2.34Z"/>
    <g>
      <polygon class="cls-4" points="79.29 105.93 86.44 98.77 86.44 46.85 40.15 46.85 40.15 105.93 79.29 105.93"/>
      <polygon class="cls-2" points="78.88 105.52 78.88 98.38 86.04 98.36 78.88 105.52"/>
      <g>
        <rect class="cls-1" x="56.7" y="57" width="13.13" height="5.03"/>
        <path class="cls-1" d="M70.63,62.83h-14.73v-6.64h14.73v6.64Zm-13.13-1.62h11.52v-3.41h-11.52v3.41Z"/>
      </g>
      <g>
        <rect class="cls-1" x="50.96" y="72.65" width="8.7" height="4.21"/>
        <path class="cls-1" d="M60.46,77.67h-10.31v-5.83h10.31v5.83Zm-8.7-1.61h7.09v-2.6h-7.09v2.6Z"/>
      </g>
      <g>
        <rect class="cls-1" x="47.97" y="86.38" width="6.11" height="4.21"/>
        <path class="cls-1" d="M54.89,91.39h-7.72v-5.82h7.72v5.82Zm-6.11-1.61h4.51v-2.6h-4.51v2.6Z"/>
      </g>
      <g>
        <rect class="cls-1" x="60.16" y="86.38" width="6.11" height="4.21"/>
        <path class="cls-1" d="M67.07,91.39h-7.72v-5.82h7.72v5.82Zm-6.11-1.61h4.51v-2.6h-4.51v2.6Z"/>
      </g>
      <g>
        <rect class="cls-1" x="72.34" y="86.38" width="6.11" height="4.21"/>
        <path class="cls-1" d="M79.26,91.4h-7.72v-5.83h7.72v5.83Zm-6.11-1.62h4.51v-2.59h-4.51v2.59Z"/>
      </g>
      <g>
        <rect class="cls-1" x="66.89" y="72.65" width="8.63" height="4.21"/>
        <path class="cls-1" d="M76.32,77.67h-10.24v-5.82h10.24v5.82Zm-8.63-1.61h7.02v-2.6h-7.02v2.6Z"/>
      </g>
      <polygon class="cls-1" points="72.01 72.89 70.4 72.89 70.4 68.7 56.11 68.7 56.11 72.89 54.5 72.89 54.5 67.09 72.01 67.09 72.01 72.89"/>
      <rect class="cls-1" x="62.48" y="62.67" width="1.61" height="5.42"/>
      <rect class="cls-1" x="54.5" y="76.06" width="1.61" height="6.86"/>
      <polygon class="cls-1" points="76.21 86.67 74.6 86.67 74.6 83.31 51.83 83.31 51.83 86.67 50.22 86.67 50.22 81.7 76.21 81.7 76.21 86.67"/>
      <rect class="cls-1" x="62.41" y="81.7" width="1.61" height="4.98"/>
    </g>
  </g>
</svg>