<?xml version="1.0" encoding="UTF-8"?>
<svg id="Capa_2" data-name="Capa 2" xmlns="http://www.w3.org/2000/svg" viewBox="0 0 126.59 139.99">
  <defs>
    <style>
      .cls-1 {
        fill: #fff;
      }

      .cls-2 {
        fill: #668e19;
      }

      .cls-3 {
        fill: #ffbd1a;
      }

      .cls-4 {
        fill: #8dc63f;
      }

      .cls-5 {
        fill: #d1d3d4;
      }
    </style>
  </defs>
  <g id="Layer_1" data-name="Layer 1">
    <path class="cls-5" d="M63.3,139.99C28.4,139.99,0,111.6,0,76.7S28.4,13.4,63.3,13.4s63.29,28.39,63.29,63.29-28.39,63.29-63.29,63.29Zm0-123.5C30.1,16.49,3.08,43.5,3.08,76.7s27.01,60.21,60.21,60.21,60.21-27.01,60.21-60.21S96.5,16.49,63.3,16.49Z"/>
    <path class="cls-3" d="M78.24,14.94c0,8.25-6.69,14.95-14.95,14.95s-14.94-6.69-14.94-14.95S55.04,0,63.3,0s14.95,6.69,14.95,14.94Z"/>
    <path d="M64.7,21.25h-2.82v-7.74l.02-1.27,.05-1.39c-.48,.47-.8,.78-.98,.92l-1.54,1.23-1.36-1.7,4.3-3.43h2.32v13.37Z"/>
    <g>
      <rect class="cls-2" x="33.26" y="59.07" width="58.12" height="35.66" rx="6.62" ry="6.62" transform="translate(139.22 14.58) rotate(90)"/>
      <rect class="cls-4" x="42.01" y="56.94" width="40.61" height="35.66" transform="translate(137.09 12.45) rotate(90)"/>
      <path class="cls-1" d="M65.7,101.66h-6.77c-.79,0-1.43-.64-1.43-1.43s.64-1.43,1.43-1.43h6.77c.79,0,1.43,.64,1.43,1.43s-.64,1.43-1.43,1.43Z"/>
      <path class="cls-1" d="M59.7,83.1c-.37,0-.72-.14-.99-.39l-5.57-5.29c-.57-.55-.6-1.45-.05-2.03,.54-.57,1.44-.6,2.02-.05l4.37,4.15,11.66-16.36c.45-.65,1.35-.8,1.99-.34,.65,.46,.8,1.36,.34,2l-12.62,17.7c-.24,.34-.62,.55-1.02,.59-.05,0-.1,0-.14,0Z"/>
    </g>
  </g>
</svg>