<?xml version="1.0" encoding="UTF-8"?>
<svg id="Capa_2" data-name="Capa 2" xmlns="http://www.w3.org/2000/svg" viewBox="0 0 126.59 139.99">
  <defs>
    <style>
      .cls-1 {
        fill: #668e19;
      }

      .cls-2 {
        fill: #ffbd1a;
      }

      .cls-3 {
        fill: #f1f2f2;
      }

      .cls-4 {
        fill: #8dc63f;
      }

      .cls-5 {
        fill: #d1d3d4;
      }
    </style>
  </defs>
  <g id="Layer_1" data-name="Layer 1">
    <path class="cls-5" d="M63.29,139.99C28.39,139.99,0,111.6,0,76.7S28.39,13.4,63.29,13.4s63.29,28.39,63.29,63.29-28.39,63.29-63.29,63.29Zm0-123.5C30.09,16.49,3.09,43.5,3.09,76.7s27.01,60.21,60.21,60.21,60.21-27.01,60.21-60.21S96.49,16.49,63.29,16.49Z"/>
    <path class="cls-2" d="M78.24,14.94c0,8.25-6.69,14.95-14.95,14.95s-14.94-6.69-14.94-14.95S55.04,0,63.29,0s14.95,6.69,14.95,14.94Z"/>
    <path d="M67.36,18.48h-1.61v2.77h-2.77v-2.77h-5.71v-1.97l5.86-8.63h2.61v8.4h1.61v2.19Zm-4.38-2.19v-2.27c0-.38,.02-.93,.05-1.65s.05-1.14,.07-1.25h-.07c-.23,.5-.5,.99-.82,1.46l-2.45,3.7h3.22Z"/>
    <g>
      <path class="cls-4" d="M72.36,86.41v-8.11h-5.96c-.48-2.16-1.33-4.18-2.49-5.99l4.22-4.22-5.73-5.73-4.22,4.22c-1.81-1.15-3.82-2.01-5.99-2.49v-5.96h-8.11v5.96c-2.16,.48-4.18,1.33-5.99,2.49l-4.22-4.22-5.73,5.73,4.22,4.22c-1.15,1.81-2.01,3.83-2.49,5.99h-5.96v8.11h5.96c.48,2.16,1.33,4.18,2.49,5.99l-4.22,4.22,5.73,5.73,4.22-4.22c1.81,1.15,3.83,2.01,5.99,2.49v5.96h8.11v-5.96c2.16-.48,4.18-1.33,5.99-2.49l4.22,4.22,5.73-5.73-4.22-4.22c1.15-1.81,2.01-3.82,2.49-5.99h5.96Z"/>
      <path class="cls-3" d="M57.2,82.35c0,5-4.06,9.06-9.06,9.06s-9.06-4.06-9.06-9.06,4.06-9.06,9.06-9.06,9.06,4.06,9.06,9.06Z"/>
    </g>
    <g>
      <path class="cls-1" d="M104.79,65.41l-1.31-5.53-4.06,.96c-.67-1.4-1.58-2.63-2.66-3.68l2.2-3.55-4.83-2.99-2.2,3.55c-1.42-.5-2.93-.75-4.48-.73l-.96-4.06-5.53,1.3,.96,4.06c-1.4,.67-2.63,1.58-3.68,2.66l-3.55-2.2-2.99,4.83,3.55,2.2c-.5,1.42-.75,2.93-.73,4.48l-4.06,.96,1.31,5.53,4.06-.96c.67,1.4,1.58,2.63,2.66,3.68l-2.2,3.55,4.83,2.99,2.2-3.55c1.42,.5,2.93,.75,4.48,.73l.96,4.06,5.53-1.3-.96-4.06c1.4-.67,2.63-1.58,3.68-2.66l3.55,2.2,2.99-4.83-3.55-2.2c.5-1.42,.75-2.93,.73-4.48l4.06-.96Z"/>
      <path class="cls-3" d="M93.8,65.09c.81,3.41-1.31,6.83-4.72,7.63-3.41,.81-6.83-1.31-7.63-4.72-.81-3.41,1.31-6.83,4.72-7.63,3.41-.81,6.83,1.31,7.63,4.72Z"/>
    </g>
  </g>
</svg>