<?xml version="1.0" encoding="UTF-8"?>
<svg id="Capa_2" data-name="Capa 2" xmlns="http://www.w3.org/2000/svg" viewBox="0 0 88.96 88.96">
  <defs>
    <style>
      .cls-1 {
        fill: #fff;
      }

      .cls-2 {
        fill: #d1d3d4;
      }
    </style>
  </defs>
  <g id="Layer_1" data-name="Layer 1">
    <path class="cls-1" d="M44.48,88.96h0C19.91,88.96,0,69.04,0,44.48H0C0,19.91,19.91,0,44.48,0h0c24.57,0,44.48,19.91,44.48,44.48h0c0,24.57-19.91,44.48-44.48,44.48Z"/>
    <g>
      <path class="cls-2" d="M44.08,50.42c-8.16,0-14.79-6.63-14.79-14.79s6.63-14.79,14.79-14.79,14.79,6.63,14.79,14.79-6.63,14.79-14.79,14.79Zm0-26.5c-6.46,0-11.71,5.25-11.71,11.71s5.25,11.71,11.71,11.71,11.71-5.25,11.71-11.71-5.25-11.71-11.71-11.71Z"/>
      <path class="cls-2" d="M59.18,68.12H28.98v-5.53c0-8.33,6.77-15.1,15.1-15.1s15.1,6.77,15.1,15.1v5.53Zm-27.12-3.08h24.03v-2.45c0-6.62-5.39-12.02-12.02-12.02s-12.02,5.39-12.02,12.02v2.45Z"/>
    </g>
  </g>
</svg>