<?xml version="1.0" encoding="UTF-8"?>
<svg id="Capa_2" data-name="Capa 2" xmlns="http://www.w3.org/2000/svg" viewBox="0 0 152.04 152.04">
  <defs>
    <style>
      .cls-1 {
        fill: #f1f2f2;
      }

      .cls-2 {
        fill: #8dc63f;
      }

      .cls-3 {
        fill: #231f20;
      }
    </style>
  </defs>
  <g id="Layer_1" data-name="Layer 1">
    <path class="cls-1" d="M76.02,152.04h0C34.04,152.04,0,118.01,0,76.02H0C0,34.04,34.04,0,76.02,0h0c41.99,0,76.02,34.04,76.02,76.02h0c0,41.99-34.04,76.02-76.02,76.02Z"/>
    <g>
      <g>
        <circle class="cls-2" cx="76.02" cy="76.02" r="34.11"/>
        <path class="cls-3" d="M76.02,111.34c-19.48,0-35.32-15.85-35.32-35.32s15.85-35.32,35.32-35.32,35.32,15.85,35.32,35.32-15.85,35.32-35.32,35.32Zm0-68.22c-18.13,0-32.89,14.76-32.89,32.89s14.76,32.89,32.89,32.89,32.89-14.76,32.89-32.89-14.76-32.89-32.89-32.89Z"/>
      </g>
      <g>
        <path class="cls-1" d="M102.15,76.02c0,14.43-11.7,26.13-26.13,26.13s-26.13-11.7-26.13-26.13,11.7-26.13,26.13-26.13,26.13,11.7,26.13,26.13Z"/>
        <path class="cls-3" d="M76.02,103.37c-15.08,0-27.35-12.26-27.35-27.34s12.27-27.35,27.35-27.35,27.35,12.27,27.35,27.35-12.27,27.34-27.35,27.34Zm0-52.26c-13.74,0-24.91,11.18-24.91,24.92s11.18,24.91,24.91,24.91,24.92-11.18,24.92-24.91-11.18-24.92-24.92-24.92Z"/>
      </g>
      <g>
        <polygon class="cls-1" points="93.77 84.03 76.02 76.02 76.02 63.14 93.77 84.03"/>
        <path class="cls-3" d="M93.77,85.24c-.17,0-.34-.03-.5-.11l-17.75-8c-.44-.2-.72-.63-.72-1.11v-12.88c0-.67,.54-1.22,1.22-1.22s1.21,.54,1.21,1.22v12.09l17.03,7.68c.61,.27,.89,.99,.61,1.61-.2,.45-.65,.72-1.11,.72Z"/>
      </g>
    </g>
  </g>
</svg>