<?xml version="1.0" encoding="UTF-8"?>
<svg id="Capa_2" data-name="Capa 2" xmlns="http://www.w3.org/2000/svg" viewBox="0 0 152.04 152.04">
  <defs>
    <style>
      .cls-1 {
        fill: #f1f2f2;
      }

      .cls-2 {
        fill: #8dc63f;
      }

      .cls-3 {
        fill: #231f20;
      }
    </style>
  </defs>
  <g id="Layer_1" data-name="Layer 1">
    <path class="cls-1" d="M76.02,152.04h0C34.04,152.04,0,118.01,0,76.02H0C0,34.04,34.04,0,76.02,0h0c41.99,0,76.02,34.04,76.02,76.02h0c0,41.99-34.04,76.02-76.02,76.02Z"/>
    <g>
      <g>
        <circle class="cls-1" cx="49.11" cy="63.53" r="12.6"/>
        <path class="cls-3" d="M49.11,77.35c-7.62,0-13.82-6.2-13.82-13.82s6.2-13.82,13.82-13.82,13.82,6.2,13.82,13.82-6.2,13.82-13.82,13.82Zm0-25.2c-6.28,0-11.39,5.11-11.39,11.39s5.11,11.39,11.39,11.39,11.39-5.11,11.39-11.39-5.11-11.39-11.39-11.39Z"/>
      </g>
      <g>
        <path class="cls-1" d="M62.01,92.98h-25.79v-3.8c0-7.12,5.77-12.9,12.9-12.9h0c7.12,0,12.9,5.77,12.9,12.9v3.8Z"/>
        <path class="cls-3" d="M62.01,94.19h-25.79c-.67,0-1.22-.54-1.22-1.22v-3.8c0-7.78,6.33-14.11,14.11-14.11s14.11,6.33,14.11,14.11v3.8c0,.67-.54,1.22-1.22,1.22Zm-24.58-2.43h23.36v-2.58c0-6.44-5.24-11.68-11.68-11.68s-11.68,5.24-11.68,11.68v2.58Z"/>
      </g>
    </g>
    <g>
      <g>
        <circle class="cls-1" cx="102.93" cy="63.53" r="12.6"/>
        <path class="cls-3" d="M102.93,77.35c-7.62,0-13.82-6.2-13.82-13.82s6.2-13.82,13.82-13.82,13.82,6.2,13.82,13.82-6.2,13.82-13.82,13.82Zm0-25.2c-6.28,0-11.39,5.11-11.39,11.39s5.11,11.39,11.39,11.39,11.39-5.11,11.39-11.39-5.11-11.39-11.39-11.39Z"/>
      </g>
      <g>
        <path class="cls-1" d="M115.83,92.98h-25.79v-3.8c0-7.12,5.77-12.9,12.9-12.9h0c7.12,0,12.9,5.77,12.9,12.9v3.8Z"/>
        <path class="cls-3" d="M115.83,94.19h-25.79c-.67,0-1.22-.54-1.22-1.22v-3.8c0-7.78,6.33-14.11,14.11-14.11s14.11,6.33,14.11,14.11v3.8c0,.67-.54,1.22-1.22,1.22Zm-24.58-2.43h23.36v-2.58c0-6.44-5.24-11.68-11.68-11.68s-11.68,5.24-11.68,11.68v2.58Z"/>
      </g>
    </g>
    <g>
      <g>
        <path class="cls-1" d="M92.71,66.57c0,9.22-7.47,16.69-16.69,16.69s-16.69-7.47-16.69-16.69,7.47-16.69,16.69-16.69,16.69,7.47,16.69,16.69Z"/>
        <path class="cls-3" d="M76.02,84.48c-9.87,0-17.91-8.04-17.91-17.91s8.04-17.91,17.91-17.91,17.91,8.03,17.91,17.91-8.03,17.91-17.91,17.91Zm0-33.39c-8.54,0-15.48,6.94-15.48,15.48s6.94,15.48,15.48,15.48,15.48-6.94,15.48-15.48-6.94-15.48-15.48-15.48Z"/>
      </g>
      <g>
        <path class="cls-2" d="M93.11,105.58H58.94v-5.03c0-9.44,7.65-17.08,17.08-17.08h0c9.44,0,17.08,7.65,17.08,17.08v5.03Z"/>
        <path class="cls-3" d="M93.1,106.79H58.94c-.67,0-1.22-.54-1.22-1.22v-5.03c0-10.09,8.21-18.3,18.3-18.3s18.3,8.21,18.3,18.3v5.03c0,.67-.54,1.22-1.22,1.22Zm-32.95-2.43h31.74v-3.82c0-8.75-7.12-15.87-15.87-15.87s-15.87,7.12-15.87,15.87v3.82Z"/>
      </g>
    </g>
  </g>
</svg>