<?xml version="1.0" encoding="UTF-8"?>
<svg id="Capa_2" data-name="Capa 2" xmlns="http://www.w3.org/2000/svg" viewBox="0 0 152.04 152.04">
  <defs>
    <style>
      .cls-1 {
        fill: #f1f2f2;
      }

      .cls-2 {
        fill: #8dc63f;
      }

      .cls-3 {
        fill: #231f20;
      }
    </style>
  </defs>
  <g id="Layer_1" data-name="Layer 1">
    <path class="cls-1" d="M76.02,152.04h0C34.04,152.04,0,118.01,0,76.02H0C0,34.04,34.04,0,76.02,0h0c41.99,0,76.02,34.04,76.02,76.02h0c0,41.99-34.04,76.02-76.02,76.02Z"/>
    <g>
      <g>
        <path class="cls-1" d="M54.08,64.78c0-11.13,9.02-20.15,20.15-20.15s20.15,9.02,20.15,20.15c0,3.47-.85,6.74-2.4,9.59l-5.18,8.32-1.71,11.6h-21.73l-1.99-11.6-4.88-8.33c-1.54-2.85-2.42-6.11-2.42-9.58Z"/>
        <path class="cls-3" d="M85.1,95.5h-21.73c-.59,0-1.1-.42-1.2-1.01l-1.95-11.39-4.77-8.14c-1.7-3.14-2.58-6.65-2.58-10.19,0-11.78,9.58-21.36,21.36-21.36s21.37,9.58,21.37,21.36c0,3.57-.88,7.09-2.54,10.16l-5.09,8.17-1.67,11.35c-.09,.6-.6,1.04-1.2,1.04Zm-20.71-2.43h19.66l1.55-10.57c.02-.16,.08-.32,.17-.46l5.18-8.32c1.44-2.65,2.21-5.77,2.21-8.94,0-10.44-8.5-18.93-18.94-18.93s-18.93,8.49-18.93,18.93c0,3.14,.79,6.25,2.27,9l4.85,8.29c.07,.13,.13,.26,.15,.41l1.82,10.6Z"/>
      </g>
      <g>
        <polygon class="cls-1" points="67.41 73.04 74.25 94.58 80.04 73.04 67.41 73.04"/>
        <path class="cls-3" d="M74.26,95.8c-.53,0-1-.34-1.16-.85l-6.85-21.54c-.12-.37-.05-.77,.18-1.09,.23-.31,.59-.5,.98-.5h12.63c.38,0,.74,.18,.97,.47,.23,.3,.31,.69,.21,1.06l-5.78,21.54c-.14,.52-.61,.89-1.15,.9h-.03Zm-5.19-21.54l5.09,16,4.3-16h-9.39Z"/>
      </g>
      <g>
        <rect class="cls-2" x="63.26" y="94.28" width="21.84" height="13.13"/>
        <path class="cls-3" d="M85.1,108.63h-21.84c-.67,0-1.22-.54-1.22-1.22v-13.13c0-.67,.54-1.21,1.22-1.21h21.84c.67,0,1.22,.54,1.22,1.21v13.13c0,.67-.54,1.22-1.22,1.22Zm-20.63-2.43h19.41v-10.7h-19.41v10.7Z"/>
      </g>
    </g>
  </g>
</svg>