<?xml version="1.0" encoding="UTF-8"?>
<svg id="Capa_2" data-name="Capa 2" xmlns="http://www.w3.org/2000/svg" viewBox="0 0 152.04 152.04">
  <defs>
    <style>
      .cls-1 {
        fill: #f1f2f2;
      }

      .cls-2 {
        fill: #8dc63f;
      }

      .cls-3 {
        fill: #231f20;
      }
    </style>
  </defs>
  <g id="Layer_1" data-name="Layer 1">
    <path class="cls-1" d="M76.02,152.04h0C34.04,152.04,0,118.01,0,76.02H0C0,34.04,34.04,0,76.02,0h0c41.99,0,76.02,34.04,76.02,76.02h0c0,41.99-34.04,76.02-76.02,76.02Z"/>
    <g>
      <g>
        <path class="cls-2" d="M42.11,64.9h25.33v38.92h-25.33c-.2,0-.36-.16-.36-.36v-38.2c0-.2,.16-.36,.36-.36Z"/>
        <path class="cls-3" d="M67.44,105.04h-23.41c-1.93,0-3.5-1.57-3.5-3.5v-34.35c0-1.93,1.57-3.5,3.5-3.5h23.41c.67,0,1.22,.54,1.22,1.22v38.92c0,.67-.54,1.22-1.22,1.22Zm-23.41-38.92c-.59,0-1.07,.48-1.07,1.07v34.35c0,.59,.48,1.07,1.07,1.07h22.19v-36.49h-22.19Z"/>
      </g>
      <g>
        <path class="cls-1" d="M56.48,60.98h6.03c2.72,0,4.93,2.21,4.93,4.93v36.76c0,2.72-2.21,4.92-4.92,4.92h-6.04c-2.72,0-4.92-2.21-4.92-4.92v-36.76c0-2.72,2.21-4.93,4.93-4.93Z"/>
        <path class="cls-3" d="M62.52,108.8h-6.04c-3.39,0-6.14-2.75-6.14-6.14v-36.76c0-3.39,2.75-6.14,6.14-6.14h6.04c3.39,0,6.14,2.75,6.14,6.14v36.76c0,3.39-2.75,6.14-6.14,6.14Zm-6.04-46.61c-2.05,0-3.71,1.66-3.71,3.71v36.76c0,2.05,1.66,3.71,3.71,3.71h6.04c2.05,0,3.71-1.66,3.71-3.71v-36.76c0-2.05-1.66-3.71-3.71-3.71h-6.04Z"/>
      </g>
      <g>
        <path class="cls-1" d="M86.8,68.23s11.42-30.22-2.49-22.52c0,12.91-16.87,22.52-16.87,22.52v33.08h37.94c2.18,0,4.06-1.55,4.47-3.7l4.57-23.98c.25-1.33-.1-2.71-.96-3.75-.86-1.04-2.15-1.65-3.5-1.65h-23.14Z"/>
        <path class="cls-3" d="M105.38,102.52h-37.94c-.67,0-1.21-.54-1.21-1.21v-33.08c0-.44,.23-.84,.61-1.06,.16-.09,16.26-9.43,16.26-21.47,0-.44,.24-.85,.63-1.06,3.04-1.68,5.38-1.86,6.94-.5,4.16,3.6-.19,17.42-2.13,22.87h21.4c1.72,0,3.34,.76,4.44,2.09,1.1,1.33,1.55,3.06,1.22,4.76l-4.57,23.98c-.52,2.72-2.9,4.68-5.66,4.68Zm-36.72-2.43h36.72c1.6,0,2.97-1.14,3.27-2.71l4.57-23.98c.19-.98-.07-1.98-.71-2.75-.63-.77-1.57-1.21-2.57-1.21h-23.14c-.4,0-.77-.19-1-.52-.23-.33-.28-.75-.14-1.12,2.93-7.75,5.92-19.65,3.41-21.82-.78-.67-2.38-.1-3.57,.47-.54,11.8-13.77,20.58-16.85,22.47v31.17Z"/>
      </g>
      <g>
        <path class="cls-1" d="M63.04,97.77c0,1.95-1.58,3.54-3.54,3.54s-3.54-1.59-3.54-3.54,1.58-3.54,3.54-3.54,3.54,1.58,3.54,3.54Z"/>
        <path class="cls-3" d="M59.5,102.52c-2.62,0-4.76-2.13-4.76-4.76s2.13-4.76,4.76-4.76,4.75,2.13,4.75,4.76-2.13,4.76-4.75,4.76Zm0-7.08c-1.28,0-2.33,1.04-2.33,2.33s1.04,2.33,2.33,2.33,2.32-1.04,2.32-2.33-1.04-2.33-2.32-2.33Z"/>
      </g>
    </g>
  </g>
</svg>