<?xml version="1.0" encoding="UTF-8"?>
<svg id="Capa_2" data-name="Capa 2" xmlns="http://www.w3.org/2000/svg" viewBox="0 0 152.04 152.04">
  <defs>
    <style>
      .cls-1 {
        fill: #f1f2f2;
      }

      .cls-2 {
        fill: #8dc63f;
      }

      .cls-3 {
        fill: #231f20;
      }
    </style>
  </defs>
  <g id="Layer_1" data-name="Layer 1">
    <path class="cls-1" d="M76.02,152.04h0C34.04,152.04,0,118.01,0,76.02H0C0,34.04,34.04,0,76.02,0h0c41.99,0,76.02,34.04,76.02,76.02h0c0,41.99-34.04,76.02-76.02,76.02Z"/>
    <g>
      <g>
        <polygon class="cls-2" points="90.04 71.06 112.48 71.06 112.48 99.31 103.14 99.31 103.15 102.21 103.16 103.76 103.18 107.54 100.84 106.09 99.87 105.49 97.71 104.16 97.25 103.88 94.7 102.3 94.5 102.17 92.08 100.68 91.29 100.19 89.86 99.31 62 99.31 62 81.22 90.04 71.06"/>
        <path class="cls-3" d="M103.18,108.75c-.22,0-.44-.06-.64-.18l-13.03-8.05h-27.51c-.67,0-1.22-.54-1.22-1.22v-18.09c0-.67,.54-1.22,1.22-1.22s1.22,.54,1.22,1.22v16.87h26.64c.22,0,.45,.06,.64,.18l11.46,7.08-.03-6.04c0-.32,.13-.63,.35-.86,.23-.23,.54-.36,.86-.36h8.12v-25.82h-21.22c-.67,0-1.22-.54-1.22-1.22s.54-1.22,1.22-1.22h22.43c.67,0,1.22,.54,1.22,1.22v28.25c0,.67-.54,1.22-1.22,1.22h-8.11l.04,7.01c0,.44-.23,.85-.62,1.07-.19,.1-.39,.15-.6,.15Z"/>
      </g>
      <g>
        <polygon class="cls-1" points="39.57 52.85 39.57 81.1 48.9 81.1 48.86 89.34 62.18 81.1 90.04 81.1 90.04 52.85 39.57 52.85"/>
        <path class="cls-3" d="M48.86,90.55c-.21,0-.41-.05-.59-.15-.39-.22-.62-.62-.62-1.07l.04-7.01h-8.11c-.67,0-1.22-.54-1.22-1.22v-28.25c0-.67,.54-1.22,1.22-1.22h50.48c.67,0,1.21,.54,1.21,1.22v28.25c0,.67-.54,1.22-1.21,1.22h-27.52l-13.03,8.05c-.2,.12-.42,.18-.64,.18Zm-8.08-10.66h8.12c.32,0,.63,.13,.86,.36,.23,.23,.36,.54,.35,.86l-.03,6.04,11.46-7.08c.19-.12,.42-.18,.64-.18h26.65v-25.82H40.78v25.82Z"/>
      </g>
    </g>
  </g>
</svg>